0
SECTION
2
HEADER
0
ENDSEC
0
SECTION
2
TABLES
0
TABLE
2
LTYPE
0
LTYPE
2
Continuous
70
0
3
Solid line
72
65
73
0
40
0.000000
0
ENDTAB
0
TABLE
2
LAYER
0
LAYER
2
0
70
0
62
7
6
Continuous
0
ENDTAB
0
TABLE
2
STYLE
0
STYLE
2
Standard
3
Arial
70
0
71
0
40
5.000000
41
1.000000
42
5.000000
50
0.000000
0
ENDTAB
0
TABLE
2
DIMSTYLE
0
DIMSTYLE
2
Standard
70
0
3

4

5

6
CLOSEDFILLED
7
CLOSEDFILLED
40
1.000000
41
2.000000
42
1.000000
43
5.000000
44
2.000000
45
0.000000
46
0.000000
47
0.000000
48
0.000000
140
5.000000
141
2.000000
142
0.000000
143
25.400000
144
1.000000
145
0.000000
146
1.000000
147
2.000000
71
0
72
0
73
0
74
1
75
0
76
0
77
0
78
0
170
0
171
4
172
0
173
1
174
0
175
0
176
0
177
-2
178
-2
271
4
272
4
273
1
274
4
275
0
280
0
281
0
282
0
283
1
288
0
0
ENDTAB
0
ENDSEC
0
SECTION
2
BLOCKS
0
BLOCK
8
0
2
_CLOSEDFILLED
70
0
10
0.000000
20
0.000000
3
_CLOSEDFILLED
0
SOLID
8
0
10
-1.000000
20
0.166667
30
0.000000
11
-1.000000
21
-0.166667
31
0.000000
12
0.000000
22
0.000000
32
0.000000
13
0.000000
23
0.000000
33
0.000000
0
ENDBLK
0
BLOCK
8
0
2
_CLOSEDBLANK
70
0
10
0.000000
20
0.000000
3
_CLOSEDBLANK
0
LINE
8
0
10
-1.000000
20
0.166667
30
0.000000
11
0.000000
21
0.000000
31
0.000000
0
LINE
8
0
10
0.000000
20
0.000000
30
0.000000
11
-1.000000
21
-0.166667
31
0.000000
0
LINE
8
0
10
-1.000000
20
0.166667
30
0.000000
11
-1.000000
21
-0.166667
31
0.000000
0
ENDBLK
0
BLOCK
8
0
2
_CLOSED
70
0
10
0.000000
20
0.000000
3
_CLOSED
0
LINE
8
0
10
-1.000000
20
0.166667
30
0.000000
11
0.000000
21
0.000000
31
0.000000
0
LINE
8
0
10
0.000000
20
0.000000
30
0.000000
11
-1.000000
21
-0.166667
31
0.000000
0
LINE
8
0
10
-1.000000
20
0.166667
30
0.000000
11
-1.000000
21
-0.166667
31
0.000000
0
LINE
8
0
10
0.000000
20
0.000000
30
0.000000
11
-1.000000
21
0.000000
31
0.000000
0
ENDBLK
0
BLOCK
8
0
2
_DOT
70
0
10
0.000000
20
0.000000
3
_DOT
0
POLYLINE
8
0
70
1
66
 1
10
0.0
20
0.0
30
0.000000
0
VERTEX
8
0
10
0.250000
20
0.000000
30
0.000000
42
1.000000
0
VERTEX
8
0
10
-0.250000
20
0.000000
30
0.000000
42
1.000000
0
SEQEND
8
0
0
LINE
8
0
10
-0.500000
20
0.000000
30
0.000000
11
-1.000000
21
0.000000
31
0.000000
0
ENDBLK
0
BLOCK
8
0
2
_ARCHTICK
70
0
10
0.000000
20
0.000000
3
_ARCHTICK
0
POLYLINE
8
0
70
0
66
 1
10
0.0
20
0.0
30
0.000000
0
VERTEX
8
0
10
0.500000
20
0.500000
30
0.000000
0
VERTEX
8
0
10
-0.500000
20
-0.500000
30
0.000000
0
SEQEND
8
0
0
ENDBLK
0
BLOCK
8
0
2
_OBLIQUE
70
0
10
0.000000
20
0.000000
3
_OBLIQUE
0
LINE
8
0
10
-0.500000
20
-0.500000
30
0.000000
11
0.500000
21
0.500000
31
0.000000
0
ENDBLK
0
BLOCK
8
0
2
_OPEN
70
0
10
0.000000
20
0.000000
3
_OPEN
0
LINE
8
0
10
-1.000000
20
0.166667
30
0.000000
11
0.000000
21
0.000000
31
0.000000
0
LINE
8
0
10
-1.000000
20
-0.166667
30
0.000000
11
0.000000
21
0.000000
31
0.000000
0
LINE
8
0
10
0.000000
20
0.000000
30
0.000000
11
-1.000000
21
0.000000
31
0.000000
0
ENDBLK
0
BLOCK
8
0
2
_ORIGIN
70
0
10
0.000000
20
0.000000
3
_ORIGIN
0
CIRCLE
8
0
10
0.000000
20
0.000000
40
0.500000
0
LINE
8
0
10
0.000000
20
0.000000
30
0.000000
11
-1.000000
21
0.000000
31
0.000000
0
ENDBLK
0
BLOCK
8
0
2
_ORIGIN2
70
0
10
0.000000
20
0.000000
3
_ORIGIN2
0
CIRCLE
8
0
10
0.000000
20
0.000000
40
0.500000
0
CIRCLE
8
0
10
0.000000
20
0.000000
40
0.250000
0
LINE
8
0
10
-0.500000
20
0.000000
30
0.000000
11
-1.000000
21
0.000000
31
0.000000
0
ENDBLK
0
BLOCK
8
0
2
_OPEN90
70
0
10
0.000000
20
0.000000
3
_OPEN90
0
LINE
8
0
10
-0.500000
20
0.500000
30
0.000000
11
0.000000
21
0.000000
31
0.000000
0
LINE
8
0
10
0.000000
20
0.000000
30
0.000000
11
-0.500000
21
-0.500000
31
0.000000
0
LINE
8
0
10
0.000000
20
0.000000
30
0.000000
11
-1.000000
21
0.000000
31
0.000000
0
ENDBLK
0
BLOCK
8
0
2
_OPEN30
70
0
10
0.000000
20
0.000000
3
_OPEN30
0
LINE
8
0
10
-1.000000
20
0.267949
30
0.000000
11
0.000000
21
0.000000
31
0.000000
0
LINE
8
0
10
0.000000
20
0.000000
30
0.000000
11
-1.000000
21
-0.267949
31
0.000000
0
LINE
8
0
10
0.000000
20
0.000000
30
0.000000
11
-1.000000
21
0.000000
31
0.000000
0
ENDBLK
0
BLOCK
8
0
2
_DOTSMALL
70
0
10
0.000000
20
0.000000
3
_DOTSMALL
0
POLYLINE
8
0
70
1
66
 1
10
0.0
20
0.0
30
0.000000
0
VERTEX
8
0
10
0.062500
20
0.000000
30
0.000000
42
1.000000
0
VERTEX
8
0
10
-0.062500
20
0.000000
30
0.000000
42
1.000000
0
SEQEND
8
0
0
ENDBLK
0
BLOCK
8
0
2
_DOTBLANK
70
0
10
0.000000
20
0.000000
3
_DOTBLANK
0
CIRCLE
8
0
10
0.000000
20
0.000000
40
0.500000
0
LINE
8
0
10
-0.500000
20
0.000000
30
0.000000
11
-1.000000
21
0.000000
31
0.000000
0
ENDBLK
0
BLOCK
8
0
2
_SMALL
70
0
10
0.000000
20
0.000000
3
_SMALL
0
CIRCLE
8
0
10
0.000000
20
0.000000
40
0.250000
0
ENDBLK
0
BLOCK
8
0
2
_BOXBLANK
70
0
10
0.000000
20
0.000000
3
_BOXBLANK
0
LINE
8
0
10
-0.500000
20
-0.500000
30
0.000000
11
0.500000
21
-0.500000
31
0.000000
0
LINE
8
0
10
0.500000
20
-0.500000
30
0.000000
11
0.500000
21
0.500000
31
0.000000
0
LINE
8
0
10
0.500000
20
0.500000
30
0.000000
11
-0.500000
21
0.500000
31
0.000000
0
LINE
8
0
10
-0.500000
20
0.500000
30
0.000000
11
-0.500000
21
-0.500000
31
0.000000
0
LINE
8
0
10
-0.500000
20
0.000000
30
0.000000
11
-1.000000
21
0.000000
31
0.000000
0
ENDBLK
0
BLOCK
8
0
2
_BOXFILLED
70
0
10
0.000000
20
0.000000
3
_BOXFILLED
0
SOLID
8
0
10
-0.500000
20
0.500000
30
0.000000
11
0.500000
21
0.500000
31
0.000000
12
-0.500000
22
-0.500000
32
0.000000
13
0.500000
23
-0.500000
33
0.000000
0
LINE
8
0
10
-0.500000
20
0.000000
30
0.000000
11
-1.000000
21
0.000000
31
0.000000
0
ENDBLK
0
BLOCK
8
0
2
_DATUMBLANK
70
0
10
0.000000
20
0.000000
3
_DATUMBLANK
0
LINE
8
0
10
0.000000
20
0.577350
30
0.000000
11
-1.000000
21
0.000000
31
0.000000
0
LINE
8
0
10
-1.000000
20
0.000000
30
0.000000
11
0.000000
21
-0.577350
31
0.000000
0
LINE
8
0
10
0.000000
20
-0.577350
30
0.000000
11
0.000000
21
0.577350
31
0.000000
0
ENDBLK
0
BLOCK
8
0
2
_DATUMFILLED
70
0
10
0.000000
20
0.000000
3
_DATUMFILLED
0
SOLID
8
0
10
0.000000
20
0.577350
30
0.000000
11
-1.000000
21
0.000000
31
0.000000
12
0.000000
22
-0.577350
32
0.000000
13
0.000000
23
-0.577350
33
0.000000
0
ENDBLK
0
BLOCK
8
0
2
_INTEGRAL
70
0
10
0.000000
20
0.000000
3
_INTEGRAL
0
ARC
8
0
10
0.444888
20
-0.091335
40
0.454167
50
102.000000
51
168.000000
0
ARC
8
0
10
-0.444888
20
0.091335
40
0.454167
50
282.000000
51
348.000000
0
ENDBLK
0
BLOCK
8
0
2
_NONE
70
0
10
0.000000
20
0.000000
3
_NONE
0
ENDBLK
0
ENDSEC
0
SECTION
2
ENTITIES
0
CIRCLE
8
0
6
Continuous
10
56.500000
20
6.000000
40
1.550000
0
CIRCLE
8
0
6
Continuous
10
56.500000
20
36.000000
40
1.550000
0
CIRCLE
8
0
6
Continuous
10
22.500000
20
68.000000
40
1.550000
0
CIRCLE
8
0
6
Continuous
10
77.500000
20
68.000000
40
1.550000
0
CIRCLE
8
0
6
Continuous
10
43.500000
20
6.000000
40
1.550000
0
CIRCLE
8
0
6
Continuous
10
43.500000
20
36.000000
40
1.550000
0
POLYLINE
8
0
6
Continuous
70
0
66
 1
10
0.0
20
0.0
30
0.000000
0
VERTEX
8
0
10
0.000000
20
75.000000
30
0.000000
0
VERTEX
8
0
10
1.258344
20
73.999713
30
0.000000
0
VERTEX
8
0
10
2.486320
20
72.987728
30
0.000000
0
VERTEX
8
0
10
3.684298
20
71.964574
30
0.000000
0
VERTEX
8
0
10
4.852647
20
70.930775
30
0.000000
0
VERTEX
8
0
10
5.991735
20
69.886861
30
0.000000
0
VERTEX
8
0
10
7.101932
20
68.833356
30
0.000000
0
VERTEX
8
0
10
8.183608
20
67.770788
30
0.000000
0
VERTEX
8
0
10
9.237131
20
66.699685
30
0.000000
0
VERTEX
8
0
10
10.407158
20
65.465790
30
0.000000
0
VERTEX
8
0
10
11.541448
20
64.222220
30
0.000000
0
VERTEX
8
0
10
12.640552
20
62.969763
30
0.000000
0
VERTEX
8
0
10
13.705021
20
61.709204
30
0.000000
0
VERTEX
8
0
10
14.735405
20
60.441329
30
0.000000
0
VERTEX
8
0
10
15.732257
20
59.166926
30
0.000000
0
VERTEX
8
0
10
16.696126
20
57.886781
30
0.000000
0
VERTEX
8
0
10
17.627565
20
56.601679
30
0.000000
0
VERTEX
8
0
10
18.527125
20
55.312409
30
0.000000
0
VERTEX
8
0
10
19.161641
20
54.372588
30
0.000000
0
VERTEX
8
0
10
19.779798
20
53.431279
30
0.000000
0
VERTEX
8
0
10
20.381810
20
52.488787
30
0.000000
0
VERTEX
8
0
10
20.967886
20
51.545413
30
0.000000
0
VERTEX
8
0
10
21.538240
20
50.601460
30
0.000000
0
VERTEX
8
0
10
22.093084
20
49.657230
30
0.000000
0
VERTEX
8
0
10
22.632629
20
48.713026
30
0.000000
0
VERTEX
8
0
10
23.157088
20
47.769150
30
0.000000
0
VERTEX
8
0
10
24.161594
20
45.883593
30
0.000000
0
VERTEX
8
0
10
24.826188
20
44.574672
30
0.000000
0
VERTEX
8
0
10
25.463381
20
43.268959
30
0.000000
0
VERTEX
8
0
10
26.073743
20
41.967267
30
0.000000
0
VERTEX
8
0
10
26.657846
20
40.670412
30
0.000000
0
VERTEX
8
0
10
27.216260
20
39.379208
30
0.000000
0
VERTEX
8
0
10
27.749557
20
38.094471
30
0.000000
0
VERTEX
8
0
10
28.258307
20
36.817015
30
0.000000
0
VERTEX
8
0
10
28.743082
20
35.547654
30
0.000000
0
VERTEX
8
0
10
29.204452
20
34.287203
30
0.000000
0
VERTEX
8
0
10
29.808497
20
32.549888
30
0.000000
0
VERTEX
8
0
10
30.369880
20
30.833592
30
0.000000
0
VERTEX
8
0
10
30.890139
20
29.140510
30
0.000000
0
VERTEX
8
0
10
31.370810
20
27.472837
30
0.000000
0
VERTEX
8
0
10
31.813432
20
25.832766
30
0.000000
0
VERTEX
8
0
10
32.219542
20
24.222491
30
0.000000
0
VERTEX
8
0
10
32.590678
20
22.644208
30
0.000000
0
VERTEX
8
0
10
32.928378
20
21.100110
30
0.000000
0
VERTEX
8
0
10
33.234179
20
19.592392
30
0.000000
0
VERTEX
8
0
10
33.557417
20
17.855592
30
0.000000
0
VERTEX
8
0
10
33.703844
20
17.008652
30
0.000000
0
VERTEX
8
0
10
33.840569
20
16.176629
30
0.000000
0
VERTEX
8
0
10
33.967911
20
15.359977
30
0.000000
0
VERTEX
8
0
10
34.086192
20
14.559155
30
0.000000
0
VERTEX
8
0
10
34.195731
20
13.774618
30
0.000000
0
VERTEX
8
0
10
34.296848
20
13.006824
30
0.000000
0
VERTEX
8
0
10
34.389864
20
12.256228
30
0.000000
0
VERTEX
8
0
10
34.475097
20
11.523288
30
0.000000
0
VERTEX
8
0
10
34.564906
20
10.693244
30
0.000000
0
VERTEX
8
0
10
34.645115
20
9.888444
30
0.000000
0
VERTEX
8
0
10
34.716229
20
9.109608
30
0.000000
0
VERTEX
8
0
10
34.778752
20
8.357455
30
0.000000
0
VERTEX
8
0
10
34.833187
20
7.632704
30
0.000000
0
VERTEX
8
0
10
34.880039
20
6.936076
30
0.000000
0
VERTEX
8
0
10
34.919813
20
6.268289
30
0.000000
0
VERTEX
8
0
10
34.953012
20
5.630063
30
0.000000
0
VERTEX
8
0
10
34.980140
20
5.022118
30
0.000000
0
VERTEX
8
0
10
35.004735
20
4.353765
30
0.000000
0
VERTEX
8
0
10
35.022588
20
3.728520
30
0.000000
0
VERTEX
8
0
10
35.034492
20
3.147518
30
0.000000
0
VERTEX
8
0
10
35.041242
20
2.611893
30
0.000000
0
VERTEX
8
0
10
35.043633
20
2.122778
30
0.000000
0
VERTEX
8
0
10
35.042458
20
1.681306
30
0.000000
0
VERTEX
8
0
10
35.038513
20
1.288611
30
0.000000
0
VERTEX
8
0
10
35.032592
20
0.945828
30
0.000000
0
VERTEX
8
0
10
35.025488
20
0.654088
30
0.000000
0
VERTEX
8
0
10
35.021457
20
0.518692
30
0.000000
0
VERTEX
8
0
10
35.017437
20
0.398563
30
0.000000
0
VERTEX
8
0
10
35.013552
20
0.293880
30
0.000000
0
VERTEX
8
0
10
35.009926
20
0.204818
30
0.000000
0
VERTEX
8
0
10
35.006682
20
0.131554
30
0.000000
0
VERTEX
8
0
10
35.003944
20
0.074264
30
0.000000
0
VERTEX
8
0
10
35.001835
20
0.033124
30
0.000000
0
VERTEX
8
0
10
35.000479
20
0.008310
30
0.000000
0
VERTEX
8
0
10
35.000000
20
0.000000
30
0.000000
0
VERTEX
8
0
10
65.000000
20
0.000000
30
0.000000
0
VERTEX
8
0
10
64.999521
20
0.008310
30
0.000000
0
VERTEX
8
0
10
64.998165
20
0.033124
30
0.000000
0
VERTEX
8
0
10
64.996056
20
0.074264
30
0.000000
0
VERTEX
8
0
10
64.993318
20
0.131554
30
0.000000
0
VERTEX
8
0
10
64.990074
20
0.204818
30
0.000000
0
VERTEX
8
0
10
64.986448
20
0.293880
30
0.000000
0
VERTEX
8
0
10
64.982563
20
0.398563
30
0.000000
0
VERTEX
8
0
10
64.978543
20
0.518692
30
0.000000
0
VERTEX
8
0
10
64.974512
20
0.654088
30
0.000000
0
VERTEX
8
0
10
64.967408
20
0.945828
30
0.000000
0
VERTEX
8
0
10
64.961487
20
1.288611
30
0.000000
0
VERTEX
8
0
10
64.957542
20
1.681306
30
0.000000
0
VERTEX
8
0
10
64.956367
20
2.122778
30
0.000000
0
VERTEX
8
0
10
64.958758
20
2.611893
30
0.000000
0
VERTEX
8
0
10
64.965508
20
3.147518
30
0.000000
0
VERTEX
8
0
10
64.977412
20
3.728520
30
0.000000
0
VERTEX
8
0
10
64.995265
20
4.353765
30
0.000000
0
VERTEX
8
0
10
65.019860
20
5.022118
30
0.000000
0
VERTEX
8
0
10
65.046988
20
5.630063
30
0.000000
0
VERTEX
8
0
10
65.080187
20
6.268289
30
0.000000
0
VERTEX
8
0
10
65.119961
20
6.936076
30
0.000000
0
VERTEX
8
0
10
65.166813
20
7.632704
30
0.000000
0
VERTEX
8
0
10
65.221248
20
8.357455
30
0.000000
0
VERTEX
8
0
10
65.283771
20
9.109608
30
0.000000
0
VERTEX
8
0
10
65.354885
20
9.888444
30
0.000000
0
VERTEX
8
0
10
65.435094
20
10.693244
30
0.000000
0
VERTEX
8
0
10
65.524903
20
11.523288
30
0.000000
0
VERTEX
8
0
10
65.610136
20
12.256228
30
0.000000
0
VERTEX
8
0
10
65.703152
20
13.006824
30
0.000000
0
VERTEX
8
0
10
65.804269
20
13.774618
30
0.000000
0
VERTEX
8
0
10
65.913808
20
14.559155
30
0.000000
0
VERTEX
8
0
10
66.032089
20
15.359977
30
0.000000
0
VERTEX
8
0
10
66.159431
20
16.176629
30
0.000000
0
VERTEX
8
0
10
66.296156
20
17.008652
30
0.000000
0
VERTEX
8
0
10
66.442583
20
17.855592
30
0.000000
0
VERTEX
8
0
10
66.765821
20
19.592392
30
0.000000
0
VERTEX
8
0
10
67.071622
20
21.100110
30
0.000000
0
VERTEX
8
0
10
67.409322
20
22.644208
30
0.000000
0
VERTEX
8
0
10
67.780458
20
24.222491
30
0.000000
0
VERTEX
8
0
10
68.186568
20
25.832766
30
0.000000
0
VERTEX
8
0
10
68.629190
20
27.472837
30
0.000000
0
VERTEX
8
0
10
69.109861
20
29.140510
30
0.000000
0
VERTEX
8
0
10
69.630120
20
30.833592
30
0.000000
0
VERTEX
8
0
10
70.191503
20
32.549888
30
0.000000
0
VERTEX
8
0
10
70.795548
20
34.287203
30
0.000000
0
VERTEX
8
0
10
71.256918
20
35.547654
30
0.000000
0
VERTEX
8
0
10
71.741693
20
36.817015
30
0.000000
0
VERTEX
8
0
10
72.250443
20
38.094471
30
0.000000
0
VERTEX
8
0
10
72.783740
20
39.379208
30
0.000000
0
VERTEX
8
0
10
73.342154
20
40.670412
30
0.000000
0
VERTEX
8
0
10
73.926257
20
41.967267
30
0.000000
0
VERTEX
8
0
10
74.536619
20
43.268959
30
0.000000
0
VERTEX
8
0
10
75.173812
20
44.574672
30
0.000000
0
VERTEX
8
0
10
75.838406
20
45.883593
30
0.000000
0
VERTEX
8
0
10
76.842912
20
47.769150
30
0.000000
0
VERTEX
8
0
10
77.367371
20
48.713026
30
0.000000
0
VERTEX
8
0
10
77.906916
20
49.657230
30
0.000000
0
VERTEX
8
0
10
78.461760
20
50.601460
30
0.000000
0
VERTEX
8
0
10
79.032114
20
51.545413
30
0.000000
0
VERTEX
8
0
10
79.618190
20
52.488787
30
0.000000
0
VERTEX
8
0
10
80.220202
20
53.431279
30
0.000000
0
VERTEX
8
0
10
80.838359
20
54.372588
30
0.000000
0
VERTEX
8
0
10
81.472875
20
55.312409
30
0.000000
0
VERTEX
8
0
10
82.372435
20
56.601679
30
0.000000
0
VERTEX
8
0
10
83.303874
20
57.886781
30
0.000000
0
VERTEX
8
0
10
84.267743
20
59.166926
30
0.000000
0
VERTEX
8
0
10
85.264595
20
60.441329
30
0.000000
0
VERTEX
8
0
10
86.294979
20
61.709204
30
0.000000
0
VERTEX
8
0
10
87.359448
20
62.969763
30
0.000000
0
VERTEX
8
0
10
88.458552
20
64.222220
30
0.000000
0
VERTEX
8
0
10
89.592842
20
65.465790
30
0.000000
0
VERTEX
8
0
10
90.762869
20
66.699685
30
0.000000
0
VERTEX
8
0
10
91.816392
20
67.770788
30
0.000000
0
VERTEX
8
0
10
92.898068
20
68.833356
30
0.000000
0
VERTEX
8
0
10
94.008265
20
69.886861
30
0.000000
0
VERTEX
8
0
10
95.147353
20
70.930775
30
0.000000
0
VERTEX
8
0
10
96.315702
20
71.964574
30
0.000000
0
VERTEX
8
0
10
97.513680
20
72.987728
30
0.000000
0
VERTEX
8
0
10
98.741656
20
73.999713
30
0.000000
0
VERTEX
8
0
10
100.000000
20
75.000000
30
0.000000
0
VERTEX
8
0
10
100.000000
20
95.000000
30
0.000000
0
VERTEX
8
0
10
85.000000
20
85.000000
30
0.000000
0
VERTEX
8
0
10
84.400250
20
84.605145
30
0.000000
0
VERTEX
8
0
10
83.814962
20
84.247925
30
0.000000
0
VERTEX
8
0
10
83.244004
20
83.927402
30
0.000000
0
VERTEX
8
0
10
82.687243
20
83.642637
30
0.000000
0
VERTEX
8
0
10
82.144545
20
83.392691
30
0.000000
0
VERTEX
8
0
10
81.615778
20
83.176627
30
0.000000
0
VERTEX
8
0
10
81.100808
20
82.993504
30
0.000000
0
VERTEX
8
0
10
80.599503
20
82.842385
30
0.000000
0
VERTEX
8
0
10
80.043143
20
82.707662
30
0.000000
0
VERTEX
8
0
10
79.504258
20
82.612113
30
0.000000
0
VERTEX
8
0
10
78.982649
20
82.554337
30
0.000000
0
VERTEX
8
0
10
78.478118
20
82.532933
30
0.000000
0
VERTEX
8
0
10
77.990466
20
82.546499
30
0.000000
0
VERTEX
8
0
10
77.519493
20
82.593635
30
0.000000
0
VERTEX
8
0
10
77.065002
20
82.672940
30
0.000000
0
VERTEX
8
0
10
76.626794
20
82.783012
30
0.000000
0
VERTEX
8
0
10
76.204670
20
82.922451
30
0.000000
0
VERTEX
8
0
10
75.878417
20
83.054205
30
0.000000
0
VERTEX
8
0
10
75.562230
20
83.203139
30
0.000000
0
VERTEX
8
0
10
75.256006
20
83.368537
30
0.000000
0
VERTEX
8
0
10
74.959643
20
83.549681
30
0.000000
0
VERTEX
8
0
10
74.673041
20
83.745853
30
0.000000
0
VERTEX
8
0
10
74.396096
20
83.956337
30
0.000000
0
VERTEX
8
0
10
73.870775
20
84.417369
30
0.000000
0
VERTEX
8
0
10
73.382865
20
84.927039
30
0.000000
0
VERTEX
8
0
10
72.931553
20
85.479608
30
0.000000
0
VERTEX
8
0
10
72.638751
20
85.886263
30
0.000000
0
VERTEX
8
0
10
72.362993
20
86.308970
30
0.000000
0
VERTEX
8
0
10
72.104004
20
86.745796
30
0.000000
0
VERTEX
8
0
10
71.861510
20
87.194810
30
0.000000
0
VERTEX
8
0
10
71.635238
20
87.654079
30
0.000000
0
VERTEX
8
0
10
71.424913
20
88.121671
30
0.000000
0
VERTEX
8
0
10
71.230262
20
88.595655
30
0.000000
0
VERTEX
8
0
10
71.051010
20
89.074099
30
0.000000
0
VERTEX
8
0
10
70.886885
20
89.555071
30
0.000000
0
VERTEX
8
0
10
70.683183
20
90.224821
30
0.000000
0
VERTEX
8
0
10
70.507492
20
90.890522
30
0.000000
0
VERTEX
8
0
10
70.359075
20
91.546971
30
0.000000
0
VERTEX
8
0
10
70.237193
20
92.188965
30
0.000000
0
VERTEX
8
0
10
70.141109
20
92.811300
30
0.000000
0
VERTEX
8
0
10
70.070086
20
93.408774
30
0.000000
0
VERTEX
8
0
10
70.023385
20
93.976184
30
0.000000
0
VERTEX
8
0
10
70.000269
20
94.508327
30
0.000000
0
VERTEX
8
0
10
70.000000
20
95.000000
30
0.000000
0
VERTEX
8
0
10
70.000000
20
125.001000
30
0.000000
42
0.414096
0
VERTEX
8
0
10
65.001000
20
130.000000
30
0.000000
0
VERTEX
8
0
10
34.999000
20
130.000000
30
0.000000
42
0.414096
0
VERTEX
8
0
10
30.000000
20
125.001000
30
0.000000
0
VERTEX
8
0
10
30.000000
20
95.000000
30
0.000000
0
VERTEX
8
0
10
29.999731
20
94.508327
30
0.000000
0
VERTEX
8
0
10
29.976615
20
93.976184
30
0.000000
0
VERTEX
8
0
10
29.929914
20
93.408774
30
0.000000
0
VERTEX
8
0
10
29.858891
20
92.811300
30
0.000000
0
VERTEX
8
0
10
29.762807
20
92.188965
30
0.000000
0
VERTEX
8
0
10
29.640925
20
91.546971
30
0.000000
0
VERTEX
8
0
10
29.492508
20
90.890522
30
0.000000
0
VERTEX
8
0
10
29.316817
20
90.224821
30
0.000000
0
VERTEX
8
0
10
29.113115
20
89.555071
30
0.000000
0
VERTEX
8
0
10
28.948990
20
89.074099
30
0.000000
0
VERTEX
8
0
10
28.769738
20
88.595655
30
0.000000
0
VERTEX
8
0
10
28.575087
20
88.121671
30
0.000000
0
VERTEX
8
0
10
28.364762
20
87.654079
30
0.000000
0
VERTEX
8
0
10
28.138490
20
87.194810
30
0.000000
0
VERTEX
8
0
10
27.895996
20
86.745796
30
0.000000
0
VERTEX
8
0
10
27.637007
20
86.308970
30
0.000000
0
VERTEX
8
0
10
27.361249
20
85.886263
30
0.000000
0
VERTEX
8
0
10
27.068447
20
85.479608
30
0.000000
0
VERTEX
8
0
10
26.617135
20
84.927039
30
0.000000
0
VERTEX
8
0
10
26.129225
20
84.417369
30
0.000000
0
VERTEX
8
0
10
25.603904
20
83.956337
30
0.000000
0
VERTEX
8
0
10
25.326959
20
83.745853
30
0.000000
0
VERTEX
8
0
10
25.040357
20
83.549681
30
0.000000
0
VERTEX
8
0
10
24.743994
20
83.368537
30
0.000000
0
VERTEX
8
0
10
24.437770
20
83.203139
30
0.000000
0
VERTEX
8
0
10
24.121583
20
83.054205
30
0.000000
0
VERTEX
8
0
10
23.795330
20
82.922451
30
0.000000
0
VERTEX
8
0
10
23.373206
20
82.783012
30
0.000000
0
VERTEX
8
0
10
22.934998
20
82.672940
30
0.000000
0
VERTEX
8
0
10
22.480507
20
82.593635
30
0.000000
0
VERTEX
8
0
10
22.009534
20
82.546499
30
0.000000
0
VERTEX
8
0
10
21.521882
20
82.532933
30
0.000000
0
VERTEX
8
0
10
21.017351
20
82.554337
30
0.000000
0
VERTEX
8
0
10
20.495742
20
82.612113
30
0.000000
0
VERTEX
8
0
10
19.956857
20
82.707662
30
0.000000
0
VERTEX
8
0
10
19.400497
20
82.842385
30
0.000000
0
VERTEX
8
0
10
18.899192
20
82.993504
30
0.000000
0
VERTEX
8
0
10
18.384222
20
83.176627
30
0.000000
0
VERTEX
8
0
10
17.855455
20
83.392691
30
0.000000
0
VERTEX
8
0
10
17.312757
20
83.642637
30
0.000000
0
VERTEX
8
0
10
16.755996
20
83.927402
30
0.000000
0
VERTEX
8
0
10
16.185038
20
84.247925
30
0.000000
0
VERTEX
8
0
10
15.599750
20
84.605145
30
0.000000
0
VERTEX
8
0
10
15.000000
20
85.000000
30
0.000000
0
VERTEX
8
0
10
0.000000
20
95.000000
30
0.000000
0
VERTEX
8
0
10
0.000000
20
75.000000
30
0.000000
0
SEQEND
8
0
0
CIRCLE
8
0
6
Continuous
10
94.000000
20
85.000000
40
1.550000
0
CIRCLE
8
0
6
Continuous
10
6.000000
20
85.000000
40
1.550000
0
CIRCLE
8
0
6
Continuous
10
35.000000
20
116.000000
40
1.550000
0
CIRCLE
8
0
6
Continuous
10
65.000000
20
116.000000
40
1.550000
0
ENDSEC
0
EOF
