solid ascii
  facet normal -8.643331e-02 -9.962576e-01 0.000000e+00
    outer loop
      vertex   -1.429330e+01 8.060600e+00 0.000000e+00
      vertex   -6.562600e+00 7.389900e+00 0.000000e+00
      vertex   -1.429330e+01 8.060600e+00 4.000000e+00
    endloop
  endfacet
  facet normal -8.643331e-02 -9.962576e-01 0.000000e+00
    outer loop
      vertex   -1.429330e+01 8.060600e+00 4.000000e+00
      vertex   -6.562600e+00 7.389900e+00 0.000000e+00
      vertex   -6.562600e+00 7.389900e+00 4.000000e+00
    endloop
  endfacet
  facet normal -1.000000e+00 0.000000e+00 0.000000e+00
    outer loop
      vertex   -1.429330e+01 2.433390e+01 0.000000e+00
      vertex   -1.429330e+01 8.060600e+00 0.000000e+00
      vertex   -1.429330e+01 2.433390e+01 4.000000e+00
    endloop
  endfacet
  facet normal -1.000000e+00 -0.000000e+00 0.000000e+00
    outer loop
      vertex   -1.429330e+01 2.433390e+01 4.000000e+00
      vertex   -1.429330e+01 8.060600e+00 0.000000e+00
      vertex   -1.429330e+01 8.060600e+00 4.000000e+00
    endloop
  endfacet
  facet normal 0.000000e+00 -1.000000e+00 0.000000e+00
    outer loop
      vertex   -2.414200e+01 2.433390e+01 0.000000e+00
      vertex   -1.429330e+01 2.433390e+01 0.000000e+00
      vertex   -2.414200e+01 2.433390e+01 4.000000e+00
    endloop
  endfacet
  facet normal 0.000000e+00 -1.000000e+00 0.000000e+00
    outer loop
      vertex   -2.414200e+01 2.433390e+01 4.000000e+00
      vertex   -1.429330e+01 2.433390e+01 0.000000e+00
      vertex   -1.429330e+01 2.433390e+01 4.000000e+00
    endloop
  endfacet
  facet normal 1.000000e+00 0.000000e+00 -0.000000e+00
    outer loop
      vertex   -2.414200e+01 7.954700e+00 0.000000e+00
      vertex   -2.414200e+01 2.433390e+01 0.000000e+00
      vertex   -2.414200e+01 7.954700e+00 4.000000e+00
    endloop
  endfacet
  facet normal 1.000000e+00 -0.000000e+00 0.000000e+00
    outer loop
      vertex   -2.414200e+01 7.954700e+00 4.000000e+00
      vertex   -2.414200e+01 2.433390e+01 0.000000e+00
      vertex   -2.414200e+01 2.433390e+01 4.000000e+00
    endloop
  endfacet
  facet normal 1.004074e-01 -9.949464e-01 0.000000e+00
    outer loop
      vertex   -3.183740e+01 7.178100e+00 0.000000e+00
      vertex   -2.414200e+01 7.954700e+00 0.000000e+00
      vertex   -3.183740e+01 7.178100e+00 4.000000e+00
    endloop
  endfacet
  facet normal 1.004074e-01 -9.949464e-01 0.000000e+00
    outer loop
      vertex   -3.183740e+01 7.178100e+00 4.000000e+00
      vertex   -2.414200e+01 7.954700e+00 0.000000e+00
      vertex   -2.414200e+01 7.954700e+00 4.000000e+00
    endloop
  endfacet
  facet normal -1.000000e+00 0.000000e+00 0.000000e+00
    outer loop
      vertex   -3.183740e+01 5.818660e+01 0.000000e+00
      vertex   -3.183740e+01 7.178100e+00 0.000000e+00
      vertex   -3.183740e+01 5.818660e+01 4.000000e+00
    endloop
  endfacet
  facet normal -1.000000e+00 -0.000000e+00 0.000000e+00
    outer loop
      vertex   -3.183740e+01 5.818660e+01 4.000000e+00
      vertex   -3.183740e+01 7.178100e+00 0.000000e+00
      vertex   -3.183740e+01 7.178100e+00 4.000000e+00
    endloop
  endfacet
  facet normal 3.162278e-01 9.486833e-01 -0.000000e+00
    outer loop
      vertex   -3.183740e+01 5.818660e+01 0.000000e+00
      vertex   -3.183740e+01 5.818660e+01 4.000000e+00
      vertex   -3.173150e+01 5.815130e+01 0.000000e+00
    endloop
  endfacet
  facet normal 3.162278e-01 9.486833e-01 0.000000e+00
    outer loop
      vertex   -3.173150e+01 5.815130e+01 0.000000e+00
      vertex   -3.183740e+01 5.818660e+01 4.000000e+00
      vertex   -3.173150e+01 5.815130e+01 4.000000e+00
    endloop
  endfacet
  facet normal 3.417431e-01 9.397934e-01 0.000000e+00
    outer loop
      vertex   -3.134320e+01 5.801010e+01 0.000000e+00
      vertex   -3.173150e+01 5.815130e+01 0.000000e+00
      vertex   -3.134320e+01 5.801010e+01 4.000000e+00
    endloop
  endfacet
  facet normal 3.417431e-01 9.397934e-01 -0.000000e+00
    outer loop
      vertex   -3.134320e+01 5.801010e+01 4.000000e+00
      vertex   -3.173150e+01 5.815130e+01 0.000000e+00
      vertex   -3.173150e+01 5.815130e+01 4.000000e+00
    endloop
  endfacet
  facet normal 1.000000e+00 0.000000e+00 -0.000000e+00
    outer loop
      vertex   -3.134320e+01 5.801010e+01 0.000000e+00
      vertex   -3.134320e+01 5.801010e+01 4.000000e+00
      vertex   -3.134320e+01 5.797480e+01 0.000000e+00
    endloop
  endfacet
  facet normal 1.000000e+00 0.000000e+00 -0.000000e+00
    outer loop
      vertex   -3.134320e+01 5.797480e+01 0.000000e+00
      vertex   -3.134320e+01 5.801010e+01 4.000000e+00
      vertex   -3.134320e+01 5.797480e+01 4.000000e+00
    endloop
  endfacet
  facet normal 7.053673e-01 7.088420e-01 0.000000e+00
    outer loop
      vertex   -2.414200e+01 5.080890e+01 0.000000e+00
      vertex   -3.134320e+01 5.797480e+01 0.000000e+00
      vertex   -2.414200e+01 5.080890e+01 4.000000e+00
    endloop
  endfacet
  facet normal 7.053673e-01 7.088420e-01 -0.000000e+00
    outer loop
      vertex   -2.414200e+01 5.080890e+01 4.000000e+00
      vertex   -3.134320e+01 5.797480e+01 0.000000e+00
      vertex   -3.134320e+01 5.797480e+01 4.000000e+00
    endloop
  endfacet
  facet normal 1.000000e+00 0.000000e+00 -0.000000e+00
    outer loop
      vertex   -2.414200e+01 3.171160e+01 0.000000e+00
      vertex   -2.414200e+01 5.080890e+01 0.000000e+00
      vertex   -2.414200e+01 3.171160e+01 4.000000e+00
    endloop
  endfacet
  facet normal 1.000000e+00 -0.000000e+00 0.000000e+00
    outer loop
      vertex   -2.414200e+01 3.171160e+01 4.000000e+00
      vertex   -2.414200e+01 5.080890e+01 0.000000e+00
      vertex   -2.414200e+01 5.080890e+01 4.000000e+00
    endloop
  endfacet
  facet normal 0.000000e+00 1.000000e+00 -0.000000e+00
    outer loop
      vertex   -1.429330e+01 3.171160e+01 0.000000e+00
      vertex   -2.414200e+01 3.171160e+01 0.000000e+00
      vertex   -1.429330e+01 3.171160e+01 4.000000e+00
    endloop
  endfacet
  facet normal 0.000000e+00 1.000000e+00 -0.000000e+00
    outer loop
      vertex   -1.429330e+01 3.171160e+01 4.000000e+00
      vertex   -2.414200e+01 3.171160e+01 0.000000e+00
      vertex   -2.414200e+01 3.171160e+01 4.000000e+00
    endloop
  endfacet
  facet normal -1.000000e+00 0.000000e+00 0.000000e+00
    outer loop
      vertex   -1.429330e+01 5.080890e+01 0.000000e+00
      vertex   -1.429330e+01 3.171160e+01 0.000000e+00
      vertex   -1.429330e+01 5.080890e+01 4.000000e+00
    endloop
  endfacet
  facet normal -1.000000e+00 -0.000000e+00 0.000000e+00
    outer loop
      vertex   -1.429330e+01 5.080890e+01 4.000000e+00
      vertex   -1.429330e+01 3.171160e+01 0.000000e+00
      vertex   -1.429330e+01 3.171160e+01 4.000000e+00
    endloop
  endfacet
  facet normal -7.195874e-01 6.944019e-01 0.000000e+00
    outer loop
      vertex   -7.480400e+00 5.786890e+01 0.000000e+00
      vertex   -1.429330e+01 5.080890e+01 0.000000e+00
      vertex   -7.480400e+00 5.786890e+01 4.000000e+00
    endloop
  endfacet
  facet normal -7.195874e-01 6.944019e-01 0.000000e+00
    outer loop
      vertex   -7.480400e+00 5.786890e+01 4.000000e+00
      vertex   -1.429330e+01 5.080890e+01 0.000000e+00
      vertex   -1.429330e+01 5.080890e+01 4.000000e+00
    endloop
  endfacet
  facet normal -3.713907e-01 9.284767e-01 0.000000e+00
    outer loop
      vertex   -6.597900e+00 5.822190e+01 0.000000e+00
      vertex   -7.480400e+00 5.786890e+01 0.000000e+00
      vertex   -6.597900e+00 5.822190e+01 4.000000e+00
    endloop
  endfacet
  facet normal -3.713907e-01 9.284767e-01 0.000000e+00
    outer loop
      vertex   -6.597900e+00 5.822190e+01 4.000000e+00
      vertex   -7.480400e+00 5.786890e+01 0.000000e+00
      vertex   -7.480400e+00 5.786890e+01 4.000000e+00
    endloop
  endfacet
  facet normal -0.000000e+00 1.000000e+00 0.000000e+00
    outer loop
      vertex   -6.597900e+00 5.822190e+01 0.000000e+00
      vertex   -6.597900e+00 5.822190e+01 4.000000e+00
      vertex   -6.562600e+00 5.822190e+01 0.000000e+00
    endloop
  endfacet
  facet normal 0.000000e+00 1.000000e+00 -0.000000e+00
    outer loop
      vertex   -6.562600e+00 5.822190e+01 0.000000e+00
      vertex   -6.597900e+00 5.822190e+01 4.000000e+00
      vertex   -6.562600e+00 5.822190e+01 4.000000e+00
    endloop
  endfacet
  facet normal 1.000000e+00 0.000000e+00 -0.000000e+00
    outer loop
      vertex   -6.562600e+00 7.389900e+00 0.000000e+00
      vertex   -6.562600e+00 5.822190e+01 0.000000e+00
      vertex   -6.562600e+00 7.389900e+00 4.000000e+00
    endloop
  endfacet
  facet normal 1.000000e+00 -0.000000e+00 0.000000e+00
    outer loop
      vertex   -6.562600e+00 7.389900e+00 4.000000e+00
      vertex   -6.562600e+00 5.822190e+01 0.000000e+00
      vertex   -6.562600e+00 5.822190e+01 4.000000e+00
    endloop
  endfacet
  facet normal 0.000000e+00 0.000000e+00 1.000000e+00
    outer loop
      vertex   -6.562600e+00 5.822190e+01 4.000000e+00
      vertex   -1.429330e+01 3.171160e+01 4.000000e+00
      vertex   -6.562600e+00 7.389900e+00 4.000000e+00
    endloop
  endfacet
  facet normal 0.000000e+00 0.000000e+00 1.000000e+00
    outer loop
      vertex   -6.562600e+00 5.822190e+01 4.000000e+00
      vertex   -7.480400e+00 5.786890e+01 4.000000e+00
      vertex   -1.429330e+01 3.171160e+01 4.000000e+00
    endloop
  endfacet
  facet normal 0.000000e+00 0.000000e+00 1.000000e+00
    outer loop
      vertex   -6.562600e+00 5.822190e+01 4.000000e+00
      vertex   -6.597900e+00 5.822190e+01 4.000000e+00
      vertex   -7.480400e+00 5.786890e+01 4.000000e+00
    endloop
  endfacet
  facet normal 0.000000e+00 0.000000e+00 1.000000e+00
    outer loop
      vertex   -7.480400e+00 5.786890e+01 4.000000e+00
      vertex   -1.429330e+01 5.080890e+01 4.000000e+00
      vertex   -1.429330e+01 3.171160e+01 4.000000e+00
    endloop
  endfacet
  facet normal 0.000000e+00 0.000000e+00 1.000000e+00
    outer loop
      vertex   -6.562600e+00 7.389900e+00 4.000000e+00
      vertex   -1.429330e+01 3.171160e+01 4.000000e+00
      vertex   -1.429330e+01 2.433390e+01 4.000000e+00
    endloop
  endfacet
  facet normal -0.000000e+00 -0.000000e+00 1.000000e+00
    outer loop
      vertex   -1.429330e+01 8.060600e+00 4.000000e+00
      vertex   -6.562600e+00 7.389900e+00 4.000000e+00
      vertex   -1.429330e+01 2.433390e+01 4.000000e+00
    endloop
  endfacet
  facet normal 0.000000e+00 0.000000e+00 1.000000e+00
    outer loop
      vertex   -2.414200e+01 5.080890e+01 4.000000e+00
      vertex   -3.134320e+01 5.797480e+01 4.000000e+00
      vertex   -2.414200e+01 3.171160e+01 4.000000e+00
    endloop
  endfacet
  facet normal 0.000000e+00 0.000000e+00 1.000000e+00
    outer loop
      vertex   -2.414200e+01 3.171160e+01 4.000000e+00
      vertex   -3.134320e+01 5.797480e+01 4.000000e+00
      vertex   -3.183740e+01 5.818660e+01 4.000000e+00
    endloop
  endfacet
  facet normal 0.000000e+00 -0.000000e+00 1.000000e+00
    outer loop
      vertex   -3.183740e+01 7.178100e+00 4.000000e+00
      vertex   -2.414200e+01 3.171160e+01 4.000000e+00
      vertex   -3.183740e+01 5.818660e+01 4.000000e+00
    endloop
  endfacet
  facet normal 0.000000e+00 0.000000e+00 1.000000e+00
    outer loop
      vertex   -3.183740e+01 7.178100e+00 4.000000e+00
      vertex   -2.414200e+01 2.433390e+01 4.000000e+00
      vertex   -2.414200e+01 3.171160e+01 4.000000e+00
    endloop
  endfacet
  facet normal 0.000000e+00 0.000000e+00 1.000000e+00
    outer loop
      vertex   -3.183740e+01 7.178100e+00 4.000000e+00
      vertex   -2.414200e+01 7.954700e+00 4.000000e+00
      vertex   -2.414200e+01 2.433390e+01 4.000000e+00
    endloop
  endfacet
  facet normal 0.000000e+00 0.000000e+00 1.000000e+00
    outer loop
      vertex   -3.134320e+01 5.801010e+01 4.000000e+00
      vertex   -3.173150e+01 5.815130e+01 4.000000e+00
      vertex   -3.134320e+01 5.797480e+01 4.000000e+00
    endloop
  endfacet
  facet normal 0.000000e+00 0.000000e+00 1.000000e+00
    outer loop
      vertex   -3.134320e+01 5.797480e+01 4.000000e+00
      vertex   -3.173150e+01 5.815130e+01 4.000000e+00
      vertex   -3.183740e+01 5.818660e+01 4.000000e+00
    endloop
  endfacet
  facet normal 0.000000e+00 -0.000000e+00 1.000000e+00
    outer loop
      vertex   -2.414200e+01 2.433390e+01 4.000000e+00
      vertex   -1.429330e+01 2.433390e+01 4.000000e+00
      vertex   -2.414200e+01 3.171160e+01 4.000000e+00
    endloop
  endfacet
  facet normal -0.000000e+00 0.000000e+00 1.000000e+00
    outer loop
      vertex   -2.414200e+01 3.171160e+01 4.000000e+00
      vertex   -1.429330e+01 2.433390e+01 4.000000e+00
      vertex   -1.429330e+01 3.171160e+01 4.000000e+00
    endloop
  endfacet
  facet normal 0.000000e+00 0.000000e+00 -1.000000e+00
    outer loop
      vertex   -6.562600e+00 7.389900e+00 0.000000e+00
      vertex   -1.429330e+01 3.171160e+01 0.000000e+00
      vertex   -6.562600e+00 5.822190e+01 0.000000e+00
    endloop
  endfacet
  facet normal 0.000000e+00 0.000000e+00 -1.000000e+00
    outer loop
      vertex   -6.562600e+00 7.389900e+00 0.000000e+00
      vertex   -1.429330e+01 2.433390e+01 0.000000e+00
      vertex   -1.429330e+01 3.171160e+01 0.000000e+00
    endloop
  endfacet
  facet normal 0.000000e+00 0.000000e+00 -1.000000e+00
    outer loop
      vertex   -6.562600e+00 7.389900e+00 0.000000e+00
      vertex   -1.429330e+01 8.060600e+00 0.000000e+00
      vertex   -1.429330e+01 2.433390e+01 0.000000e+00
    endloop
  endfacet
  facet normal 0.000000e+00 0.000000e+00 -1.000000e+00
    outer loop
      vertex   -1.429330e+01 2.433390e+01 0.000000e+00
      vertex   -2.414200e+01 2.433390e+01 0.000000e+00
      vertex   -1.429330e+01 3.171160e+01 0.000000e+00
    endloop
  endfacet
  facet normal -0.000000e+00 0.000000e+00 -1.000000e+00
    outer loop
      vertex   -1.429330e+01 3.171160e+01 0.000000e+00
      vertex   -2.414200e+01 2.433390e+01 0.000000e+00
      vertex   -2.414200e+01 3.171160e+01 0.000000e+00
    endloop
  endfacet
  facet normal 0.000000e+00 -0.000000e+00 -1.000000e+00
    outer loop
      vertex   -2.414200e+01 3.171160e+01 0.000000e+00
      vertex   -2.414200e+01 2.433390e+01 0.000000e+00
      vertex   -3.183740e+01 7.178100e+00 0.000000e+00
    endloop
  endfacet
  facet normal 0.000000e+00 -0.000000e+00 -1.000000e+00
    outer loop
      vertex   -3.183740e+01 5.818660e+01 0.000000e+00
      vertex   -2.414200e+01 3.171160e+01 0.000000e+00
      vertex   -3.183740e+01 7.178100e+00 0.000000e+00
    endloop
  endfacet
  facet normal 0.000000e+00 0.000000e+00 -1.000000e+00
    outer loop
      vertex   -3.183740e+01 5.818660e+01 0.000000e+00
      vertex   -3.134320e+01 5.797480e+01 0.000000e+00
      vertex   -2.414200e+01 3.171160e+01 0.000000e+00
    endloop
  endfacet
  facet normal 0.000000e+00 0.000000e+00 -1.000000e+00
    outer loop
      vertex   -3.183740e+01 5.818660e+01 0.000000e+00
      vertex   -3.173150e+01 5.815130e+01 0.000000e+00
      vertex   -3.134320e+01 5.797480e+01 0.000000e+00
    endloop
  endfacet
  facet normal 0.000000e+00 0.000000e+00 -1.000000e+00
    outer loop
      vertex   -3.134320e+01 5.797480e+01 0.000000e+00
      vertex   -3.173150e+01 5.815130e+01 0.000000e+00
      vertex   -3.134320e+01 5.801010e+01 0.000000e+00
    endloop
  endfacet
  facet normal 0.000000e+00 -0.000000e+00 -1.000000e+00
    outer loop
      vertex   -2.414200e+01 2.433390e+01 0.000000e+00
      vertex   -2.414200e+01 7.954700e+00 0.000000e+00
      vertex   -3.183740e+01 7.178100e+00 0.000000e+00
    endloop
  endfacet
  facet normal 0.000000e+00 0.000000e+00 -1.000000e+00
    outer loop
      vertex   -3.134320e+01 5.797480e+01 0.000000e+00
      vertex   -2.414200e+01 5.080890e+01 0.000000e+00
      vertex   -2.414200e+01 3.171160e+01 0.000000e+00
    endloop
  endfacet
  facet normal 0.000000e+00 -0.000000e+00 -1.000000e+00
    outer loop
      vertex   -1.429330e+01 5.080890e+01 0.000000e+00
      vertex   -7.480400e+00 5.786890e+01 0.000000e+00
      vertex   -1.429330e+01 3.171160e+01 0.000000e+00
    endloop
  endfacet
  facet normal 0.000000e+00 0.000000e+00 -1.000000e+00
    outer loop
      vertex   -1.429330e+01 3.171160e+01 0.000000e+00
      vertex   -7.480400e+00 5.786890e+01 0.000000e+00
      vertex   -6.562600e+00 5.822190e+01 0.000000e+00
    endloop
  endfacet
  facet normal -0.000000e+00 0.000000e+00 -1.000000e+00
    outer loop
      vertex   -6.562600e+00 5.822190e+01 0.000000e+00
      vertex   -7.480400e+00 5.786890e+01 0.000000e+00
      vertex   -6.597900e+00 5.822190e+01 0.000000e+00
    endloop
  endfacet
endsolid
