%FSLAX25Y25*%
%MOIN*%
G70*
G01*
G75*
G04 Layer_Physical_Order=1*
G04 Layer_Color=255*
%ADD10C,0.00787*%
%ADD11R,0.03150X0.03937*%
%ADD12R,0.11811X0.03937*%
%ADD13R,0.13780X0.09646*%
%ADD14R,0.09488X0.26378*%
G04:AMPARAMS|DCode=15|XSize=196.85mil|YSize=118.11mil|CornerRadius=0mil|HoleSize=0mil|Usage=FLASHONLY|Rotation=22.500|XOffset=0mil|YOffset=0mil|HoleType=Round|Shape=Rectangle|*
%AMROTATEDRECTD15*
4,1,4,-0.06833,-0.09222,-0.11353,0.01689,0.06833,0.09222,0.11353,-0.01689,-0.06833,-0.09222,0.0*
%
%ADD15ROTATEDRECTD15*%

G04:AMPARAMS|DCode=16|XSize=196.85mil|YSize=118.11mil|CornerRadius=0mil|HoleSize=0mil|Usage=FLASHONLY|Rotation=337.500|XOffset=0mil|YOffset=0mil|HoleType=Round|Shape=Rectangle|*
%AMROTATEDRECTD16*
4,1,4,-0.11353,-0.01689,-0.06833,0.09222,0.11353,0.01689,0.06833,-0.09222,-0.11353,-0.01689,0.0*
%
%ADD16ROTATEDRECTD16*%

G04:AMPARAMS|DCode=17|XSize=196.85mil|YSize=118.11mil|CornerRadius=0mil|HoleSize=0mil|Usage=FLASHONLY|Rotation=115.000|XOffset=0mil|YOffset=0mil|HoleType=Round|Shape=Rectangle|*
%AMROTATEDRECTD17*
4,1,4,0.09512,-0.06425,-0.01193,-0.11416,-0.09512,0.06425,0.01193,0.11416,0.09512,-0.06425,0.0*
%
%ADD17ROTATEDRECTD17*%

G04:AMPARAMS|DCode=18|XSize=196.85mil|YSize=118.11mil|CornerRadius=0mil|HoleSize=0mil|Usage=FLASHONLY|Rotation=65.000|XOffset=0mil|YOffset=0mil|HoleType=Round|Shape=Rectangle|*
%AMROTATEDRECTD18*
4,1,4,0.01193,-0.11416,-0.09512,-0.06425,-0.01193,0.11416,0.09512,0.06425,0.01193,-0.11416,0.0*
%
%ADD18ROTATEDRECTD18*%

%ADD19R,0.05118X0.05906*%
%ADD20R,0.03937X0.03150*%
%ADD21R,0.03898X0.01890*%
%ADD22R,0.04173X0.02559*%
%ADD23R,0.05512X0.04134*%
%ADD24R,0.06890X0.02559*%
%ADD25R,0.23622X0.15748*%
%ADD26R,0.02362X0.04331*%
%ADD27R,0.03150X0.03150*%
%ADD28R,0.03347X0.05118*%
%ADD29R,0.05906X0.05906*%
%ADD30O,0.07480X0.01181*%
%ADD31O,0.01181X0.07480*%
%ADD32R,0.01969X0.09843*%
%ADD33R,0.07874X0.09843*%
%ADD34R,0.05118X0.01575*%
%ADD35R,0.07874X0.07874*%
%ADD36R,0.03937X0.02165*%
%ADD37R,0.00984X0.02756*%
%ADD38R,0.02756X0.00984*%
%ADD39R,0.05000X0.05787*%
%ADD40R,0.13386X0.05315*%
%ADD41R,0.05906X0.01614*%
G04:AMPARAMS|DCode=42|XSize=118.11mil|YSize=59.06mil|CornerRadius=0mil|HoleSize=0mil|Usage=FLASHONLY|Rotation=225.000|XOffset=0mil|YOffset=0mil|HoleType=Round|Shape=Rectangle|*
%AMROTATEDRECTD42*
4,1,4,0.02088,0.06264,0.06264,0.02088,-0.02088,-0.06264,-0.06264,-0.02088,0.02088,0.06264,0.0*
%
%ADD42ROTATEDRECTD42*%

G04:AMPARAMS|DCode=43|XSize=118.11mil|YSize=59.06mil|CornerRadius=0mil|HoleSize=0mil|Usage=FLASHONLY|Rotation=135.000|XOffset=0mil|YOffset=0mil|HoleType=Round|Shape=Rectangle|*
%AMROTATEDRECTD43*
4,1,4,0.06264,-0.02088,0.02088,-0.06264,-0.06264,0.02088,-0.02088,0.06264,0.06264,-0.02088,0.0*
%
%ADD43ROTATEDRECTD43*%

G04:AMPARAMS|DCode=44|XSize=118.11mil|YSize=59.06mil|CornerRadius=0mil|HoleSize=0mil|Usage=FLASHONLY|Rotation=245.000|XOffset=0mil|YOffset=0mil|HoleType=Round|Shape=Rectangle|*
%AMROTATEDRECTD44*
4,1,4,-0.00180,0.06600,0.05172,0.04104,0.00180,-0.06600,-0.05172,-0.04104,-0.00180,0.06600,0.0*
%
%ADD44ROTATEDRECTD44*%

G04:AMPARAMS|DCode=45|XSize=118.11mil|YSize=59.06mil|CornerRadius=0mil|HoleSize=0mil|Usage=FLASHONLY|Rotation=295.000|XOffset=0mil|YOffset=0mil|HoleType=Round|Shape=Rectangle|*
%AMROTATEDRECTD45*
4,1,4,-0.05172,0.04104,0.00180,0.06600,0.05172,-0.04104,-0.00180,-0.06600,-0.05172,0.04104,0.0*
%
%ADD45ROTATEDRECTD45*%

%ADD46R,0.02559X0.04173*%
%ADD47C,0.01969*%
%ADD48C,0.03937*%
%ADD49C,0.07874*%
%ADD50C,0.05906*%
%ADD51R,0.06869X0.26570*%
%ADD52R,0.06892X0.11504*%
%ADD53R,0.37657X0.14030*%
%ADD54R,0.23424X0.11604*%
%ADD55R,0.15927X0.15830*%
%ADD56R,0.14344X0.15856*%
%ADD57C,0.00394*%
%ADD58C,0.00197*%
%ADD59C,0.05906*%
%ADD60R,0.05906X0.05906*%
%ADD61C,0.01969*%
D10*
X989258Y496121D02*
G03*
X987905Y496134I-1353J-72168D01*
G01*
X980615Y501650D02*
G03*
X945081Y488979I8546J-80127D01*
G01*
X994623Y494344D02*
G03*
X994233Y494358I-3208J-80130D01*
G01*
D02*
G03*
X924776Y458826I-2819J-80144D01*
G01*
X993527Y492508D02*
G03*
X926765Y457801I-1476J-78726D01*
G01*
X992148Y498021D02*
G03*
X946349Y485486I-3081J-78680D01*
G01*
X991512Y499934D02*
G03*
X945405Y487199I-3081J-78680D01*
G01*
X988806Y496134D02*
G03*
X988350Y496133I0J-75448D01*
G01*
D02*
G03*
X947541Y483850I455J-75447D01*
G01*
X1156209Y453920D02*
X1165007D01*
X1173235Y445691D01*
X1128387Y489562D02*
X1131530D01*
X1127271Y488446D02*
X1128387Y489562D01*
X1127271Y476756D02*
Y488446D01*
X1141725Y484453D02*
X1142640Y485368D01*
X1141725Y475167D02*
Y484453D01*
X1135618Y483060D02*
Y484431D01*
X1134777Y482219D02*
X1135618Y483060D01*
X1131661Y482219D02*
X1134777D01*
X1137025Y493402D02*
X1137597Y492830D01*
X1136990Y493402D02*
X1137025D01*
X1133987D02*
X1136990D01*
X1141062Y489330D01*
Y487211D02*
Y489330D01*
X1137458Y483607D02*
X1141062Y487211D01*
X1137458Y474055D02*
Y483607D01*
X1137197Y474055D02*
X1137458D01*
X1181758Y491927D02*
X1186801D01*
X867358Y472822D02*
X885362Y490827D01*
X880217Y483094D02*
X890215Y493092D01*
X880217Y467313D02*
Y483094D01*
X885442Y480498D02*
Y485189D01*
X1195005Y445713D02*
X1203404Y454111D01*
X1173256Y445713D02*
X1195005D01*
X1118093Y490682D02*
X1118181Y490770D01*
X1108395Y490682D02*
X1118093D01*
X1102417Y480130D02*
Y485007D01*
X1102170Y490410D02*
X1102185Y490394D01*
Y484198D02*
Y490394D01*
X1124008Y503381D02*
X1133987Y493402D01*
X1106808Y480540D02*
X1108126D01*
X1106808D02*
Y485530D01*
X1108126Y480540D02*
X1109692Y478973D01*
X1103643Y478904D02*
X1106428D01*
X1102417Y480130D02*
X1103643Y478904D01*
X1046826Y558228D02*
X1051659D01*
X1115345Y556689D02*
Y558885D01*
Y556689D02*
X1116832Y555201D01*
X1116871D01*
X1122815Y549257D01*
X1110020Y538350D02*
Y545166D01*
X1115728Y543978D02*
X1117084Y545334D01*
X1115728Y534467D02*
Y543978D01*
X1113516Y532254D02*
X1115728Y534467D01*
X1113516Y529228D02*
Y532254D01*
X1112146Y527858D02*
X1113516Y529228D01*
X1124806Y528902D02*
X1126744Y530840D01*
X1119862Y528902D02*
X1124806D01*
X1119665Y528705D02*
X1119862Y528902D01*
X1101623Y563571D02*
X1103883D01*
X1103945Y563509D01*
X1103946D01*
X1109073Y558382D01*
X817139Y477411D02*
X818416Y478688D01*
X813863Y477411D02*
X817139D01*
X1032907Y518238D02*
X1037086Y514059D01*
X1023062Y518238D02*
X1032907D01*
X1018023Y513198D02*
X1023062Y518238D01*
X1017478Y513198D02*
X1018023D01*
X1024550Y516663D02*
X1032255D01*
X1022424Y514537D02*
X1024550Y516663D01*
X1032255D02*
X1036433Y512484D01*
X1027509Y515088D02*
X1031602D01*
X1025011Y512589D02*
X1027509Y515088D01*
X1031774Y512690D02*
X1035129Y509335D01*
X1031774Y512690D02*
X1031818Y512645D01*
X1028907Y512690D02*
X1031774D01*
X1030880Y510297D02*
X1031248Y509930D01*
X1017510Y510297D02*
X1030880D01*
X1017479Y507457D02*
X1017782Y507760D01*
X1003745Y534413D02*
X1074934D01*
X1002142Y532810D02*
X1003745Y534413D01*
X1002142Y531975D02*
Y532810D01*
X995138Y533014D02*
X995609Y533485D01*
X976416Y527676D02*
X982043Y533303D01*
X984818D01*
X987039Y535398D02*
X987264Y535172D01*
Y530839D02*
Y535172D01*
X876932Y579284D02*
X883850D01*
X911612Y569829D02*
Y571988D01*
X891243Y573753D02*
Y576321D01*
X889655Y577909D02*
X891243Y576321D01*
X887252Y577909D02*
X889655D01*
X810571Y477411D02*
X813863D01*
X809404Y476243D02*
X810571Y477411D01*
X809404Y470575D02*
Y476243D01*
X1080695Y567492D02*
X1087541D01*
X1144960Y460601D02*
X1148462D01*
X1149701Y459362D01*
X1156721D01*
X1144889Y447109D02*
X1148035D01*
X1149403Y448477D01*
X1156721D01*
X1145121Y453876D02*
X1156209D01*
X1147583Y530504D02*
X1147610Y530532D01*
X1147583Y530106D02*
Y530504D01*
X1147878Y569358D02*
X1147917Y569319D01*
X1132646Y568911D02*
X1134832D01*
X808759Y469930D02*
X809404Y470575D01*
X805201Y469930D02*
X808759D01*
X773556Y481072D02*
Y495153D01*
X775786Y497383D01*
X791863Y481072D02*
X795524Y477411D01*
X805201D01*
X912946Y501476D02*
X922085D01*
X907720Y486004D02*
Y488565D01*
X922085Y501476D02*
X922110Y501451D01*
X895097Y467336D02*
X899956D01*
X890349Y467313D02*
X890372Y467336D01*
X884942Y467313D02*
X890349D01*
X917720Y506004D02*
X923257D01*
X924867Y507614D01*
X935029D01*
X922313Y476908D02*
Y490297D01*
X925004Y492987D01*
X914278Y490138D02*
X919927D01*
X923429Y493639D01*
X907720Y525979D02*
Y526004D01*
X904860Y530720D02*
X921623D01*
X903586Y529446D02*
X904860Y530720D01*
X903586Y522562D02*
Y529446D01*
Y522562D02*
X907720Y518428D01*
Y516004D02*
Y518428D01*
X922110Y501451D02*
X926698Y506039D01*
X911854Y482173D02*
Y489941D01*
X913626Y491712D02*
X919275D01*
X911854Y489941D02*
X913626Y491712D01*
X913586Y489446D02*
X914278Y490138D01*
X913586Y481397D02*
Y489446D01*
X908193Y476004D02*
X913586Y481397D01*
X907720Y476004D02*
X908193D01*
X917720D02*
X919168D01*
X926698Y506039D02*
X935681D01*
X901854Y511870D02*
X919927D01*
X921033Y510764D01*
X897557Y525841D02*
X897720Y526004D01*
X897557Y521687D02*
Y525841D01*
X893586Y514292D02*
X897583Y510295D01*
X919275D01*
X920381Y509189D01*
X893586Y517716D02*
X897557Y521687D01*
X893586Y514292D02*
Y517716D01*
X920381Y509189D02*
X934377D01*
X897720Y516004D02*
X901854Y511870D01*
X921033Y510764D02*
X933724D01*
X894278Y530138D02*
X899048D01*
X902646Y533735D01*
X907720Y516004D02*
X908339D01*
X993060Y494358D02*
X1021167D01*
X945614Y541939D02*
X945733D01*
X909311Y568572D02*
X917720Y560163D01*
X907720Y556004D02*
Y563541D01*
X917720Y556004D02*
Y560163D01*
X1086595Y530673D02*
X1086791Y530870D01*
X1090478D01*
X1091516Y531908D01*
Y533376D01*
X1090478Y534413D02*
X1091516Y533376D01*
X1094272Y538350D02*
Y545260D01*
X1093319Y546213D02*
X1094272Y545260D01*
X1088594Y545723D02*
Y546213D01*
X1096240Y538350D02*
Y548909D01*
X1095787Y549362D02*
X1096240Y548909D01*
X1098012Y538547D02*
X1098209Y538350D01*
X1098012Y538547D02*
Y549365D01*
X1094058Y553319D02*
X1098012Y549365D01*
X1099980Y538547D02*
X1100177Y538350D01*
X1101949Y538547D02*
X1102146Y538350D01*
X1103917Y538547D02*
X1104114Y538350D01*
X1113957Y505280D02*
X1114276Y504961D01*
X1116516D01*
X1118807Y502669D02*
X1118860Y498845D01*
X1111988Y501189D02*
Y505280D01*
Y501189D02*
X1112819Y500358D01*
X1113433D01*
X1114083Y499709D01*
Y497327D02*
Y499709D01*
X1096240Y505280D02*
X1096437Y505476D01*
X1079406Y512957D02*
X1086595D01*
X1078386Y511937D02*
X1079406Y512957D01*
X1074449Y520831D02*
X1086595D01*
X1076023Y524768D02*
X1086595D01*
X1119665Y520831D02*
X1129705D01*
X1129717Y520819D01*
X1119665Y518862D02*
X1124177D01*
X1125394Y517646D01*
Y512201D02*
Y517646D01*
Y512201D02*
X1126224Y511370D01*
X1129717D01*
X1119665Y524768D02*
X1130150D01*
X1119665Y532642D02*
Y547953D01*
Y530673D02*
X1124350D01*
X1125016Y531339D01*
X1119665Y526736D02*
X1124983D01*
X1127856Y529609D01*
X1129920D01*
X907272Y536004D02*
X907720D01*
X784232Y575756D02*
X784366Y575622D01*
X790925D01*
X797614D01*
Y569717D02*
X797693D01*
X802197Y574220D01*
X804075D01*
X810634Y565398D02*
Y569417D01*
X809756Y564520D02*
X810634Y565398D01*
X790925Y565602D02*
X792008Y564520D01*
X790925Y565602D02*
Y569717D01*
X817909Y565154D02*
Y569409D01*
X784232Y565146D02*
X786626Y562752D01*
X784232Y565146D02*
Y569850D01*
X1094075Y505083D02*
X1094272Y505280D01*
X1101949Y505083D02*
X1102146Y505280D01*
X1105886Y505083D02*
X1106083Y505280D01*
X1211244Y583035D02*
X1216165D01*
X1221421D01*
X1222453Y582004D01*
X1201402Y583035D02*
X1206323D01*
X1211244D02*
Y590098D01*
X1204228Y597114D02*
X1211244Y590098D01*
X1138949Y597114D02*
X1204228D01*
X1181758Y481927D02*
X1188081D01*
X1139979Y460857D02*
Y461042D01*
X1201957Y461732D02*
X1203071D01*
X1211150Y464291D02*
X1222291D01*
X1208571Y466870D02*
X1211150Y464291D01*
X1203404Y466870D02*
X1208571D01*
X1188081Y481927D02*
X1197886Y472122D01*
X1203071Y461732D02*
X1207547D01*
X1107949Y538453D02*
X1108051Y538350D01*
X1107949Y538453D02*
Y548337D01*
X1100177Y534004D02*
Y538350D01*
X1115268Y522799D02*
X1119665D01*
X1114634Y522165D02*
X1115268Y522799D01*
X1114634Y514386D02*
Y522165D01*
X1107854Y505477D02*
X1108051Y505280D01*
X1098012Y505476D02*
X1098209Y505280D01*
X1099980Y505477D02*
X1100177Y505280D01*
X1102669Y528784D02*
X1105413Y531528D01*
X1101046Y528784D02*
X1102669D01*
X1108728Y531779D02*
X1109390D01*
X1107854Y505477D02*
Y509917D01*
X1109823Y505476D02*
X1110020Y505280D01*
X1109823Y505476D02*
Y510176D01*
X1113063Y512815D02*
X1114634Y514386D01*
X1104980Y524590D02*
X1108350Y527961D01*
X1108810Y525358D02*
X1110571Y527119D01*
Y529528D01*
X1111941Y530898D01*
Y538303D01*
X1111988Y538350D01*
X971639Y537563D02*
X1070909D01*
X1070257Y539138D02*
X1072245Y541126D01*
X970987Y539138D02*
X1070257D01*
X1069605Y540713D02*
X1072184Y543291D01*
X1094710Y554894D02*
X1099587Y550017D01*
Y545953D02*
Y550017D01*
Y545953D02*
X1101949Y543590D01*
Y538547D02*
Y543590D01*
X969555Y542287D02*
X1068952D01*
X1071531Y544866D01*
X963050Y543862D02*
X1068300D01*
X1108688Y552051D02*
X1115567D01*
X1115778Y551841D01*
X1115567Y552051D02*
X1119665Y547953D01*
X957662Y547012D02*
X1066996D01*
X1116219Y553626D02*
X1121240Y548605D01*
X1109340Y553626D02*
X1116219D01*
X958314Y548587D02*
X1066339D01*
X1071299Y529492D02*
X1076023Y524768D01*
X1013467Y529492D02*
X1071299D01*
X1012102Y528127D02*
X1013467Y529492D01*
X1075765Y522799D02*
X1086595D01*
X1070647Y527917D02*
X1075765Y522799D01*
X1014120Y527917D02*
X1070647D01*
X1013677Y527475D02*
X1014120Y527917D01*
X1068937Y526343D02*
X1074449Y520831D01*
X1015921Y526343D02*
X1068937D01*
X1015252Y525673D02*
X1015921Y526343D01*
X975226Y510765D02*
Y514921D01*
X955087D02*
X955177Y514831D01*
X1047618Y553027D02*
X1054378D01*
X1055500Y554149D01*
X1061283Y566728D02*
X1063606Y564405D01*
X1106083Y538350D02*
Y547398D01*
X1107894Y573760D02*
X1107965Y573831D01*
X1077161Y534413D02*
X1090478D01*
X990331Y535988D02*
X1075587D01*
X1074934Y534413D02*
X1076509Y532839D01*
X1086398D01*
X1086595Y532642D01*
X1074079Y532839D02*
X1078213Y528705D01*
X1072681Y531264D02*
X1077209Y526736D01*
X1013012Y531264D02*
X1072681D01*
X1005172Y525212D02*
Y528221D01*
X1010528Y528780D02*
X1013012Y531264D01*
X1056152Y519734D02*
X1056162Y519744D01*
X1062917D01*
X1048417Y519739D02*
X1048581D01*
X1047433Y524720D02*
X1068332D01*
X1046621Y523909D02*
X1047433Y524720D01*
X1046621Y519830D02*
Y523909D01*
X1075587Y535988D02*
X1077161Y534413D01*
X1077209Y526736D02*
X1086595D01*
X1078213Y528705D02*
X1086595D01*
X1066996Y547012D02*
X1074571Y554587D01*
X1068300Y543862D02*
X1080117Y555679D01*
X1074571Y554587D02*
Y555779D01*
X1074630Y555839D01*
X1071531Y544866D02*
X1075886D01*
X1066339Y548587D02*
X1072465Y554713D01*
Y556736D01*
X1076426Y560697D01*
X1078220D01*
X1074890Y547079D02*
Y548143D01*
X1080850Y554104D01*
X1075886Y544866D02*
X1078882Y547862D01*
X1072184Y543291D02*
X1076830D01*
X1081005Y547466D01*
Y552031D01*
X1081503Y552529D01*
X1072245Y541126D02*
X1077827D01*
X1070909Y537563D02*
X1072898Y539551D01*
X1079314D01*
X1089756Y549362D02*
X1095787D01*
X1088488Y550630D02*
X1089756Y549362D01*
X1086045Y554894D02*
X1094710D01*
X1095362Y556468D02*
X1101161Y550670D01*
X1085392Y556468D02*
X1095362D01*
X1098380Y555679D02*
X1100607D01*
X1096015Y558043D02*
X1098380Y555679D01*
X1084740Y558043D02*
X1096015D01*
X1086595Y516894D02*
X1093312D01*
X1086595Y518862D02*
X1091949D01*
X1098820Y532647D02*
X1100177Y534004D01*
X1086697Y553319D02*
X1094058D01*
X1079314Y539551D02*
X1085653Y545891D01*
Y552276D01*
X1086697Y553319D01*
X1083315Y546614D02*
Y550098D01*
X1077827Y541126D02*
X1083315Y546614D01*
X1081503Y552529D02*
X1083680D01*
X1086045Y554894D01*
X1080850Y554104D02*
X1083027D01*
X1085392Y556468D01*
X1080117Y555679D02*
X1082375D01*
X1084740Y558043D01*
X1099684Y558828D02*
X1101911D01*
X1097319Y561193D02*
X1099684Y558828D01*
X1083435Y561193D02*
X1097319D01*
X1081071Y558828D02*
X1083435Y561193D01*
X1077323Y558828D02*
X1081071D01*
X1100318Y560421D02*
X1102545D01*
X1097972Y562768D02*
X1100318Y560421D01*
X1082652Y562768D02*
X1097972D01*
X1080287Y560403D02*
X1082652Y562768D01*
X1078514Y560403D02*
X1080287D01*
X1078220Y560697D02*
X1078514Y560403D01*
X1062917Y516701D02*
X1063398Y516221D01*
X1062917Y516701D02*
Y519744D01*
X1061757Y515634D02*
X1063025Y514366D01*
X1038886Y515634D02*
X1061757D01*
X1038886D02*
Y519929D01*
X1065779Y512169D02*
X1065894Y512055D01*
X1062995Y512169D02*
X1065779D01*
X1061105Y514059D02*
X1062995Y512169D01*
X1060209Y512484D02*
X1062689Y510004D01*
X1060524Y509107D02*
X1061792Y507839D01*
X1060524Y509107D02*
Y509583D01*
X1065669Y507839D02*
X1065969Y507539D01*
X1061792Y507839D02*
X1065669D01*
X1059197Y510910D02*
X1060524Y509583D01*
X1058949Y508455D02*
Y508571D01*
X1061896Y505508D02*
X1062669D01*
X1058949Y508455D02*
X1061896Y505508D01*
X1058185Y509335D02*
X1058949Y508571D01*
X1037086Y514059D02*
X1061105D01*
X1036433Y512484D02*
X1060209D01*
X1035781Y510910D02*
X1059197D01*
X1031602Y515088D02*
X1035781Y510910D01*
X1035129Y509335D02*
X1058185D01*
X1098624Y564342D02*
X1100970Y561996D01*
X1082000Y564342D02*
X1098624D01*
X1079929Y562272D02*
X1082000Y564342D01*
X1059780Y562272D02*
X1079929D01*
X1059240Y562811D02*
X1059780Y562272D01*
X1063606Y564405D02*
X1079836D01*
X1081347Y565917D01*
X1099276D01*
X1101623Y563571D01*
X1100970Y561996D02*
X1103198D01*
X1109130Y558291D02*
X1109898D01*
X1103198Y561996D02*
X1107732Y557461D01*
Y557394D02*
Y557461D01*
Y557394D02*
X1109001Y556126D01*
X1109068D01*
X1109993Y555201D01*
X1102545Y560421D02*
X1106157Y556809D01*
Y556742D02*
Y556809D01*
Y556742D02*
X1108348Y554551D01*
X1108415D01*
X1109340Y553626D01*
X1101911Y558828D02*
X1104583Y556157D01*
Y556090D02*
Y556157D01*
Y556090D02*
X1107696Y552976D01*
X1107763D01*
X1108688Y552051D01*
X1100607Y555679D02*
X1101433Y554852D01*
Y554785D02*
Y554852D01*
Y554785D02*
X1106392Y549827D01*
X1106458D01*
X1107949Y548337D01*
X1079211Y566008D02*
X1080695Y567492D01*
X1064231Y566008D02*
X1079211D01*
X879390Y571803D02*
X879945Y572358D01*
X886819D02*
X887252Y572791D01*
X884102Y575350D02*
X887252D01*
X882925Y576528D02*
X884102Y575350D01*
X879390Y576528D02*
X882925D01*
X897449Y575350D02*
X900272D01*
X901661Y576740D01*
X904654D01*
X873835Y576528D02*
X879390D01*
X873685Y576677D02*
X873835Y576528D01*
X902646Y533735D02*
Y548665D01*
X879945Y572358D02*
X883551D01*
X886819D01*
X897449Y572791D02*
X899850D01*
X900626Y572016D01*
X904654D01*
X895760Y579598D02*
X897449Y577909D01*
X895760Y579598D02*
Y582886D01*
X895114Y583531D02*
X895760Y582886D01*
X902646Y548665D02*
X904118Y550138D01*
X883551Y567213D02*
Y572358D01*
X817909Y574134D02*
X871154D01*
X876240Y569047D01*
X878063D01*
X907575Y576740D02*
X909311Y575004D01*
X904654Y576740D02*
X907575D01*
X876342Y578693D02*
X876932Y579284D01*
X872938Y578693D02*
X876342D01*
X871669Y577424D02*
X872938Y578693D01*
X871669Y576437D02*
Y577424D01*
X870941Y575709D02*
X871669Y576437D01*
X821548Y575709D02*
X870941D01*
X820367Y576890D02*
X821548Y575709D01*
X815452Y576890D02*
X820367D01*
X815408Y576847D02*
X815452Y576890D01*
X811209Y576847D02*
X815408D01*
X810634Y576272D02*
X811209Y576847D01*
X810634Y574142D02*
Y576272D01*
X781205Y575756D02*
X784232D01*
X821059Y566076D02*
Y571724D01*
X821894Y572559D01*
X870501D01*
X875588Y567473D01*
X877411D01*
X884775Y560108D01*
X985264Y507539D02*
X985275Y507551D01*
X992149Y498043D02*
X1020398D01*
X1124256Y569358D02*
Y591012D01*
X1158902Y569358D02*
Y591012D01*
X1129965Y530905D02*
X1130232Y530638D01*
X1129965Y588130D02*
X1138949Y597114D01*
X1141553Y569333D02*
X1141579Y569358D01*
X1136134Y523263D02*
X1136312D01*
X1129748Y516063D02*
X1134635D01*
X1129717Y516094D02*
X1129748Y516063D01*
X1136949Y519945D02*
X1139461Y522457D01*
X1136949Y514755D02*
Y519945D01*
X1133457Y511262D02*
X1136949Y514755D01*
X1154787Y500543D02*
X1154795Y500536D01*
X890390Y579892D02*
Y583531D01*
Y579892D02*
X891116Y579166D01*
X781205Y565946D02*
X786137Y561014D01*
X781205Y565946D02*
Y575756D01*
X803954Y565868D02*
Y569376D01*
X804075Y569496D01*
X792008Y564520D02*
X801688D01*
X802915Y563292D01*
X805174D01*
X806402Y564520D01*
X809756D01*
X786626Y562752D02*
X801228D01*
X802263Y561717D01*
X806206D01*
X807434Y562945D01*
X815701D01*
X817909Y565154D01*
X786137Y561014D02*
X800739D01*
X801610Y560143D01*
X807155D01*
X808318Y561306D01*
X816288D01*
X821059Y566076D01*
X1139983Y466971D02*
X1140051Y466903D01*
X1140235Y460601D02*
Y461298D01*
X1140051Y460439D02*
Y466903D01*
X1139979Y461042D02*
X1140235Y461298D01*
X1219245Y466844D02*
X1222286D01*
X1207547Y461732D02*
X1209694Y459586D01*
X1133457Y509804D02*
Y511262D01*
X1132870Y509217D02*
X1133457Y509804D01*
X1138524Y514102D02*
Y519293D01*
X1135032Y510610D02*
X1138524Y514102D01*
X1135032Y509151D02*
Y510610D01*
X1133522Y507642D02*
X1135032Y509151D01*
X1126867Y507642D02*
X1133522D01*
X1125621Y506396D02*
X1126867Y507642D01*
X1114051Y497295D02*
X1114083Y497327D01*
X1078255Y507082D02*
X1078386Y507213D01*
X1088487Y538366D02*
X1092288D01*
X1092303Y538350D01*
X1066645Y514366D02*
X1070782Y510229D01*
X1063025Y514366D02*
X1066645D01*
X1063398Y516221D02*
X1066839D01*
X1067642Y519251D02*
Y519744D01*
X1086398Y515122D02*
X1086595Y514925D01*
X1082711Y515122D02*
X1086398D01*
X1081673Y516160D02*
X1082711Y515122D01*
X1081673Y516160D02*
Y518510D01*
X1080928Y519256D02*
X1081673Y518510D01*
X1073796Y519256D02*
X1080928D01*
X1068332Y524720D02*
X1073796Y519256D01*
X1130232Y525913D02*
X1134635Y521511D01*
Y516063D02*
Y521511D01*
X1086059Y538366D02*
X1088487D01*
X1085255Y539171D02*
X1086059Y538366D01*
X1085255Y539171D02*
Y542384D01*
X1088594Y545723D01*
X1093319Y545464D02*
Y546213D01*
X1089534Y541679D02*
X1093319Y545464D01*
X1088691Y541679D02*
X1089534D01*
X949725Y500647D02*
X950596Y499776D01*
X1140397Y453876D02*
Y460439D01*
X1139979Y460857D02*
X1140235Y460601D01*
X1140397Y460439D01*
X1140165Y447109D02*
Y453644D01*
X1140397Y453876D01*
X1132992Y467624D02*
X1139964D01*
X1139983Y467605D01*
X1132992Y462321D02*
Y467624D01*
X1139983Y466971D02*
Y467605D01*
X1121563Y508344D02*
X1122435Y509217D01*
X1132870D01*
X999559Y513877D02*
X1001161Y512276D01*
X909311Y568572D02*
Y575004D01*
X911612Y569829D02*
X920413Y561028D01*
X904654Y566608D02*
X907720Y563541D01*
X904654Y566608D02*
Y572016D01*
X1056223Y566728D02*
X1061283D01*
X1051659Y558228D02*
X1054989Y561558D01*
Y565494D01*
X1056223Y566728D01*
X958967Y550161D02*
X1040684D01*
X1043268Y552746D01*
Y560510D01*
X1044221Y561463D01*
X1051892D01*
X1053414Y562985D01*
Y566146D01*
X1055571Y568303D01*
X1061936D01*
X1064231Y566008D01*
X1100165Y580298D02*
X1100229Y580233D01*
X1119665Y506320D02*
Y510988D01*
X1117411Y504066D02*
X1119665Y506320D01*
X1117411Y504066D02*
X1118807Y502669D01*
X1116516Y504961D02*
X1117411Y504066D01*
X1139461Y522457D02*
Y528155D01*
X1138460Y531382D02*
X1141035Y528807D01*
Y521804D02*
Y528807D01*
X1138524Y519293D02*
X1141035Y521804D01*
X1124008Y503381D02*
X1125965D01*
X1128651Y506067D01*
X1134174D01*
X1136606Y508499D01*
Y509958D01*
X1140099Y513450D01*
Y518641D01*
X1142610Y521152D01*
Y529463D01*
X1140035Y532038D02*
X1142610Y529463D01*
X1140035Y532038D02*
Y533652D01*
X1141966Y535583D01*
X1063200Y553930D02*
X1067334D01*
X1062980Y554149D02*
X1063200Y553930D01*
X1001051Y507551D02*
X1001901Y506702D01*
X1013677Y506110D02*
Y527475D01*
X1012102Y506762D02*
Y528127D01*
X1000747Y508317D02*
X1005188D01*
X1206347Y583059D02*
Y587550D01*
X1206323Y583035D02*
X1206347Y583059D01*
X1222453Y577280D02*
X1226556D01*
X1226713Y577437D01*
X1134832Y568911D02*
X1135280Y569358D01*
X887252Y570232D02*
X891079D01*
X893788Y567523D02*
X901844D01*
X1113957Y538350D02*
Y549657D01*
X1113137Y550477D02*
X1113957Y549657D01*
X1108036Y550477D02*
X1113137D01*
X1107111Y551402D02*
X1108036Y550477D01*
X1107044Y551402D02*
X1107111D01*
X1103008Y555438D02*
X1107044Y551402D01*
X1103008Y555438D02*
Y555505D01*
X1101259Y557253D02*
X1103008Y555505D01*
X1099032Y557253D02*
X1101259D01*
X1096667Y559618D02*
X1099032Y557253D01*
X1084088Y559618D02*
X1096667D01*
X1081723Y557253D02*
X1084088Y559618D01*
X1079464Y557253D02*
X1081723D01*
X1067648Y545437D02*
X1079464Y557253D01*
X958111Y538923D02*
X963050Y543862D01*
X957608Y545437D02*
X1067648D01*
X1122084Y479694D02*
Y502243D01*
X989233Y534889D02*
X990331Y535988D01*
X989233Y530839D02*
Y534889D01*
X999559Y513877D02*
Y518331D01*
X999666Y518437D01*
X997148Y513123D02*
X999571Y510701D01*
X997148Y513123D02*
Y515837D01*
X997107Y515878D02*
X997148Y515837D01*
X989890Y506747D02*
Y509417D01*
X991147Y511944D02*
Y515824D01*
X991201Y515878D01*
X993170Y514284D02*
Y515878D01*
Y514284D02*
X996208Y511245D01*
Y506747D02*
Y511245D01*
X989233Y513752D02*
Y515878D01*
X987646Y512166D02*
X989233Y513752D01*
X989386Y509921D02*
X989890Y509417D01*
X986893Y512166D02*
X987646D01*
X971595Y523039D02*
X976330D01*
X976416Y522952D01*
X1004276Y530386D02*
X1006069D01*
X1006165Y530290D01*
X1006225Y530350D01*
X1009871D01*
X1012360Y532839D01*
X1074079D01*
X995138Y530839D02*
Y533014D01*
X976172Y527921D02*
X976416Y527676D01*
Y522952D02*
X980194D01*
X980820Y523578D01*
Y527383D01*
X981717Y528280D01*
X984705D01*
X1006909Y512283D02*
X1006917Y512276D01*
X1001161D02*
X1006917D01*
X1009341D01*
X1003007Y529117D02*
X1004276Y530386D01*
X992052Y492508D02*
X1021439D01*
X1021491Y492456D01*
X1030078Y501043D02*
X1055164D01*
X1021491Y492456D02*
X1030078Y501043D01*
X1021167Y494358D02*
X1029426Y502617D01*
X1032080D01*
X1029426D02*
X1055816D01*
X988806Y496134D02*
X1020716D01*
X1028774Y504192D01*
X1031613D01*
X1031705Y504284D01*
X1030497D02*
X1031705D01*
X1020398Y498043D02*
X1028540Y506185D01*
X1015252Y505458D02*
Y525673D01*
X999571Y510701D02*
X1006859D01*
X1003007Y514667D02*
Y529117D01*
X978284Y506259D02*
X981277Y503266D01*
X1008606D01*
X949725Y500647D02*
X950236D01*
X1006859Y510701D02*
X1009867Y507693D01*
X1008606Y503266D02*
X1012102Y506762D01*
X1009233Y501666D02*
X1013677Y506110D01*
X1009729Y499934D02*
X1015252Y505458D01*
X991512Y499934D02*
X1009729D01*
X980456Y501666D02*
X1009233D01*
X955087Y514921D02*
X960265D01*
X1031422Y498775D02*
X1032115Y499468D01*
X970222Y540713D02*
X1069605D01*
X980449Y507539D02*
X985264D01*
X1203404Y454111D02*
Y461399D01*
X1203071Y461732D02*
X1203404Y461399D01*
X1006909Y512283D02*
Y519467D01*
X885362Y490827D02*
Y494547D01*
X885432Y494617D01*
X897720Y506004D02*
Y507931D01*
X892012Y513639D02*
X897720Y507931D01*
X892012Y513639D02*
Y520285D01*
X893512Y521785D01*
Y529372D01*
X894278Y530138D01*
X920669Y461355D02*
Y465351D01*
X919815Y460502D02*
X920669Y461355D01*
X882454Y460502D02*
X919815D01*
X880217Y462739D02*
X882454Y460502D01*
X880217Y462739D02*
Y467313D01*
X876044Y457252D02*
X917789D01*
X917819Y457221D01*
X926185D01*
X926765Y457801D01*
X910881Y481199D02*
X911854Y482173D01*
X903226Y489728D02*
X903601Y490103D01*
X903242Y481199D02*
X910881D01*
X903226Y481215D02*
Y489728D01*
X828082Y469930D02*
X828913Y470761D01*
X813863Y473670D02*
X816683D01*
X818498Y475485D01*
X822241D01*
X835584Y470761D02*
X842254D01*
X842256Y470759D01*
X862537D01*
X828913Y468018D02*
Y470761D01*
Y468018D02*
X829682Y467248D01*
X813863Y469930D02*
X828082D01*
X862537Y470759D02*
X876044Y457252D01*
X835584Y475486D02*
Y477685D01*
X836621Y478722D01*
X822241Y475485D02*
X835584D01*
X829682Y467248D02*
X845739D01*
X846611Y468119D01*
X861145D01*
X842274Y475500D02*
X846636D01*
X842256Y475483D02*
X842274Y475500D01*
X861145Y468119D02*
X861169Y468095D01*
X870103Y467711D02*
X878989Y458826D01*
X870103Y467711D02*
Y468145D01*
X878989Y458826D02*
X924776D01*
X836621Y478722D02*
X848675D01*
X849311Y478086D01*
Y473820D02*
Y478086D01*
Y473820D02*
X850309Y472822D01*
X867358D01*
X852850Y475500D02*
Y479130D01*
X850735Y481245D02*
X852850Y479130D01*
X1207385Y559290D02*
Y567363D01*
X1211244Y571222D01*
Y574374D01*
X1210303Y558998D02*
Y566098D01*
X1216165Y571961D01*
Y574374D01*
X1208323Y482858D02*
X1208351Y482830D01*
X1186801Y491927D02*
X1190212Y488516D01*
Y482023D02*
Y488516D01*
Y482023D02*
X1198116Y474119D01*
X1218085Y490486D02*
X1218119Y490520D01*
X1222809Y490486D02*
X1222843Y490520D01*
X1222809Y478202D02*
X1225983D01*
X1222809D02*
Y490486D01*
X1226334Y496678D02*
X1230500Y492512D01*
X1222819Y496678D02*
X1226334D01*
X1222819D02*
Y502724D01*
X1222706Y502837D02*
X1222819Y502724D01*
X1196634Y562500D02*
X1201762D01*
X1218085Y474222D02*
Y478202D01*
Y474222D02*
X1218188Y474119D01*
X1218085Y478202D02*
Y490486D01*
X1198116Y474119D02*
X1218188D01*
X1222291D01*
X1147339Y530260D02*
X1147583Y530504D01*
X1144972Y528264D02*
Y531857D01*
X1145682Y532567D01*
X1205298Y553993D02*
X1210303Y558998D01*
X1204996Y556901D02*
X1207385Y559290D01*
X1203404Y469439D02*
X1210418D01*
X1209694Y459586D02*
X1227910D01*
X1230500Y462176D01*
Y492512D01*
X1224083Y461738D02*
X1227835D01*
X1228925Y462828D01*
Y475260D01*
X1222291Y461722D02*
X1225641D01*
X1225983Y478202D02*
X1228925Y475260D01*
X1224082Y469460D02*
Y472329D01*
X1222291Y474119D02*
X1224082Y472329D01*
X1213949Y472141D02*
X1219245Y466844D01*
X1197904Y472141D02*
X1213949D01*
X1197886Y472122D02*
X1197904Y472141D01*
X1096240Y505280D02*
X1096258Y505262D01*
X1141726Y471448D02*
Y480485D01*
X1139983Y467605D02*
Y469706D01*
X1141726Y471448D01*
X1122084Y479694D02*
X1122259Y479520D01*
X1114778D02*
Y484396D01*
X1112455Y485484D02*
X1113533Y484406D01*
X1111014Y485484D02*
X1112455D01*
X1118519Y478633D02*
Y488182D01*
X1118519Y478633D02*
X1118519Y478633D01*
X1118519Y476099D02*
Y478633D01*
Y476099D02*
X1119785Y474833D01*
X1125348D01*
X1127271Y476756D01*
X1088235Y471808D02*
X1097876Y451133D01*
X1106428Y478904D02*
X1113906Y462868D01*
X1101062Y456879D02*
X1113906Y462868D01*
X1097048Y465486D02*
X1101062Y456879D01*
X1106442Y572442D02*
X1113147Y569316D01*
X1109768Y562069D02*
X1109777Y562088D01*
X1113147Y569316D01*
X1109993Y555201D02*
X1111647D01*
X1112785Y556339D01*
Y562569D01*
X1112694Y562349D02*
X1117105Y571807D01*
X1112409Y573996D02*
X1117105Y571807D01*
X1087541Y567551D02*
X1097094Y588037D01*
X1101789Y585848D01*
X1112409Y573996D02*
X1116116Y581945D01*
X1085318Y596346D02*
X1116116Y581945D01*
X956417Y510765D02*
X975226D01*
X937166Y502267D02*
X944252Y495181D01*
X945399Y487207D02*
X945470Y487277D01*
X946297Y485529D02*
X946367Y485459D01*
X938305Y483752D02*
X947424D01*
X937166Y502267D02*
Y503070D01*
X948890Y503921D02*
X951638D01*
X941514Y563160D02*
X957662Y547012D01*
X935907Y557554D02*
X941514Y563160D01*
X935907Y557401D02*
Y557554D01*
X939606Y567295D02*
X958314Y548587D01*
X917720Y546004D02*
X925260D01*
X940258Y568870D02*
X958967Y550161D01*
X920413Y561028D02*
X921759D01*
X922978Y559809D01*
Y553086D02*
Y559809D01*
Y553086D02*
X923416Y552648D01*
X925214Y545941D02*
X926386Y547114D01*
X925581Y551752D02*
Y553545D01*
X924811Y554315D02*
X925581Y553545D01*
X926386Y547114D02*
Y550330D01*
X927156Y551099D01*
Y554198D01*
X926386Y554967D02*
X927156Y554198D01*
X936042Y568870D02*
X940258D01*
X924811Y554315D02*
Y557640D01*
X936042Y568870D01*
X926386Y554967D02*
Y556964D01*
X936718Y567295D01*
X939606D01*
X923967Y550138D02*
X925581Y551752D01*
X904118Y550138D02*
X923967D01*
X890372Y467336D02*
X891329Y468294D01*
X899956Y467336D02*
X901418Y465875D01*
X905185D01*
X905708Y465351D01*
X890372Y467336D02*
Y469038D01*
X893523Y472188D01*
X897263Y483667D02*
Y487749D01*
X896532Y488480D02*
X897263Y487749D01*
X890498Y488480D02*
X896532D01*
X889783Y483667D02*
Y487765D01*
X890181Y488163D02*
Y493007D01*
X889783Y487765D02*
X890181Y488163D01*
X890498Y488480D01*
X886539Y479401D02*
X893523D01*
X885442Y480498D02*
X886539Y479401D01*
X893523Y472188D02*
Y479401D01*
Y483667D01*
X895097Y467336D02*
Y469924D01*
X897263Y472090D01*
Y475005D01*
X892472Y542435D02*
X892983D01*
X884775Y550133D02*
X892472Y542435D01*
X892107Y547873D02*
X892704D01*
X895307Y550476D01*
X901442D01*
X903300Y552334D01*
Y563231D01*
X902564Y563967D02*
X903300Y563231D01*
X884775Y550133D02*
Y560108D01*
X886635Y553346D02*
X892107Y547873D01*
X886635Y553346D02*
Y560476D01*
X878063Y569047D02*
X886635Y560476D01*
X888782Y555727D02*
Y561982D01*
X883551Y567213D02*
X888782Y561982D01*
Y555727D02*
X890927Y553582D01*
X897720Y556004D02*
Y563591D01*
X893788Y567523D02*
X897720Y563591D01*
X891079Y570232D02*
X893788Y567523D01*
X1097876Y451133D02*
X1109220D01*
X1114180Y446173D01*
X1117390D01*
X1119947D01*
X1129086Y446202D02*
X1136591D01*
Y458386D01*
X1131437Y452008D02*
X1131563Y451882D01*
X1119947Y446173D02*
X1122844Y449070D01*
X1126219D01*
X1129086Y446202D01*
X1117171Y452101D02*
X1117390Y451882D01*
X1117171Y452101D02*
Y462935D01*
Y458117D02*
X1117277Y458011D01*
X1128748Y469820D02*
X1132961D01*
X1137197Y474055D01*
X1128138Y461434D02*
Y463130D01*
X1117277Y458011D02*
X1128018D01*
X1131437Y454592D01*
Y452008D02*
Y454592D01*
X1128138Y461434D02*
X1131186Y458386D01*
X1136591D01*
X1104114Y538350D02*
Y545612D01*
X1101161Y550670D02*
X1102811D01*
X1106083Y547398D01*
X926623Y481493D02*
X932863D01*
X932905Y481534D01*
X927706Y471611D02*
X932905Y476810D01*
X927693Y471624D02*
X927706Y471611D01*
X904056Y470907D02*
X911526D01*
X913188Y469245D01*
Y465351D02*
Y469245D01*
X917720Y476004D02*
X918485Y476768D01*
X922313Y476908D02*
X922453Y476768D01*
X918485D02*
X922453D01*
X926623D01*
X908942Y476308D02*
X913626Y471624D01*
X927693D01*
X903242Y471722D02*
X904056Y470907D01*
X903242Y471722D02*
Y481199D01*
X1129965Y559976D02*
Y588130D01*
X1128444Y558456D02*
X1129965Y559976D01*
X1124840Y558456D02*
X1128444D01*
X1124390Y558006D02*
X1124840Y558456D01*
X1129920Y529609D02*
X1130591Y530279D01*
X1130941Y530630D01*
X1122815Y537712D02*
X1126744Y533783D01*
Y530840D02*
Y533783D01*
X1121240Y537060D02*
X1125016Y533284D01*
Y531339D02*
Y533284D01*
X1122815Y537712D02*
Y549257D01*
X1121240Y537060D02*
Y548605D01*
X1124390Y541319D02*
X1129965Y535744D01*
Y530905D02*
Y535744D01*
X1124606Y546563D02*
X1128660D01*
X1124390Y546347D02*
X1124606Y546563D01*
X1124390Y541319D02*
Y546347D01*
Y558006D01*
X1128660Y551287D02*
X1133559D01*
X1133736Y551464D01*
X1141634Y542527D02*
Y546563D01*
X1133736Y525661D02*
X1136134Y523263D01*
X1135311Y528504D02*
X1136587Y527228D01*
X1136885Y530730D02*
X1139461Y528155D01*
X1133736Y525661D02*
Y551464D01*
X1138460Y531382D02*
Y539355D01*
X1138463D01*
X1141634Y542527D01*
X1136925Y551287D02*
X1141634D01*
X1136885Y551248D02*
X1136925Y551287D01*
X1136885Y530730D02*
Y551248D01*
Y551287D01*
X1141634D02*
X1145710D01*
X1147878Y553456D01*
Y565421D01*
Y569358D01*
X1144728Y556721D02*
Y565421D01*
Y569358D01*
X1135311Y528504D02*
Y551940D01*
X1133736Y551464D02*
Y552648D01*
X1136949Y555861D01*
X1141579Y557103D02*
Y565421D01*
Y569358D01*
X1135311Y551940D02*
X1138151Y554780D01*
X1142787D01*
X1144728Y556721D01*
X1140830Y556355D02*
X1141579Y557103D01*
X1136949Y555861D02*
X1137443Y556355D01*
X1140830D01*
X775786Y497383D02*
X847149D01*
X850735Y493797D01*
Y481245D02*
Y493797D01*
X818416Y478688D02*
X833309D01*
X835866Y481245D01*
X850735D01*
X1124506Y458122D02*
Y465577D01*
X1128748Y469820D01*
X1183201Y556901D02*
X1204996D01*
X1145682Y532567D02*
X1158868D01*
X1183201Y556901D01*
X1147583Y530106D02*
X1158983D01*
X1182869Y553993D01*
X1205298D01*
X1078386Y507213D02*
X1078875D01*
X1032115Y499468D02*
X1054512D01*
X1031705Y504284D02*
X1056377D01*
X1028540Y506185D02*
X1056703D01*
X1077532Y508067D02*
X1078386Y507213D01*
X1054512Y499468D02*
X1058601Y495378D01*
X1055164Y501043D02*
X1059254Y496953D01*
X1069920Y494865D02*
X1069965Y494909D01*
X1059254Y496953D02*
X1066038D01*
X1069920Y494865D02*
X1071012D01*
X1071572Y495425D01*
X1104114Y500098D02*
Y505280D01*
X1113556Y497854D02*
X1114083Y497327D01*
X1066038Y496953D02*
X1068126Y494865D01*
X1058601Y495378D02*
X1065386D01*
X1068126Y494865D02*
X1069920D01*
X1082318Y508429D02*
X1089623D01*
X1078875Y507213D02*
X1079961Y508298D01*
Y508938D01*
X1080204Y509181D01*
X1080844D01*
X1081535Y509873D01*
Y510512D01*
X1082011Y510988D01*
X1086595D01*
X1071723Y518600D02*
X1078386Y511937D01*
X1077825Y507213D02*
X1078386D01*
X1075140Y506753D02*
X1078050Y506753D01*
X1071582Y497746D02*
X1074727Y497745D01*
X1073804Y504432D02*
X1081535D01*
Y507646D01*
X1073283Y502726D02*
X1082249D01*
X1083110Y503587D01*
X1072630Y501152D02*
X1082901D01*
X1084685Y502935D01*
X1074727Y497745D02*
X1088669D01*
X1108810Y524409D02*
Y525358D01*
X1109495Y522867D02*
X1112146Y525518D01*
Y527858D01*
X1104980Y515019D02*
X1109823Y510176D01*
X1107006Y522605D02*
X1108810Y524409D01*
X1103101Y526153D02*
X1108728Y531779D01*
X1103101Y514671D02*
X1107854Y509917D01*
X1103101Y514671D02*
Y526153D01*
X1101046Y510423D02*
Y528784D01*
X1100177Y505280D02*
Y509554D01*
X1101046Y510423D01*
X1099471Y529436D02*
X1101563Y531528D01*
X1099471Y511294D02*
Y529436D01*
X1098209Y505280D02*
Y510031D01*
X1098209Y510031D01*
X1099471Y511294D01*
X1098209Y508287D02*
Y510031D01*
X1104980Y515019D02*
Y524590D01*
X1109495Y518743D02*
Y522867D01*
X1107006Y517627D02*
Y522605D01*
Y517627D02*
X1108055Y516577D01*
X1110263D01*
X1112370Y518684D01*
Y518743D01*
X1096835Y532647D02*
X1098820D01*
X1093402Y529557D02*
X1097050D01*
X1091643Y527798D02*
X1093402Y529557D01*
X1091643Y523314D02*
Y527798D01*
X1091128Y522799D02*
X1091643Y523314D01*
X1086595Y522799D02*
X1091128D01*
X1094175Y523534D02*
Y526982D01*
X1091471Y520831D02*
X1094175Y523534D01*
X1086595Y520831D02*
X1091471D01*
X1091949Y518862D02*
X1096793Y523706D01*
Y524708D01*
X1093312Y516894D02*
X1096964Y520545D01*
X1096063Y505457D02*
Y512563D01*
Y505457D02*
X1096240Y505280D01*
X1091951Y506453D02*
X1092013Y506391D01*
X1065386Y495378D02*
X1067504Y493260D01*
X1072469D01*
X1088594Y506584D02*
X1088726Y506453D01*
X1091951D01*
X1102798Y498781D02*
X1104114Y500098D01*
X1072554Y505682D02*
X1073804Y504432D01*
X1072554Y505682D02*
Y510684D01*
X1066928Y516310D02*
X1072554Y510684D01*
X1074129Y510908D02*
Y511336D01*
Y510908D02*
X1077825Y507213D01*
X1067580Y517885D02*
X1074129Y511336D01*
X1070782Y505227D02*
Y510229D01*
Y505227D02*
X1070965Y505044D01*
X1070782Y505227D02*
X1073283Y502726D01*
X1017782Y507760D02*
X1057417D01*
X1060504Y504611D02*
Y504672D01*
Y504611D02*
X1061772Y503342D01*
X1057417Y507760D02*
X1060504Y504672D01*
X1056703Y506185D02*
X1061120Y501768D01*
X1056377Y504284D02*
X1060468Y500193D01*
X1055816Y502617D02*
X1059816Y498618D01*
X1106083Y505280D02*
X1106279Y505083D01*
X1110459Y493832D02*
X1111185Y493106D01*
X1112060D01*
X1114059D01*
X1114083Y493130D01*
Y497327D01*
X1110660Y495504D02*
Y499622D01*
X1110008Y500274D02*
X1110660Y499622D01*
X1106544Y500274D02*
X1110008D01*
X1106279Y500539D02*
X1106544Y500274D01*
X1106279Y500539D02*
Y505083D01*
X1103450Y497207D02*
X1104226Y497982D01*
X1108036D01*
X1108170Y497849D01*
X1102146Y500356D02*
Y505280D01*
X1095417Y500356D02*
X1102146D01*
X1096075Y498781D02*
X1102798D01*
X1093192Y500358D02*
X1094272Y501438D01*
Y505280D01*
X1090452Y498715D02*
X1093776D01*
X1095417Y500356D01*
X1089322Y497092D02*
X1094385D01*
X1096075Y498781D01*
X1088713Y493772D02*
X1095566D01*
X1097298Y495504D01*
X1110660D01*
X1084754Y495517D02*
X1095084D01*
X1096774Y497207D01*
X1103450D01*
X1104942Y469836D02*
X1105376Y468907D01*
X1098349Y492847D02*
Y492958D01*
X1091035Y500358D02*
X1093192D01*
X1084748Y503021D02*
X1088005D01*
X1089846Y499321D02*
X1090452Y498715D01*
X1072469Y493260D02*
X1074700Y495491D01*
X1081535Y507646D02*
X1082318Y508429D01*
X1083110Y503587D02*
Y505538D01*
X1084156Y506584D01*
X1088594D01*
X1090498Y500895D02*
X1091035Y500358D01*
X1090131Y500895D02*
X1090498D01*
X1088005Y503021D02*
X1090131Y500895D01*
X1088669Y497745D02*
X1089322Y497092D01*
X1084727Y495491D02*
X1084754Y495517D01*
X1074700Y495491D02*
X1084727D01*
X1085133D01*
X1088235Y471808D02*
Y493294D01*
X1088713Y493772D01*
X1068622Y497483D02*
Y497629D01*
X1067632Y498618D02*
X1068622Y497629D01*
X1059816Y498618D02*
X1067632D01*
X1071554Y497746D02*
X1071582D01*
X1069106Y500193D02*
X1071554Y497746D01*
X1060468Y500193D02*
X1069106D01*
X1072234Y499321D02*
X1089846D01*
X1069787Y501768D02*
X1072234Y499321D01*
X1061120Y501768D02*
X1069787D01*
X1070440Y503342D02*
X1072630Y501152D01*
X1061772Y503342D02*
X1070440D01*
X960265Y514921D02*
Y520379D01*
X961838Y521951D01*
X980621Y509921D02*
X989386D01*
X979745Y510797D02*
X980621Y509921D01*
X979745Y510797D02*
Y512796D01*
X977634Y509168D02*
X978284Y508519D01*
Y506259D02*
Y508519D01*
X1208351Y476546D02*
Y482830D01*
X947972Y535801D02*
X957608Y545437D01*
X947972Y526645D02*
Y535801D01*
X922322Y526314D02*
Y530021D01*
X921623Y530720D02*
X922322Y530021D01*
X934699Y528387D02*
Y529141D01*
X1121563Y502764D02*
X1122084Y502243D01*
X1121563Y502764D02*
Y508344D01*
X952147Y518071D02*
X971639Y537563D01*
X951495Y519646D02*
X970987Y539138D01*
X955466Y509168D02*
X977634D01*
X951382Y519646D02*
X951495D01*
X952034Y518071D02*
X952147D01*
X952687Y516496D02*
X952799D01*
X953913Y513269D02*
X953913D01*
X956417Y510765D01*
X953339Y514921D02*
X955087D01*
X926707Y512388D02*
X932362D01*
X949708Y522440D02*
X969555Y542287D01*
X953218Y511417D02*
X955466Y509168D01*
X950374Y520865D02*
X970222Y540713D01*
X951027Y519291D02*
X951382Y519646D01*
X951679Y517716D02*
X952034Y518071D01*
X952331Y516141D02*
X952687Y516496D01*
X952983Y514566D02*
X953339Y514921D01*
X953636Y512991D02*
X953913Y513269D01*
X924195Y514901D02*
X926707Y512388D01*
X929268Y514158D02*
X931906D01*
X926360Y517066D02*
X929268Y514158D01*
X923857Y517066D02*
X926360D01*
X937166Y503070D02*
X945513Y511417D01*
X953218D01*
X936333Y504465D02*
X944860Y512991D01*
X953636D01*
X935681Y506039D02*
X944208Y514566D01*
X952983D01*
X935029Y507614D02*
X943556Y516141D01*
X952331D01*
X934377Y509189D02*
X942903Y517716D01*
X951679D01*
X933724Y510764D02*
X942251Y519291D01*
X951027D01*
X932362Y512388D02*
X940840Y520865D01*
X950374D01*
X931906Y514158D02*
X940187Y522440D01*
X949708D01*
X945653Y524325D02*
X947972Y526645D01*
X939845Y524325D02*
X945653D01*
X931444Y515924D02*
X939845Y524325D01*
X929729Y515924D02*
X931444D01*
X927012Y518641D02*
X929729Y515924D01*
X925080Y518641D02*
X927012D01*
X922322Y521400D02*
X925080Y518641D01*
X922322Y521400D02*
Y526314D01*
X945733Y541939D02*
X950003Y546210D01*
X907720Y525979D02*
X912777Y520922D01*
X920001D01*
X923857Y517066D01*
X967746Y514921D02*
Y521215D01*
X960442Y524139D02*
X964822D01*
X952799Y516496D02*
X960442Y524139D01*
X964822D02*
X967746Y521215D01*
X921854Y498614D02*
X927705Y504465D01*
X936333D01*
X923429Y497688D02*
X928566Y502825D01*
X933019D01*
X934727Y498802D02*
X935527Y498002D01*
X933019Y502825D02*
X934727Y501117D01*
Y498802D02*
Y501117D01*
X919275Y491712D02*
X921854Y494291D01*
Y498614D01*
X923429Y493639D02*
Y497688D01*
X933152Y498150D02*
X933953Y497350D01*
X933152Y498150D02*
Y500441D01*
X932343Y501250D02*
X933152Y500441D01*
X929218Y501250D02*
X932343D01*
X925004Y497036D02*
X929218Y501250D01*
X925004Y492987D02*
Y497036D01*
X935527Y494055D02*
Y498002D01*
Y494055D02*
X940627Y488956D01*
X945081D01*
X933953Y493403D02*
Y497350D01*
Y493403D02*
X940148Y487207D01*
X945399D01*
X941523Y485459D02*
X946367D01*
X941349Y485632D02*
X941523Y485459D01*
X939496Y485632D02*
X941349D01*
X931578Y493551D02*
X939496Y485632D01*
X931578Y493551D02*
Y497763D01*
X930517Y498824D02*
X931578Y497763D01*
X928216Y493841D02*
X938305Y483752D01*
X928216Y493841D02*
Y497073D01*
X925062Y480439D02*
Y489370D01*
X1097532Y477247D02*
X1104942Y469836D01*
X1097532Y477247D02*
Y492029D01*
X1098349Y492847D01*
X1102602Y493832D02*
X1110459D01*
X1102170Y493399D02*
X1102602Y493832D01*
X1102170Y490410D02*
Y493399D01*
X1109692Y478973D02*
X1117171Y462935D01*
X1102170Y490410D02*
X1102170Y490410D01*
D11*
X1102185Y484198D02*
D03*
X1106909D02*
D03*
X985166Y506747D02*
D03*
X989890D02*
D03*
X1000933Y506747D02*
D03*
X996208D02*
D03*
X1114083Y497327D02*
D03*
X1118807D02*
D03*
X1102170Y490410D02*
D03*
X1106894D02*
D03*
X1222843Y490520D02*
D03*
X1218119D02*
D03*
X1218085Y478202D02*
D03*
X1222809D02*
D03*
X1144960Y460601D02*
D03*
X1140235D02*
D03*
X1145121Y453876D02*
D03*
X1140397D02*
D03*
X1144889Y447109D02*
D03*
X1140165D02*
D03*
X1217981Y502837D02*
D03*
X1222706Y502837D02*
D03*
X890372Y467336D02*
D03*
X895097Y467336D02*
D03*
X884942Y467313D02*
D03*
X880217Y467313D02*
D03*
X1067642Y519744D02*
D03*
X1062917D02*
D03*
X1093319Y546213D02*
D03*
X1088594D02*
D03*
X1132862Y463130D02*
D03*
X1128138D02*
D03*
X1222796Y484361D02*
D03*
X1218072D02*
D03*
X1222819Y496678D02*
D03*
X1218095Y496678D02*
D03*
X895114Y583531D02*
D03*
X890390D02*
D03*
D12*
X1156721Y453920D02*
D03*
Y459362D02*
D03*
Y448477D02*
D03*
D13*
X1154488Y520831D02*
D03*
Y542681D02*
D03*
D14*
X773556Y481072D02*
D03*
X791863D02*
D03*
D15*
X892130Y446225D02*
D03*
D16*
X891826Y596563D02*
D03*
D17*
X1084255Y459428D02*
D03*
X1070759Y451371D02*
D03*
D18*
X1084353Y580907D02*
D03*
X1070690Y588959D02*
D03*
D19*
X960265Y514921D02*
D03*
X967746D02*
D03*
X975226D02*
D03*
X920669Y465351D02*
D03*
X913188D02*
D03*
X905708D02*
D03*
D20*
X1130232Y525913D02*
D03*
Y530638D02*
D03*
X1141634Y551287D02*
D03*
Y546563D02*
D03*
X879390Y576528D02*
D03*
Y571803D02*
D03*
X1078386Y511937D02*
D03*
Y507213D02*
D03*
X822241Y470761D02*
D03*
Y475485D02*
D03*
X842256Y475483D02*
D03*
Y470759D02*
D03*
X835584Y470761D02*
D03*
Y475486D02*
D03*
X828913Y475486D02*
D03*
Y470761D02*
D03*
X1222453Y577280D02*
D03*
Y582004D02*
D03*
X1128660Y551287D02*
D03*
Y546563D02*
D03*
X817909Y569409D02*
D03*
Y574134D02*
D03*
X810634Y569417D02*
D03*
Y574142D02*
D03*
X804075Y574220D02*
D03*
Y569496D02*
D03*
X904654Y576740D02*
D03*
Y572016D02*
D03*
X1006794Y524007D02*
D03*
Y519282D02*
D03*
X1046826Y553504D02*
D03*
Y558228D02*
D03*
X976416Y527676D02*
D03*
Y522952D02*
D03*
X932905Y476810D02*
D03*
Y481534D02*
D03*
X926623Y481493D02*
D03*
Y476768D02*
D03*
D21*
X897449Y570232D02*
D03*
Y572791D02*
D03*
Y575350D02*
D03*
Y577909D02*
D03*
X887252Y570232D02*
D03*
Y572791D02*
D03*
Y575350D02*
D03*
Y577909D02*
D03*
D22*
X813863Y469930D02*
D03*
Y473670D02*
D03*
Y477411D02*
D03*
X805201Y469930D02*
D03*
Y477411D02*
D03*
D23*
X1131563Y451882D02*
D03*
Y446173D02*
D03*
X1117390D02*
D03*
Y451882D02*
D03*
D24*
X1208298Y491907D02*
D03*
X1208323Y486917D02*
D03*
Y481917D02*
D03*
Y496917D02*
D03*
X1181758Y496927D02*
D03*
Y491927D02*
D03*
Y486927D02*
D03*
Y481927D02*
D03*
D25*
X1201539Y544107D02*
D03*
Y512611D02*
D03*
X741838Y472222D02*
D03*
Y571041D02*
D03*
D26*
X1216165Y583035D02*
D03*
X1211244D02*
D03*
X1206323D02*
D03*
X1201402D02*
D03*
X1216165Y574374D02*
D03*
X1211244D02*
D03*
X1206323D02*
D03*
X1201402D02*
D03*
D27*
X784232Y575756D02*
D03*
Y569850D02*
D03*
X797614Y575622D02*
D03*
Y569717D02*
D03*
X790925Y575622D02*
D03*
Y569717D02*
D03*
D28*
X1114441Y482109D02*
D03*
X1121921D02*
D03*
X1118181Y490770D02*
D03*
X1059240Y562811D02*
D03*
X1062980Y554149D02*
D03*
X1055500D02*
D03*
D29*
X1054357Y519825D02*
D03*
X1046621Y519830D02*
D03*
X1038886Y519835D02*
D03*
X917720Y536004D02*
D03*
Y546004D02*
D03*
X917720Y556004D02*
D03*
X1148601Y470852D02*
D03*
D30*
X1119665Y510988D02*
D03*
Y512957D02*
D03*
Y514925D02*
D03*
Y516894D02*
D03*
Y518862D02*
D03*
Y520831D02*
D03*
Y522799D02*
D03*
Y524768D02*
D03*
Y526736D02*
D03*
Y528705D02*
D03*
Y530673D02*
D03*
Y532642D02*
D03*
X1086595D02*
D03*
Y530673D02*
D03*
Y528705D02*
D03*
Y526736D02*
D03*
Y524768D02*
D03*
Y522799D02*
D03*
Y520831D02*
D03*
Y518862D02*
D03*
Y516894D02*
D03*
Y514925D02*
D03*
Y512957D02*
D03*
Y510988D02*
D03*
D31*
X1113957Y538350D02*
D03*
X1111988D02*
D03*
X1110020D02*
D03*
X1108051D02*
D03*
X1106083D02*
D03*
X1104114D02*
D03*
X1102146D02*
D03*
X1100177D02*
D03*
X1098209D02*
D03*
X1096240D02*
D03*
X1094272D02*
D03*
X1092303D02*
D03*
Y505280D02*
D03*
X1094272D02*
D03*
X1096240D02*
D03*
X1098209D02*
D03*
X1100177D02*
D03*
X1102146D02*
D03*
X1104114D02*
D03*
X1106083D02*
D03*
X1108051D02*
D03*
X1110020D02*
D03*
X1111988D02*
D03*
X1113957D02*
D03*
D32*
X1135280Y565421D02*
D03*
X1138429D02*
D03*
X1141579D02*
D03*
X1147878D02*
D03*
X1144728D02*
D03*
D33*
X1124256D02*
D03*
Y587075D02*
D03*
X1158902D02*
D03*
Y565421D02*
D03*
D34*
X1129717Y520819D02*
D03*
Y516094D02*
D03*
Y511370D02*
D03*
D35*
X992212Y523246D02*
D03*
D36*
X1142159Y482082D02*
D03*
Y489562D02*
D03*
X1131530Y482082D02*
D03*
Y485822D02*
D03*
Y489562D02*
D03*
D37*
X987264Y515878D02*
D03*
Y530839D02*
D03*
X989233D02*
D03*
X991201D02*
D03*
X993170D02*
D03*
X995138D02*
D03*
Y515878D02*
D03*
X997107D02*
D03*
X993170D02*
D03*
X991201D02*
D03*
X989233D02*
D03*
X997107Y530839D02*
D03*
D38*
X984705Y520406D02*
D03*
Y518437D02*
D03*
Y522374D02*
D03*
Y524343D02*
D03*
Y526311D02*
D03*
Y528280D02*
D03*
X999666D02*
D03*
Y526311D02*
D03*
Y524343D02*
D03*
Y522374D02*
D03*
Y518437D02*
D03*
Y520406D02*
D03*
D39*
X1201762Y562500D02*
D03*
X1215069D02*
D03*
D40*
X1155841Y500531D02*
D03*
Y480847D02*
D03*
D41*
X1202955Y466880D02*
D03*
X1202955Y469447D02*
D03*
X1202955Y464311D02*
D03*
Y461742D02*
D03*
X1222620Y466854D02*
D03*
X1222619Y469454D02*
D03*
X1222620Y464301D02*
D03*
Y461732D02*
D03*
D42*
X956637Y537648D02*
D03*
X934708Y558554D02*
D03*
X941425Y551836D02*
D03*
X948143Y545119D02*
D03*
D43*
X942172Y497203D02*
D03*
X948890Y503921D02*
D03*
D44*
X1106217Y573310D02*
D03*
X1097607Y577325D02*
D03*
D45*
X1105876Y468194D02*
D03*
X1097266Y464179D02*
D03*
D46*
X889783Y475005D02*
D03*
X897263Y475005D02*
D03*
X889783Y483667D02*
D03*
X893523Y483667D02*
D03*
X897263Y483667D02*
D03*
D47*
X1155841Y500531D02*
X1156242Y500933D01*
X1153441Y478446D02*
X1155841Y480847D01*
X1148601Y470852D02*
Y470948D01*
X1217981Y502837D02*
X1218095Y502724D01*
X1213742Y499763D02*
X1218095D01*
Y496678D02*
Y502724D01*
X1154362Y535505D02*
Y542556D01*
X1154488Y542681D01*
X907720Y540914D02*
X930322D01*
D48*
X1158601Y470852D02*
X1162711D01*
X1166035Y474175D01*
X1166271Y474380D02*
X1174231Y482340D01*
X1153441Y475788D02*
Y478446D01*
X1148601Y470948D02*
X1153441Y475788D01*
X897720Y536004D02*
Y546004D01*
X890137Y536004D02*
X897720D01*
X897720Y496004D02*
X897720Y496004D01*
X890137Y522864D02*
Y536004D01*
X888862Y521589D02*
X890137Y522864D01*
X888862Y504862D02*
Y521589D01*
Y504862D02*
X897720Y496004D01*
X897720Y496004D02*
X917720D01*
X1194480Y544107D02*
X1201539D01*
X907720Y536004D02*
Y540914D01*
Y546004D01*
X1154488Y518772D02*
Y519091D01*
Y520831D01*
X1151883Y518772D02*
X1154168D01*
X1154488D01*
X1159320D01*
X1201539Y512611D02*
X1222368D01*
X1226923Y517166D01*
Y558305D01*
X1222728Y562500D02*
X1226923Y558305D01*
X1215069Y562500D02*
X1222728D01*
D49*
X1155713Y482270D02*
Y491800D01*
X1178753Y491777D01*
X747848Y472007D02*
X772529D01*
X1154488Y520831D02*
X1162148D01*
X1185424Y544107D01*
X1194480D01*
X1154168Y518772D02*
X1154488Y519091D01*
X1136943Y501546D02*
X1154168Y518772D01*
X928130Y537218D02*
X934293Y531054D01*
D50*
X927125Y537536D02*
X941425Y551836D01*
D51*
X1208302Y495740D02*
D03*
D52*
X1181769Y492130D02*
D03*
D53*
X814026Y487259D02*
D03*
D54*
X835918Y488432D02*
D03*
D55*
X761360Y472319D02*
D03*
D56*
X759845Y570975D02*
D03*
D57*
X1233068Y592835D02*
G03*
X1217579Y600111I-15664J-13221D01*
G01*
X1217591Y442672D02*
G03*
X1233080Y449948I-175J20497D01*
G01*
X880412Y611114D02*
G03*
X885495Y613312I-35534J89131D01*
G01*
X885527Y429516D02*
G03*
X880444Y431715I-40617J-86933D01*
G01*
X755095Y547005D02*
G03*
X755095Y547005I-6102J0D01*
G01*
Y495825D02*
G03*
X755095Y495825I-6102J0D01*
G01*
X873206D02*
G03*
X873206Y495825I-6102J0D01*
G01*
Y547005D02*
G03*
X873206Y547005I-6102J0D01*
G01*
X999188Y413147D02*
G03*
X999188Y413147I-6102J0D01*
G01*
X1066117Y348188D02*
G03*
X1066117Y348188I-6102J0D01*
G01*
X1188164Y462662D02*
G03*
X1188164Y462662I-6102J0D01*
G01*
X1188105Y579993D02*
G03*
X1188105Y579993I-6102J0D01*
G01*
X999187Y629683D02*
G03*
X999187Y629683I-6102J0D01*
G01*
X1066117Y694642D02*
G03*
X1066117Y694642I-6102J0D01*
G01*
X1166186Y600154D02*
X1217504D01*
X1099391D02*
X1166186D01*
X1016714Y329514D02*
X1020651Y324561D01*
X1012729Y334348D02*
X1016714Y329514D01*
X1008701Y339065D02*
X1012729Y334348D01*
X1004632Y343665D02*
X1008701Y339065D01*
X1000522Y348150D02*
X1004632Y343665D01*
X996375Y352521D02*
X1000522Y348150D01*
X992192Y356779D02*
X996375Y352521D01*
X987975Y360926D02*
X992192Y356779D01*
X983117Y365533D02*
X987975Y360926D01*
X978221Y369998D02*
X983117Y365533D01*
X973289Y374326D02*
X978221Y369998D01*
X968327Y378516D02*
X973289Y374326D01*
X963335Y382573D02*
X968327Y378516D01*
X958318Y386498D02*
X963335Y382573D01*
X953278Y390293D02*
X958318Y386498D01*
X948218Y393961D02*
X953278Y390293D01*
X943142Y397502D02*
X948218Y393961D01*
X939442Y399999D02*
X943142Y397502D01*
X935736Y402433D02*
X939442Y399999D01*
X932025Y404804D02*
X935736Y402433D01*
X928312Y407112D02*
X932025Y404804D01*
X924595Y409358D02*
X928312Y407112D01*
X920877Y411542D02*
X924595Y409358D01*
X917159Y413666D02*
X920877Y411542D01*
X914453Y415193D02*
X917159Y413666D01*
X773629Y459957D02*
X776585Y459591D01*
X770744Y460294D02*
X773629Y459957D01*
X767475Y460646D02*
X770744Y460294D01*
X764307Y460963D02*
X767475Y460646D01*
X761242Y461242D02*
X764307Y460963D01*
X758279Y461489D02*
X761242Y461242D01*
X755426Y461703D02*
X758279Y461489D01*
X752683Y461887D02*
X755426Y461703D01*
X750053Y462044D02*
X752683Y461887D01*
X747540Y462174D02*
X750053Y462044D01*
X745146Y462281D02*
X747540Y462174D01*
X742514Y462377D02*
X745146Y462281D01*
X740053Y462448D02*
X742514Y462377D01*
X737765Y462495D02*
X740053Y462448D01*
X735657Y462521D02*
X737765Y462495D01*
X733731Y462531D02*
X735657Y462521D01*
X731993Y462527D02*
X733731Y462531D01*
X730447Y462512D02*
X731993Y462527D01*
X729097Y462488D02*
X730447Y462512D01*
X727949Y462460D02*
X729097Y462488D01*
X727415Y462445D02*
X727949Y462460D01*
X726942Y462428D02*
X727415Y462445D01*
X726529Y462413D02*
X726942Y462428D01*
X726179Y462399D02*
X726529Y462413D01*
X725890Y462387D02*
X726179Y462399D01*
X725665Y462376D02*
X725890Y462387D01*
X725503Y462367D02*
X725665Y462376D01*
X725406Y462363D02*
X725503Y462367D01*
X725374Y462362D02*
X725406Y462363D01*
X725374Y462362D02*
Y580471D01*
X833536Y594757D02*
X840102Y596648D01*
X846768Y598697D01*
X853525Y600908D01*
X860365Y603286D01*
X865327Y605103D01*
X870324Y607011D01*
X875354Y609014D01*
X880412Y611114D01*
X885495Y613312D02*
X890602Y615612D01*
X895726Y618014D01*
X900866Y620523D01*
X906020Y623140D01*
X914414Y627750D01*
X917159Y629159D01*
X920877Y631283D01*
X924595Y633468D01*
X928312Y635712D01*
X932025Y638019D01*
X935736Y640390D01*
X939442Y642823D01*
X943142Y645322D01*
X948218Y648863D01*
X953278Y652531D01*
X958318Y656324D01*
X963335Y660249D01*
X968327Y664306D01*
X973289Y668497D01*
X978221Y672824D01*
X983117Y677290D01*
X987975Y681896D01*
X992192Y686044D01*
X996375Y690302D01*
X1000522Y694671D01*
X1004632Y699156D01*
X1008701Y703756D01*
X1012729Y708473D01*
X1016714Y713307D01*
X1020651Y718260D01*
X1099391D01*
X1060022Y659205D02*
X1099391Y718260D01*
X1058466Y656844D02*
X1060022Y659205D01*
X1057059Y654540D02*
X1058466Y656844D01*
X1055798Y652292D02*
X1057059Y654540D01*
X1054676Y650101D02*
X1055798Y652292D01*
X1053693Y647963D02*
X1054676Y650101D01*
X1052841Y645883D02*
X1053693Y647963D01*
X1052121Y643855D02*
X1052841Y645883D01*
X1051526Y641881D02*
X1052121Y643855D01*
X1050996Y639691D02*
X1051526Y641881D01*
X1050619Y637570D02*
X1050996Y639691D01*
X1050391Y635516D02*
X1050619Y637570D01*
X1050307Y633530D02*
X1050391Y635516D01*
X1050307Y633530D02*
X1050361Y631611D01*
X1050547Y629755D01*
X1050859Y627966D01*
X1051293Y626241D01*
X1051843Y624580D01*
X1052362Y623295D01*
X1052948Y622051D01*
X1053600Y620845D01*
X1054314Y619679D01*
X1055086Y618551D01*
X1055915Y617461D01*
X1057730Y615393D01*
X1059736Y613472D01*
X1061911Y611696D01*
X1063512Y610543D01*
X1067106Y608200D01*
X1066895Y608439D02*
X1068662Y607483D01*
X1070470Y606591D01*
X1072311Y605764D01*
X1074177Y604997D01*
X1076061Y604290D01*
X1077955Y603644D01*
X1080591Y602843D01*
X1083212Y602151D01*
X1085797Y601566D01*
X1088324Y601086D01*
X1090774Y600708D01*
X1093127Y600429D01*
X1095361Y600246D01*
X1097455Y600155D01*
X1099391Y600154D01*
X1232277Y593481D02*
X1233827Y591478D01*
X1235106Y589293D01*
X1236092Y586964D01*
X1236769Y584525D01*
X1237080Y582529D01*
X1237185Y580472D01*
Y462350D02*
Y580472D01*
X1228509Y446028D02*
X1230512Y447577D01*
X1226325Y444748D02*
X1228509Y446028D01*
X853493Y600910D02*
X860333Y603287D01*
X846736Y598698D02*
X853493Y600910D01*
X840070Y596650D02*
X846736Y598698D01*
X833504Y594758D02*
X840070Y596650D01*
X827048Y593015D02*
X833504Y594758D01*
X820708Y591417D02*
X827048Y593015D01*
X814494Y589955D02*
X820708Y591417D01*
X808415Y588625D02*
X814494Y589955D01*
X802480Y587422D02*
X808415Y588625D01*
X795641Y586150D02*
X802480Y587422D01*
X792308Y585573D02*
X795641Y586150D01*
X789033Y585035D02*
X792308Y585573D01*
X785818Y584533D02*
X789033Y585035D01*
X782665Y584068D02*
X785818Y584533D01*
X779575Y583636D02*
X782665Y584068D01*
X776553Y583237D02*
X779575Y583636D01*
X773597Y582871D02*
X776553Y583237D01*
X770712Y582536D02*
X773597Y582871D01*
X767443Y582182D02*
X770712Y582536D01*
X764275Y581867D02*
X767443Y582182D01*
X761210Y581586D02*
X764275Y581867D01*
X758247Y581339D02*
X761210Y581586D01*
X755394Y581126D02*
X758247Y581339D01*
X752651Y580942D02*
X755394Y581126D01*
X750021Y580785D02*
X752651Y580942D01*
X747508Y580654D02*
X750021Y580785D01*
X745114Y580547D02*
X747508Y580654D01*
X742482Y580451D02*
X745114Y580547D01*
X740021Y580380D02*
X742482Y580451D01*
X737733Y580333D02*
X740021Y580380D01*
X735625Y580307D02*
X737733Y580333D01*
X733699Y580297D02*
X735625Y580307D01*
X731961Y580301D02*
X733699Y580297D01*
X730415Y580318D02*
X731961Y580301D01*
X729065Y580342D02*
X730415Y580318D01*
X727917Y580369D02*
X729065Y580342D01*
X727384Y580386D02*
X727917Y580369D01*
X726910Y580403D02*
X727384Y580386D01*
X726497Y580418D02*
X726910Y580403D01*
X726147Y580433D02*
X726497Y580418D01*
X725858Y580446D02*
X726147Y580433D01*
X725634Y580457D02*
X725858Y580446D01*
X725471Y580465D02*
X725634Y580457D01*
X725374Y580471D02*
X725471Y580465D01*
X725342Y580472D02*
X725374Y580471D01*
X1237091Y460254D02*
X1237197Y462311D01*
X1236781Y458259D02*
X1237091Y460254D01*
X1236104Y455819D02*
X1236781Y458259D01*
X1235118Y453490D02*
X1236104Y455819D01*
X1233839Y451306D02*
X1235118Y453490D01*
X1232289Y449303D02*
X1233839Y451306D01*
X1217445Y599974D02*
X1219502Y599869D01*
X1221497Y599559D01*
X1223936Y598882D01*
X1226266Y597896D01*
X1228450Y596617D01*
X1230453Y595067D01*
X1232422Y593064D01*
X1234082Y590812D01*
X1235401Y588359D01*
X1236356Y585754D01*
X1236928Y583084D01*
X1237126Y580294D01*
X1237126Y462172D01*
X1237021Y460115D02*
X1237126Y462172D01*
X1236710Y458119D02*
X1237021Y460115D01*
X1236033Y455680D02*
X1236710Y458119D01*
X1235047Y453351D02*
X1236033Y455680D01*
X1233768Y451166D02*
X1235047Y453351D01*
X1232218Y449164D02*
X1233768Y451166D01*
X1230215Y447194D02*
X1232218Y449164D01*
X1227963Y445534D02*
X1230215Y447194D01*
X1166220Y599974D02*
X1217445D01*
X1095361Y442578D02*
X1097455Y442670D01*
X1093127Y442395D02*
X1095361Y442578D01*
X1090774Y442116D02*
X1093127Y442395D01*
X1088324Y441738D02*
X1090774Y442116D01*
X1085797Y441258D02*
X1088324Y441738D01*
X1083212Y440674D02*
X1085797Y441258D01*
X1080591Y439983D02*
X1083212Y440674D01*
X1077955Y439180D02*
X1080591Y439983D01*
X1097455Y442670D02*
X1168988D01*
X1020651Y324561D02*
X1099391Y324562D01*
X1076061Y438534D02*
X1077955Y439180D01*
X1074177Y437828D02*
X1076061Y438534D01*
X1072311Y437062D02*
X1074177Y437828D01*
X1070470Y436234D02*
X1072311Y437062D01*
X1068662Y435344D02*
X1070470Y436234D01*
X1066895Y434388D02*
X1068662Y435344D01*
X1065176Y433369D02*
X1066895Y434388D01*
X1063512Y432283D02*
X1065176Y433369D01*
X1061911Y431130D02*
X1063512Y432283D01*
X1059736Y429353D02*
X1061911Y431130D01*
X1057730Y427433D02*
X1059736Y429353D01*
X1055915Y425365D02*
X1057730Y427433D01*
X1055086Y424274D02*
X1055915Y425365D01*
X1054314Y423147D02*
X1055086Y424274D01*
X1053600Y421980D02*
X1054314Y423147D01*
X1052948Y420774D02*
X1053600Y421980D01*
X1052362Y419530D02*
X1052948Y420774D01*
X1051843Y418245D02*
X1052362Y419530D01*
X1051293Y416583D02*
X1051843Y418245D01*
X1050859Y414858D02*
X1051293Y416583D01*
X1050547Y413069D02*
X1050859Y414858D01*
X1050361Y411215D02*
X1050547Y413069D01*
X1050307Y409295D02*
X1050361Y411215D01*
X1050307Y409295D02*
X1050391Y407309D01*
X1050619Y405255D01*
X1050996Y403134D01*
X1051526Y400944D01*
X1052121Y398970D01*
X1052841Y396943D01*
X1053693Y394861D01*
X1054676Y392724D01*
X1055798Y390531D01*
X1057059Y388283D01*
X1058466Y385979D01*
X1060022Y383618D01*
X1099391Y324562D01*
X1146128Y442670D02*
X1217661D01*
X776585Y459591D02*
X779607Y459192D01*
X782697Y458760D01*
X785850Y458295D01*
X789065Y457794D01*
X792340Y457255D01*
X795673Y456678D01*
X802512Y455406D01*
X808447Y454203D01*
X814526Y452873D01*
X820740Y451412D01*
X827080Y449813D01*
X833536Y448070D01*
X840102Y446178D01*
X846768Y444130D01*
X853525Y441919D01*
X860365Y439541D01*
X906052Y419688D02*
X914446Y415078D01*
X900898Y422305D02*
X906052Y419688D01*
X895758Y424815D02*
X900898Y422305D01*
X890634Y427216D02*
X895758Y424815D01*
X885527Y429516D02*
X890634Y427216D01*
X875386Y433815D02*
X880444Y431715D01*
X870356Y435817D02*
X875386Y433815D01*
X865359Y437726D02*
X870356Y435817D01*
X860397Y439542D02*
X865359Y437726D01*
X853557Y441920D02*
X860397Y439542D01*
X846800Y444131D02*
X853557Y441920D01*
X840134Y446180D02*
X846800Y444131D01*
X833568Y448071D02*
X840134Y446180D01*
D58*
X1126148Y445484D02*
G03*
X1126148Y445484I-1671J0D01*
G01*
Y452571D02*
G03*
X1126148Y452571I-1671J0D01*
G01*
D59*
X907720Y496004D02*
D03*
Y506004D02*
D03*
Y516004D02*
D03*
X917720Y496004D02*
D03*
Y506004D02*
D03*
Y516004D02*
D03*
X897720Y496004D02*
D03*
Y506004D02*
D03*
Y516004D02*
D03*
X907720Y536004D02*
D03*
X897720D02*
D03*
X907720Y546004D02*
D03*
X897720D02*
D03*
X1115148Y594404D02*
D03*
X1085341Y597012D02*
D03*
X917720Y476004D02*
D03*
X907720D02*
D03*
Y486004D02*
D03*
X907720Y556004D02*
D03*
X897720D02*
D03*
X882961Y520748D02*
D03*
Y510748D02*
D03*
X1158601Y470852D02*
D03*
D60*
X907720Y526004D02*
D03*
X917720Y526004D02*
D03*
X897720Y526004D02*
D03*
X917720Y486004D02*
D03*
X882961Y530748D02*
D03*
D61*
X1153714Y499174D02*
D03*
X1160588Y502084D02*
D03*
X1158296D02*
D03*
X1156005Y499174D02*
D03*
Y502084D02*
D03*
X1153714D02*
D03*
X1160588Y499174D02*
D03*
X1158296D02*
D03*
X1151423Y502084D02*
D03*
Y499174D02*
D03*
X1174231Y482340D02*
D03*
X1151301Y479359D02*
D03*
Y482270D02*
D03*
X1158175Y479359D02*
D03*
X1160466D02*
D03*
X1153592Y482270D02*
D03*
X1155884D02*
D03*
Y479359D02*
D03*
X1158175Y482270D02*
D03*
X1160466D02*
D03*
X1153592Y479359D02*
D03*
X1134194Y501096D02*
D03*
X1136075Y503010D02*
D03*
X1137957Y504924D02*
D03*
X1141719Y508752D02*
D03*
X1139838Y506838D02*
D03*
X1138467Y500620D02*
D03*
X1136586Y498706D02*
D03*
X1140348Y502534D02*
D03*
X1142229Y504448D02*
D03*
X1144110Y506362D02*
D03*
X1117084Y545334D02*
D03*
X1110629Y545426D02*
D03*
X1115339Y558502D02*
D03*
X807079Y487380D02*
D03*
X807052Y490269D02*
D03*
X807066Y481601D02*
D03*
Y484491D02*
D03*
X807061Y493159D02*
D03*
X809951Y493150D02*
D03*
X809955Y484482D02*
D03*
Y481593D02*
D03*
X809941Y490260D02*
D03*
X809968Y487371D02*
D03*
X812840Y493176D02*
D03*
X812844Y484509D02*
D03*
Y481619D02*
D03*
X812831Y490287D02*
D03*
X812858Y487398D02*
D03*
X815729Y493163D02*
D03*
X815733Y484495D02*
D03*
X815720Y490274D02*
D03*
X815747Y487384D02*
D03*
X1101789Y585848D02*
D03*
X928216Y497073D02*
D03*
X930517Y498824D02*
D03*
X959256Y540024D02*
D03*
X956497Y537211D02*
D03*
X987039Y535398D02*
D03*
X891243Y573753D02*
D03*
X883326Y579507D02*
D03*
X804190Y487393D02*
D03*
X804163Y490283D02*
D03*
X804176Y481615D02*
D03*
Y484504D02*
D03*
X804172Y493172D02*
D03*
X801301Y487367D02*
D03*
X801274Y490256D02*
D03*
X801287Y481588D02*
D03*
Y484477D02*
D03*
X801283Y493145D02*
D03*
X798393Y493154D02*
D03*
X798398Y484486D02*
D03*
Y481597D02*
D03*
X798385Y490265D02*
D03*
X798411Y487376D02*
D03*
X912946Y501476D02*
D03*
X885442Y485189D02*
D03*
X924195Y514901D02*
D03*
X887614Y446072D02*
D03*
X889242Y450001D02*
D03*
X892021Y451153D02*
D03*
X887137Y439363D02*
D03*
X885986Y442142D02*
D03*
X884835Y444920D02*
D03*
X883684Y447699D02*
D03*
X895474Y442816D02*
D03*
X894323Y445595D02*
D03*
X893172Y448374D02*
D03*
X892695Y441665D02*
D03*
X891544Y444444D02*
D03*
X890393Y447223D02*
D03*
X889916Y440514D02*
D03*
X888765Y443293D02*
D03*
X886463Y448850D02*
D03*
X898253Y443967D02*
D03*
X901032Y445118D02*
D03*
X895951Y449525D02*
D03*
X897102Y446746D02*
D03*
X899881Y447897D02*
D03*
X898730Y450676D02*
D03*
X897579Y453455D02*
D03*
X894800Y452304D02*
D03*
X1135677Y484901D02*
D03*
X1096835Y532647D02*
D03*
X1096063Y512563D02*
D03*
X1125621Y506396D02*
D03*
X1208269Y476546D02*
D03*
X1112370Y518743D02*
D03*
X991147Y511944D02*
D03*
X1002847Y514667D02*
D03*
X1089623Y508618D02*
D03*
X1101563Y531528D02*
D03*
X1109390Y531779D02*
D03*
X1097050Y529557D02*
D03*
X1094175Y526982D02*
D03*
X1096793Y524708D02*
D03*
X1105413Y531528D02*
D03*
X1108350Y527961D02*
D03*
X1113063Y512815D02*
D03*
X1147583Y530106D02*
D03*
X1136312Y523263D02*
D03*
X1136587Y527228D02*
D03*
X1083315Y550098D02*
D03*
X1078610Y548134D02*
D03*
X1077323Y558532D02*
D03*
X1074890Y547079D02*
D03*
X1074630Y555839D02*
D03*
X961815Y521974D02*
D03*
X1068622Y497483D02*
D03*
X1071572Y495425D02*
D03*
X1103606Y545612D02*
D03*
X1109831Y562063D02*
D03*
X1005172Y528221D02*
D03*
X1017479Y507457D02*
D03*
X1088488Y550630D02*
D03*
X1065894Y512055D02*
D03*
X1062689Y510004D02*
D03*
X1065969Y507539D02*
D03*
X1062669Y505508D02*
D03*
X1017478Y513198D02*
D03*
X1022424Y514537D02*
D03*
X1025011Y512589D02*
D03*
X1028907Y512690D02*
D03*
X1110538Y558748D02*
D03*
X873835Y576528D02*
D03*
X923416Y552648D02*
D03*
X902564Y563967D02*
D03*
X901844Y567523D02*
D03*
X731563Y576807D02*
D03*
X734571D02*
D03*
X743595D02*
D03*
X740587D02*
D03*
X737579D02*
D03*
X752618D02*
D03*
X749610D02*
D03*
X746602D02*
D03*
X764650D02*
D03*
X761642D02*
D03*
X758634D02*
D03*
X755626D02*
D03*
Y564776D02*
D03*
X758634D02*
D03*
X761642D02*
D03*
X764650D02*
D03*
X746602D02*
D03*
X749610D02*
D03*
X752618D02*
D03*
X737579D02*
D03*
X740587D02*
D03*
X743595D02*
D03*
X734571D02*
D03*
X731563D02*
D03*
X755626Y573799D02*
D03*
X758634D02*
D03*
X761642D02*
D03*
X764650D02*
D03*
X746602D02*
D03*
X749610D02*
D03*
X752618D02*
D03*
X737579D02*
D03*
X740587D02*
D03*
X743595D02*
D03*
X734571D02*
D03*
X731563D02*
D03*
X755626Y570791D02*
D03*
X758634D02*
D03*
X761642D02*
D03*
X764650D02*
D03*
X746602D02*
D03*
X749610D02*
D03*
X752618D02*
D03*
X737579D02*
D03*
X740587D02*
D03*
X743595D02*
D03*
X734571D02*
D03*
X731563D02*
D03*
X755626Y567783D02*
D03*
X758634D02*
D03*
X761642D02*
D03*
X764650D02*
D03*
X746602D02*
D03*
X749610D02*
D03*
X752618D02*
D03*
X737579D02*
D03*
X740587D02*
D03*
X743595D02*
D03*
X734571D02*
D03*
X731563D02*
D03*
X731445Y469012D02*
D03*
X734453D02*
D03*
X743476D02*
D03*
X740469D02*
D03*
X737461D02*
D03*
X752500D02*
D03*
X749492D02*
D03*
X746484D02*
D03*
X764532D02*
D03*
X761524D02*
D03*
X758516D02*
D03*
X755508D02*
D03*
X731445Y472020D02*
D03*
X734453D02*
D03*
X743476D02*
D03*
X740469D02*
D03*
X737461D02*
D03*
X752500D02*
D03*
X749492D02*
D03*
X746484D02*
D03*
X764532D02*
D03*
X761524D02*
D03*
X758516D02*
D03*
X755508D02*
D03*
X731445Y475028D02*
D03*
X734453D02*
D03*
X743476D02*
D03*
X740469D02*
D03*
X737461D02*
D03*
X752500D02*
D03*
X749492D02*
D03*
X746484D02*
D03*
X764532D02*
D03*
X761524D02*
D03*
X758516D02*
D03*
X755508D02*
D03*
X731445Y466004D02*
D03*
X734453D02*
D03*
X743476D02*
D03*
X740469D02*
D03*
X737461D02*
D03*
X752500D02*
D03*
X749492D02*
D03*
X746484D02*
D03*
X764532D02*
D03*
X761524D02*
D03*
X758516D02*
D03*
X755508D02*
D03*
Y478035D02*
D03*
X758516D02*
D03*
X761524D02*
D03*
X764532D02*
D03*
X746484D02*
D03*
X749492D02*
D03*
X752500D02*
D03*
X737461D02*
D03*
X740469D02*
D03*
X743476D02*
D03*
X734453D02*
D03*
X731445D02*
D03*
X980449Y507539D02*
D03*
X897575Y598955D02*
D03*
X900354Y597804D02*
D03*
X899203Y595025D02*
D03*
X898051Y592246D02*
D03*
X895273Y593397D02*
D03*
X896424Y596176D02*
D03*
X896900Y589467D02*
D03*
X894121Y590619D02*
D03*
X889238Y602408D02*
D03*
X888087Y599629D02*
D03*
X886936Y596850D02*
D03*
X885785Y594072D02*
D03*
X890866Y598478D02*
D03*
X889715Y595699D02*
D03*
X888564Y592920D02*
D03*
X893645Y597327D02*
D03*
X892494Y594548D02*
D03*
X891343Y591770D02*
D03*
X886459Y603559D02*
D03*
X885308Y600780D02*
D03*
X884157Y598002D02*
D03*
X883006Y595223D02*
D03*
X894796Y600106D02*
D03*
X892017Y601257D02*
D03*
X1068646Y595118D02*
D03*
X1069917Y597844D02*
D03*
X1072643Y596573D02*
D03*
X1075369Y595302D02*
D03*
X1074098Y592576D02*
D03*
X1071372Y593847D02*
D03*
X1078095Y594031D02*
D03*
X1076824Y591304D02*
D03*
X1064832Y586940D02*
D03*
X1067558Y585669D02*
D03*
X1070284Y584398D02*
D03*
X1073010Y583126D02*
D03*
X1068829Y588395D02*
D03*
X1071556Y587124D02*
D03*
X1074282Y585852D02*
D03*
X1070101Y591121D02*
D03*
X1072827Y589850D02*
D03*
X1075553Y588579D02*
D03*
X1063561Y584214D02*
D03*
X1066287Y582943D02*
D03*
X1069013Y581671D02*
D03*
X1071739Y580400D02*
D03*
X1067375Y592392D02*
D03*
X1066103Y589666D02*
D03*
X1082017Y586519D02*
D03*
X1083288Y589245D02*
D03*
X1086014Y587974D02*
D03*
X1088740Y586703D02*
D03*
X1087469Y583977D02*
D03*
X1084743Y585248D02*
D03*
X1091466Y585432D02*
D03*
X1090195Y582706D02*
D03*
X1078203Y578341D02*
D03*
X1080929Y577070D02*
D03*
X1083655Y575799D02*
D03*
X1086381Y574528D02*
D03*
X1082200Y579796D02*
D03*
X1084926Y578525D02*
D03*
X1087652Y577254D02*
D03*
X1083471Y582522D02*
D03*
X1086197Y581251D02*
D03*
X1088924Y579980D02*
D03*
X1076932Y575615D02*
D03*
X1079658Y574344D02*
D03*
X1082384Y573073D02*
D03*
X1085110Y571802D02*
D03*
X1080745Y583793D02*
D03*
X1079474Y581067D02*
D03*
X1064792Y453387D02*
D03*
X1063521Y456113D02*
D03*
X1066247Y457384D02*
D03*
X1068973Y458656D02*
D03*
X1070244Y455930D02*
D03*
X1067518Y454659D02*
D03*
X1071699Y459927D02*
D03*
X1072970Y457201D02*
D03*
X1068605Y445209D02*
D03*
X1071331Y446480D02*
D03*
X1074057Y447752D02*
D03*
X1076783Y449023D02*
D03*
X1070060Y449206D02*
D03*
X1072786Y450478D02*
D03*
X1075512Y451749D02*
D03*
X1068789Y451932D02*
D03*
X1071515Y453203D02*
D03*
X1074241Y454475D02*
D03*
X1075329Y445025D02*
D03*
X1078055Y446297D02*
D03*
X1066063Y450661D02*
D03*
X1067334Y447935D02*
D03*
X1078204Y461627D02*
D03*
X1076933Y464353D02*
D03*
X1079659Y465624D02*
D03*
X1082385Y466895D02*
D03*
X1083656Y464169D02*
D03*
X1080930Y462898D02*
D03*
X1085111Y468167D02*
D03*
X1086382Y465441D02*
D03*
X1082018Y453449D02*
D03*
X1084744Y454720D02*
D03*
X1087470Y455991D02*
D03*
X1090196Y457263D02*
D03*
X1083472Y457446D02*
D03*
X1086198Y458717D02*
D03*
X1088925Y459988D02*
D03*
X1082201Y460172D02*
D03*
X1084927Y461443D02*
D03*
X1087653Y462714D02*
D03*
X1083289Y450723D02*
D03*
X1086015Y451994D02*
D03*
X1088741Y453265D02*
D03*
X1091467Y454536D02*
D03*
X1079475Y458901D02*
D03*
X1080746Y456175D02*
D03*
X1124191Y576763D02*
D03*
X1158933Y576331D02*
D03*
X1134635Y516063D02*
D03*
X891864Y578871D02*
D03*
X803957Y565665D02*
D03*
X1211032Y464482D02*
D03*
X1142640Y485368D02*
D03*
X1075031Y506783D02*
D03*
X1088487Y538366D02*
D03*
X1071455Y518331D02*
D03*
X1088691Y541679D02*
D03*
X1009758Y507584D02*
D03*
X1009689Y512623D02*
D03*
X1031422Y498775D02*
D03*
X1144972Y528264D02*
D03*
X1117411Y504066D02*
D03*
X1124008Y503381D02*
D03*
X1141966Y535583D02*
D03*
X1130011D02*
D03*
X1067334Y553930D02*
D03*
X1069876Y442483D02*
D03*
X1072602Y443754D02*
D03*
X1004757Y508468D02*
D03*
X1206347Y587550D02*
D03*
X1226713Y577437D02*
D03*
X1132646Y568911D02*
D03*
X1054128Y498820D02*
D03*
X1017510Y510297D02*
D03*
X1031248Y509930D02*
D03*
X1002103Y531975D02*
D03*
X1009786Y528041D02*
D03*
X987144Y512346D02*
D03*
X989749Y525647D02*
D03*
X989781Y520817D02*
D03*
X994742Y520654D02*
D03*
X994709Y525419D02*
D03*
X971595Y523039D02*
D03*
X995139Y533782D02*
D03*
X984818Y533303D02*
D03*
X979745Y512796D02*
D03*
X885362Y494408D02*
D03*
X903601Y490103D02*
D03*
X890181Y493007D02*
D03*
X861169Y468095D02*
D03*
X870103Y468145D02*
D03*
X846636Y475500D02*
D03*
X852850Y475500D02*
D03*
X1210418Y469457D02*
D03*
X1213742Y499863D02*
D03*
X1196634Y562555D02*
D03*
X1154362Y535505D02*
D03*
X1112060Y493106D02*
D03*
X1111014Y485484D02*
D03*
X1107060Y575422D02*
D03*
X1105738Y571788D02*
D03*
X1097981Y578773D02*
D03*
X1096842Y575505D02*
D03*
X943762Y495835D02*
D03*
X940989Y498406D02*
D03*
X950455Y502812D02*
D03*
X947682Y505382D02*
D03*
X1096592Y465813D02*
D03*
X1098226Y462309D02*
D03*
X1105104Y469911D02*
D03*
X1106738Y466407D02*
D03*
X892983Y542435D02*
D03*
X890980Y553635D02*
D03*
X937232Y561194D02*
D03*
X934165Y558127D02*
D03*
X943929Y554548D02*
D03*
X941425Y551836D02*
D03*
X948143Y545119D02*
D03*
X950728Y547545D02*
D03*
X924965Y489420D02*
D03*
X815733Y481606D02*
D03*
X818618Y493154D02*
D03*
X818623Y484486D02*
D03*
Y481597D02*
D03*
X818609Y490265D02*
D03*
X818636Y487375D02*
D03*
X821508Y493181D02*
D03*
X821512Y484513D02*
D03*
Y481624D02*
D03*
X821499Y490291D02*
D03*
X821525Y487402D02*
D03*
X833082Y487393D02*
D03*
X833056Y490282D02*
D03*
X833065Y493172D02*
D03*
X830193Y487406D02*
D03*
X830166Y490296D02*
D03*
X830180Y481628D02*
D03*
Y484517D02*
D03*
X830175Y493185D02*
D03*
X827304Y487380D02*
D03*
X827277Y490269D02*
D03*
X827291Y481601D02*
D03*
Y484490D02*
D03*
X827286Y493158D02*
D03*
X824397Y493167D02*
D03*
X824401Y484500D02*
D03*
Y481610D02*
D03*
X824388Y490278D02*
D03*
X824415Y487389D02*
D03*
X835972Y487380D02*
D03*
X835945Y490269D02*
D03*
X835958Y484490D02*
D03*
X835954Y493158D02*
D03*
X838843Y493149D02*
D03*
X838848Y484481D02*
D03*
X838834Y490260D02*
D03*
X838861Y487371D02*
D03*
X841732Y493176D02*
D03*
X841737Y484508D02*
D03*
X841723Y490287D02*
D03*
X841750Y487397D02*
D03*
X844622Y493163D02*
D03*
X844626Y484495D02*
D03*
X844613Y490273D02*
D03*
X844639Y487384D02*
D03*
X833069Y484504D02*
D03*
X911612Y571988D02*
D03*
X1168972Y525268D02*
D03*
X1108170Y497849D02*
D03*
X1097179Y521017D02*
D03*
X1109366Y518743D02*
D03*
X1098349Y492847D02*
D03*
X934699Y528387D02*
D03*
X932689Y530165D02*
D03*
X930679Y531944D02*
D03*
X926659Y535500D02*
D03*
X928669Y533722D02*
D03*
X934951Y532679D02*
D03*
X936961Y530900D02*
D03*
X932941Y534457D02*
D03*
X930931Y536236D02*
D03*
X928921Y538014D02*
D03*
X930943Y519058D02*
D03*
X932713Y520781D02*
D03*
M02*
