%FSLAX25Y25*%
%MOIN*%
G70*
G01*
G75*
G04 Layer_Color=32896*
%ADD10C,0.00787*%
%ADD11R,0.03150X0.03937*%
%ADD12R,0.11811X0.03937*%
%ADD13R,0.13780X0.09646*%
%ADD14R,0.09488X0.26378*%
G04:AMPARAMS|DCode=15|XSize=196.85mil|YSize=118.11mil|CornerRadius=0mil|HoleSize=0mil|Usage=FLASHONLY|Rotation=22.500|XOffset=0mil|YOffset=0mil|HoleType=Round|Shape=Rectangle|*
%AMROTATEDRECTD15*
4,1,4,-0.06833,-0.09222,-0.11353,0.01689,0.06833,0.09222,0.11353,-0.01689,-0.06833,-0.09222,0.0*
%
%ADD15ROTATEDRECTD15*%

G04:AMPARAMS|DCode=16|XSize=196.85mil|YSize=118.11mil|CornerRadius=0mil|HoleSize=0mil|Usage=FLASHONLY|Rotation=337.500|XOffset=0mil|YOffset=0mil|HoleType=Round|Shape=Rectangle|*
%AMROTATEDRECTD16*
4,1,4,-0.11353,-0.01689,-0.06833,0.09222,0.11353,0.01689,0.06833,-0.09222,-0.11353,-0.01689,0.0*
%
%ADD16ROTATEDRECTD16*%

G04:AMPARAMS|DCode=17|XSize=196.85mil|YSize=118.11mil|CornerRadius=0mil|HoleSize=0mil|Usage=FLASHONLY|Rotation=115.000|XOffset=0mil|YOffset=0mil|HoleType=Round|Shape=Rectangle|*
%AMROTATEDRECTD17*
4,1,4,0.09512,-0.06425,-0.01193,-0.11416,-0.09512,0.06425,0.01193,0.11416,0.09512,-0.06425,0.0*
%
%ADD17ROTATEDRECTD17*%

G04:AMPARAMS|DCode=18|XSize=196.85mil|YSize=118.11mil|CornerRadius=0mil|HoleSize=0mil|Usage=FLASHONLY|Rotation=65.000|XOffset=0mil|YOffset=0mil|HoleType=Round|Shape=Rectangle|*
%AMROTATEDRECTD18*
4,1,4,0.01193,-0.11416,-0.09512,-0.06425,-0.01193,0.11416,0.09512,0.06425,0.01193,-0.11416,0.0*
%
%ADD18ROTATEDRECTD18*%

%ADD19R,0.05118X0.05906*%
%ADD20R,0.03937X0.03150*%
%ADD21R,0.03898X0.01890*%
%ADD22R,0.04173X0.02559*%
%ADD23R,0.05512X0.04134*%
%ADD24R,0.06890X0.02559*%
%ADD25R,0.23622X0.15748*%
%ADD26R,0.02362X0.04331*%
%ADD27R,0.03150X0.03150*%
%ADD28R,0.03347X0.05118*%
%ADD29R,0.05906X0.05906*%
%ADD30O,0.07480X0.01181*%
%ADD31O,0.01181X0.07480*%
%ADD32R,0.01969X0.09843*%
%ADD33R,0.07874X0.09843*%
%ADD34R,0.05118X0.01575*%
%ADD35R,0.07874X0.07874*%
%ADD36R,0.03937X0.02165*%
%ADD37R,0.00984X0.02756*%
%ADD38R,0.02756X0.00984*%
%ADD39R,0.05000X0.05787*%
%ADD40R,0.13386X0.05315*%
%ADD41R,0.05906X0.01614*%
G04:AMPARAMS|DCode=42|XSize=118.11mil|YSize=59.06mil|CornerRadius=0mil|HoleSize=0mil|Usage=FLASHONLY|Rotation=225.000|XOffset=0mil|YOffset=0mil|HoleType=Round|Shape=Rectangle|*
%AMROTATEDRECTD42*
4,1,4,0.02088,0.06264,0.06264,0.02088,-0.02088,-0.06264,-0.06264,-0.02088,0.02088,0.06264,0.0*
%
%ADD42ROTATEDRECTD42*%

G04:AMPARAMS|DCode=43|XSize=118.11mil|YSize=59.06mil|CornerRadius=0mil|HoleSize=0mil|Usage=FLASHONLY|Rotation=135.000|XOffset=0mil|YOffset=0mil|HoleType=Round|Shape=Rectangle|*
%AMROTATEDRECTD43*
4,1,4,0.06264,-0.02088,0.02088,-0.06264,-0.06264,0.02088,-0.02088,0.06264,0.06264,-0.02088,0.0*
%
%ADD43ROTATEDRECTD43*%

G04:AMPARAMS|DCode=44|XSize=118.11mil|YSize=59.06mil|CornerRadius=0mil|HoleSize=0mil|Usage=FLASHONLY|Rotation=245.000|XOffset=0mil|YOffset=0mil|HoleType=Round|Shape=Rectangle|*
%AMROTATEDRECTD44*
4,1,4,-0.00180,0.06600,0.05172,0.04104,0.00180,-0.06600,-0.05172,-0.04104,-0.00180,0.06600,0.0*
%
%ADD44ROTATEDRECTD44*%

G04:AMPARAMS|DCode=45|XSize=118.11mil|YSize=59.06mil|CornerRadius=0mil|HoleSize=0mil|Usage=FLASHONLY|Rotation=295.000|XOffset=0mil|YOffset=0mil|HoleType=Round|Shape=Rectangle|*
%AMROTATEDRECTD45*
4,1,4,-0.05172,0.04104,0.00180,0.06600,0.05172,-0.04104,-0.00180,-0.06600,-0.05172,0.04104,0.0*
%
%ADD45ROTATEDRECTD45*%

%ADD46R,0.02559X0.04173*%
%ADD47C,0.01969*%
%ADD48C,0.03937*%
%ADD49C,0.07874*%
%ADD50C,0.05906*%
%ADD51R,0.06869X0.26570*%
%ADD52R,0.06892X0.11504*%
%ADD53R,0.37657X0.14030*%
%ADD54R,0.23424X0.11604*%
%ADD55R,0.15927X0.15830*%
%ADD56R,0.14344X0.15856*%
%ADD57C,0.00394*%
%ADD58C,0.00197*%
%ADD59C,0.05906*%
%ADD60R,0.05906X0.05906*%
%ADD61C,0.01969*%
%ADD62R,0.36038X0.16300*%
%ADD63C,0.01000*%
%ADD64C,0.01181*%
%ADD65C,0.00984*%
%ADD66C,0.02362*%
%ADD67C,0.00039*%
%ADD68R,0.03937X0.03937*%
%ADD69R,0.04309X0.09978*%
%ADD70R,0.04309X0.09978*%
%ADD71R,0.11596X0.03568*%
%ADD72R,0.03568X0.11596*%
%ADD73R,0.03618X0.11596*%
%ADD74R,0.11596X0.03583*%
%ADD75R,0.03950X0.04737*%
%ADD76R,0.12611X0.04737*%
%ADD77R,0.14579X0.10446*%
%ADD78R,0.10288X0.27178*%
G04:AMPARAMS|DCode=79|XSize=204.85mil|YSize=126.11mil|CornerRadius=0mil|HoleSize=0mil|Usage=FLASHONLY|Rotation=22.500|XOffset=0mil|YOffset=0mil|HoleType=Round|Shape=Rectangle|*
%AMROTATEDRECTD79*
4,1,4,-0.07050,-0.09745,-0.11876,0.01906,0.07050,0.09745,0.11876,-0.01906,-0.07050,-0.09745,0.0*
%
%ADD79ROTATEDRECTD79*%

G04:AMPARAMS|DCode=80|XSize=204.85mil|YSize=126.11mil|CornerRadius=0mil|HoleSize=0mil|Usage=FLASHONLY|Rotation=337.500|XOffset=0mil|YOffset=0mil|HoleType=Round|Shape=Rectangle|*
%AMROTATEDRECTD80*
4,1,4,-0.11876,-0.01906,-0.07050,0.09745,0.11876,0.01906,0.07050,-0.09745,-0.11876,-0.01906,0.0*
%
%ADD80ROTATEDRECTD80*%

G04:AMPARAMS|DCode=81|XSize=204.85mil|YSize=126.11mil|CornerRadius=0mil|HoleSize=0mil|Usage=FLASHONLY|Rotation=115.000|XOffset=0mil|YOffset=0mil|HoleType=Round|Shape=Rectangle|*
%AMROTATEDRECTD81*
4,1,4,0.10043,-0.06618,-0.01386,-0.11948,-0.10043,0.06618,0.01386,0.11948,0.10043,-0.06618,0.0*
%
%ADD81ROTATEDRECTD81*%

G04:AMPARAMS|DCode=82|XSize=204.85mil|YSize=126.11mil|CornerRadius=0mil|HoleSize=0mil|Usage=FLASHONLY|Rotation=65.000|XOffset=0mil|YOffset=0mil|HoleType=Round|Shape=Rectangle|*
%AMROTATEDRECTD82*
4,1,4,0.01386,-0.11948,-0.10043,-0.06618,-0.01386,0.11948,0.10043,0.06618,0.01386,-0.11948,0.0*
%
%ADD82ROTATEDRECTD82*%

%ADD83R,0.05918X0.06706*%
%ADD84R,0.04737X0.03950*%
%ADD85R,0.04973X0.03359*%
%ADD86R,0.06312X0.04934*%
%ADD87R,0.07690X0.03359*%
%ADD88R,0.24422X0.16548*%
%ADD89R,0.03162X0.05131*%
%ADD90R,0.03950X0.03950*%
%ADD91R,0.04147X0.05918*%
%ADD92R,0.06706X0.06706*%
%ADD93O,0.08280X0.01981*%
%ADD94O,0.01981X0.08280*%
%ADD95R,0.02769X0.10642*%
%ADD96R,0.08674X0.10642*%
%ADD97R,0.05918X0.02375*%
%ADD98R,0.08674X0.08674*%
%ADD99R,0.04737X0.02965*%
%ADD100R,0.01784X0.03556*%
%ADD101R,0.03556X0.01784*%
%ADD102R,0.05800X0.06587*%
%ADD103R,0.14186X0.06115*%
%ADD104R,0.06706X0.02414*%
G04:AMPARAMS|DCode=105|XSize=126.11mil|YSize=67.06mil|CornerRadius=0mil|HoleSize=0mil|Usage=FLASHONLY|Rotation=225.000|XOffset=0mil|YOffset=0mil|HoleType=Round|Shape=Rectangle|*
%AMROTATEDRECTD105*
4,1,4,0.02088,0.06829,0.06829,0.02088,-0.02088,-0.06829,-0.06829,-0.02088,0.02088,0.06829,0.0*
%
%ADD105ROTATEDRECTD105*%

G04:AMPARAMS|DCode=106|XSize=126.11mil|YSize=67.06mil|CornerRadius=0mil|HoleSize=0mil|Usage=FLASHONLY|Rotation=135.000|XOffset=0mil|YOffset=0mil|HoleType=Round|Shape=Rectangle|*
%AMROTATEDRECTD106*
4,1,4,0.06829,-0.02088,0.02088,-0.06829,-0.06829,0.02088,-0.02088,0.06829,0.06829,-0.02088,0.0*
%
%ADD106ROTATEDRECTD106*%

G04:AMPARAMS|DCode=107|XSize=126.11mil|YSize=67.06mil|CornerRadius=0mil|HoleSize=0mil|Usage=FLASHONLY|Rotation=245.000|XOffset=0mil|YOffset=0mil|HoleType=Round|Shape=Rectangle|*
%AMROTATEDRECTD107*
4,1,4,-0.00374,0.07132,0.05704,0.04298,0.00374,-0.07132,-0.05704,-0.04298,-0.00374,0.07132,0.0*
%
%ADD107ROTATEDRECTD107*%

G04:AMPARAMS|DCode=108|XSize=126.11mil|YSize=67.06mil|CornerRadius=0mil|HoleSize=0mil|Usage=FLASHONLY|Rotation=295.000|XOffset=0mil|YOffset=0mil|HoleType=Round|Shape=Rectangle|*
%AMROTATEDRECTD108*
4,1,4,-0.05704,0.04298,0.00374,0.07132,0.05704,-0.04298,-0.00374,-0.07132,-0.05704,0.04298,0.0*
%
%ADD108ROTATEDRECTD108*%

%ADD109R,0.03359X0.04973*%
%ADD110C,0.00800*%
%ADD111C,0.06706*%
%ADD112R,0.06706X0.06706*%
G36*
X998618Y487572D02*
X997306D01*
Y486260D01*
X986811D01*
Y487572D01*
X985500D01*
Y499378D01*
X988123D01*
Y491507D01*
X990747D01*
Y495443D01*
X993371D01*
Y491507D01*
X995994D01*
Y499378D01*
X998618D01*
Y487572D01*
D02*
G37*
G36*
Y471830D02*
X997306D01*
Y470518D01*
X986811D01*
Y471830D01*
X985500D01*
Y483636D01*
X988123D01*
Y475765D01*
X995994D01*
Y483636D01*
X998618D01*
Y471830D01*
D02*
G37*
G36*
X994948Y523471D02*
X995997D01*
Y514023D01*
X985500D01*
Y518222D01*
X989699D01*
Y523471D01*
X990748D01*
Y524520D01*
X994948D01*
Y523471D01*
D02*
G37*
G36*
X995997Y507724D02*
X991798D01*
Y505625D01*
X995997D01*
Y501426D01*
X991798D01*
Y502475D01*
X989699D01*
Y501426D01*
X985500D01*
Y505625D01*
X989699D01*
Y507724D01*
X985500D01*
Y511923D01*
X989699D01*
Y510873D01*
X991798D01*
Y511923D01*
X995997D01*
Y507724D01*
D02*
G37*
G36*
X997306Y466582D02*
X998618D01*
Y454776D01*
X985500D01*
Y460023D01*
X990747D01*
Y462647D01*
X985500D01*
Y467894D01*
X990747D01*
Y466582D01*
X993371D01*
Y467894D01*
X997306D01*
Y466582D01*
D02*
G37*
G36*
X976555Y520864D02*
X977342D01*
Y513781D01*
X975768D01*
Y518503D01*
X974194D01*
Y516142D01*
X972620D01*
Y518503D01*
X971046D01*
Y513781D01*
X969473D01*
Y520864D01*
X970259D01*
Y521651D01*
X972620D01*
Y520864D01*
X974194D01*
Y521651D01*
X976555D01*
Y520864D01*
D02*
G37*
G36*
X977342Y505125D02*
X976555D01*
Y504338D01*
X969473D01*
Y507486D01*
X972620D01*
Y509846D01*
X974194D01*
Y507486D01*
X975768D01*
Y512207D01*
X977342D01*
Y505125D01*
D02*
G37*
G36*
Y533455D02*
X976555D01*
Y532668D01*
X970259D01*
Y533455D01*
X969473D01*
Y540538D01*
X971046D01*
Y535816D01*
X975768D01*
Y540538D01*
X977342D01*
Y533455D01*
D02*
G37*
G36*
Y524012D02*
X976555D01*
Y523225D01*
X969473D01*
Y526373D01*
X972620D01*
Y528734D01*
X974194D01*
Y526373D01*
X975768D01*
Y531094D01*
X977342D01*
Y524012D01*
D02*
G37*
G36*
X995997Y565461D02*
X994948D01*
Y564411D01*
X986549D01*
Y565461D01*
X985500D01*
Y574909D01*
X987599D01*
Y568610D01*
X989699D01*
Y571760D01*
X991798D01*
Y568610D01*
X993898D01*
Y574909D01*
X995997D01*
Y565461D01*
D02*
G37*
G36*
X994948Y561262D02*
X995997D01*
Y551814D01*
X985500D01*
Y556013D01*
X989699D01*
Y558113D01*
X985500D01*
Y562312D01*
X989699D01*
Y561262D01*
X991798D01*
Y562312D01*
X994948D01*
Y561262D01*
D02*
G37*
G36*
Y548665D02*
X995997D01*
Y540267D01*
X994948D01*
Y539217D01*
X986549D01*
Y540267D01*
X985500D01*
Y548665D01*
X986549D01*
Y549715D01*
X994948D01*
Y548665D01*
D02*
G37*
G36*
Y586456D02*
X995997D01*
Y577008D01*
X985500D01*
Y581207D01*
X989699D01*
Y583307D01*
X985500D01*
Y587506D01*
X989699D01*
Y586456D01*
X991798D01*
Y587506D01*
X994948D01*
Y586456D01*
D02*
G37*
G36*
X987599Y530819D02*
X995997D01*
Y526620D01*
X985500D01*
Y537117D01*
X987599D01*
Y530819D01*
D02*
G37*
%LPC*%
G36*
X993898Y583307D02*
X991798D01*
Y581207D01*
X993898D01*
Y583307D01*
D02*
G37*
G36*
Y545515D02*
X987599D01*
Y543416D01*
X993898D01*
Y545515D01*
D02*
G37*
G36*
Y520321D02*
X991798D01*
Y518222D01*
X993898D01*
Y520321D01*
D02*
G37*
G36*
X995994Y462647D02*
X993371D01*
Y460023D01*
X995994D01*
Y462647D01*
D02*
G37*
G36*
X993898Y558113D02*
X991798D01*
Y556013D01*
X993898D01*
Y558113D01*
D02*
G37*
%LPD*%
D10*
X893449Y550539D02*
X893534Y550454D01*
X922090D01*
X921884Y541188D02*
X921987Y541085D01*
X893265Y541188D02*
X921884D01*
X921987Y511128D02*
X922089Y511231D01*
X903046Y561414D02*
X922030D01*
X902804Y550597D02*
Y561173D01*
X902746Y550539D02*
X902804Y550597D01*
X893449Y550539D02*
X902746D01*
X893274Y550364D02*
X893449Y550539D01*
X893274Y530956D02*
Y550364D01*
X922030Y491035D02*
Y561414D01*
X893274Y491093D02*
X893295Y491073D01*
X893274Y491035D02*
X922030D01*
X893274Y530896D02*
X922030D01*
X893274Y491093D02*
Y530896D01*
X902872Y491073D02*
Y530769D01*
X912768Y491073D02*
Y530677D01*
X922030Y471861D02*
Y491035D01*
X921874Y471705D02*
X922030Y471861D01*
X921874Y471705D02*
Y472174D01*
X903224Y471705D02*
X921874D01*
X902872Y472058D02*
X903224Y471705D01*
X902872Y472058D02*
Y491073D01*
X893274Y550364D02*
Y561044D01*
X893645Y561414D01*
X903046D01*
D57*
X891896Y506009D02*
G03*
X891896Y506009I-3553J0D01*
G01*
X891702Y496039D02*
G03*
X891702Y496039I-3553J0D01*
G01*
X1144804Y466641D02*
Y474745D01*
Y466641D02*
X1163058D01*
Y474901D01*
X1145047Y474987D02*
X1163058D01*
X1144804Y474745D02*
X1145047Y474987D01*
X888307Y503683D02*
Y508283D01*
X886060Y505962D02*
X890660D01*
X885899Y496139D02*
X890499Y496139D01*
X1157767Y464827D02*
X1159604D01*
X1157869Y459203D02*
Y461958D01*
X1156492D01*
X1156033Y461499D01*
Y460580D01*
X1156492Y460121D01*
X1157869D01*
X1156951D02*
X1156033Y459203D01*
X1155114D02*
Y461039D01*
X1154196Y461958D01*
X1153278Y461039D01*
Y459203D01*
Y460580D01*
X1155114D01*
X1152359Y461958D02*
Y459203D01*
X1151441Y460121D01*
X1150523Y459203D01*
Y461958D01*
X1147890Y464695D02*
X1149727D01*
X1148808Y465614D02*
Y463777D01*
X1089845Y596592D02*
X1091675Y596432D01*
X1095214Y594740D02*
X1095454Y597484D01*
X1096826Y597364D01*
X1097244Y596867D01*
X1097204Y596410D01*
X1096706Y595992D01*
X1095334Y596112D01*
X1096706Y595992D01*
X1097124Y595495D01*
X1097084Y595037D01*
X1096586Y594620D01*
X1095214Y594740D01*
X1099571Y597124D02*
X1098656Y597204D01*
X1098158Y596787D01*
X1098079Y595872D01*
X1098496Y595375D01*
X1099411Y595295D01*
X1099908Y595712D01*
X1099948Y596169D01*
X1098118Y596329D01*
X1102315Y596884D02*
X1101400Y596964D01*
X1100903Y596547D01*
X1100823Y595632D01*
X1101240Y595134D01*
X1102155Y595054D01*
X1102653Y595472D01*
X1102693Y595929D01*
X1100863Y596089D01*
X1103768Y597679D02*
X1103528Y594934D01*
X1104900Y594814D01*
X1105397Y595232D01*
X1105477Y596147D01*
X1105060Y596644D01*
X1103688Y596764D01*
X1109057Y594912D02*
X1110886Y594752D01*
X1109891Y593917D02*
X1110052Y595746D01*
X891474Y546781D02*
Y549536D01*
X890096D01*
X889637Y549077D01*
Y548159D01*
X890096Y547699D01*
X891474D01*
X888719Y549536D02*
Y546781D01*
X887801Y547699D01*
X886882Y546781D01*
Y549536D01*
X885964Y546781D02*
Y549536D01*
X885046Y548618D01*
X884127Y549536D01*
Y546781D01*
X881372Y549536D02*
X882291Y549077D01*
X883209Y548159D01*
Y547240D01*
X882750Y546781D01*
X881831D01*
X881372Y547240D01*
Y547699D01*
X881831Y548159D01*
X883209D01*
X891938Y535193D02*
Y537948D01*
X890560D01*
X890101Y537489D01*
Y536571D01*
X890560Y536112D01*
X891938D01*
X889183Y537948D02*
Y535193D01*
X888264Y536112D01*
X887346Y535193D01*
Y537948D01*
X886428Y535193D02*
Y537948D01*
X885509Y537030D01*
X884591Y537948D01*
Y535193D01*
X881836Y537948D02*
X883673D01*
Y536571D01*
X882754Y537030D01*
X882295D01*
X881836Y536571D01*
Y535652D01*
X882295Y535193D01*
X883214D01*
X883673Y535652D01*
X878561Y514608D02*
X876266D01*
X875806Y515067D01*
Y515986D01*
X876266Y516445D01*
X878561D01*
X875806Y517363D02*
X877643D01*
X878561Y518282D01*
X877643Y519200D01*
X875806D01*
X877184D01*
Y517363D01*
X875806Y520118D02*
X878561D01*
Y521496D01*
X878102Y521955D01*
X877184D01*
X876725Y521496D01*
Y520118D01*
Y521037D02*
X875806Y521955D01*
X878561Y522873D02*
Y524710D01*
Y523792D01*
X875806D01*
Y525628D02*
Y526547D01*
Y526088D01*
X878561D01*
X878102Y525628D01*
X918832Y565475D02*
Y562720D01*
Y564098D01*
X916995D01*
Y565475D01*
Y562720D01*
X908689Y565422D02*
Y562667D01*
X906852D01*
X900826Y472172D02*
Y473090D01*
Y472631D01*
X898071D01*
Y472172D01*
Y473090D01*
Y476305D02*
Y474468D01*
X899908Y476305D01*
X900367D01*
X900826Y475845D01*
Y474927D01*
X900367Y474468D01*
Y479060D02*
X900826Y478600D01*
Y477682D01*
X900367Y477223D01*
X898530D01*
X898071Y477682D01*
Y478600D01*
X898530Y479060D01*
X891488Y523610D02*
Y525447D01*
Y524528D01*
X888733D01*
X891488Y526365D02*
X888733Y528202D01*
X891488D02*
X888733Y526365D01*
X888778Y514268D02*
X891533D01*
Y515646D01*
X891074Y516105D01*
X890156D01*
X889697Y515646D01*
Y514268D01*
Y515187D02*
X888778Y516105D01*
X891533Y517024D02*
X888778Y518860D01*
X891533D02*
X888778Y517024D01*
X869440Y514608D02*
X867145D01*
X866685Y515067D01*
Y515986D01*
X867145Y516445D01*
X869440D01*
X866685Y517363D02*
X868522D01*
X869440Y518282D01*
X868522Y519200D01*
X866685D01*
X868063D01*
Y517363D01*
X866685Y520118D02*
X869440D01*
Y521496D01*
X868981Y521955D01*
X868063D01*
X867604Y521496D01*
Y520118D01*
Y521037D02*
X866685Y521955D01*
X869440Y522873D02*
Y524710D01*
Y523792D01*
X866685D01*
X868981Y525628D02*
X869440Y526088D01*
Y527006D01*
X868981Y527465D01*
X868522D01*
X868063Y527006D01*
Y526547D01*
Y527006D01*
X867604Y527465D01*
X867145D01*
X866685Y527006D01*
Y526088D01*
X867145Y525628D01*
X874001Y514608D02*
X871705D01*
X871246Y515067D01*
Y515986D01*
X871705Y516445D01*
X874001D01*
X871246Y517363D02*
X873083D01*
X874001Y518282D01*
X873083Y519200D01*
X871246D01*
X872623D01*
Y517363D01*
X871246Y520118D02*
X874001D01*
Y521496D01*
X873542Y521955D01*
X872623D01*
X872164Y521496D01*
Y520118D01*
Y521037D02*
X871246Y521955D01*
X874001Y522873D02*
Y524710D01*
Y523792D01*
X871246D01*
Y527465D02*
Y525628D01*
X873083Y527465D01*
X873542D01*
X874001Y527006D01*
Y526088D01*
X873542Y525628D01*
X914705Y568463D02*
X915164Y568922D01*
X916083D01*
X916542Y568463D01*
Y566626D01*
X916083Y566167D01*
X915164D01*
X914705Y566626D01*
X913787Y566167D02*
Y568004D01*
X912868Y568922D01*
X911950Y568004D01*
Y566167D01*
Y567544D01*
X913787D01*
X911032Y566167D02*
Y568922D01*
X909195Y566167D01*
Y568922D01*
X918675Y464134D02*
X919134Y463675D01*
Y462757D01*
X918675Y462298D01*
X918215D01*
X917756Y462757D01*
Y463675D01*
X917297Y464134D01*
X916838D01*
X916379Y463675D01*
Y462757D01*
X916838Y462298D01*
X919134Y465053D02*
X916379D01*
Y466430D01*
X916838Y466889D01*
X918675D01*
X919134Y466430D01*
Y465053D01*
X916379Y467808D02*
X918215D01*
X919134Y468726D01*
X918215Y469644D01*
X916379D01*
X917756D01*
Y467808D01*
X908368Y461379D02*
X908827Y460920D01*
Y460002D01*
X908368Y459543D01*
X907908D01*
X907449Y460002D01*
Y460920D01*
X906990Y461379D01*
X906531D01*
X906072Y460920D01*
Y460002D01*
X906531Y459543D01*
X908368Y464134D02*
X908827Y463675D01*
Y462757D01*
X908368Y462298D01*
X906531D01*
X906072Y462757D01*
Y463675D01*
X906531Y464134D01*
X908827Y465053D02*
X906072D01*
Y466889D01*
X908827Y467808D02*
X906072D01*
X906990D01*
X908827Y469644D01*
X907449Y468267D01*
X906072Y469644D01*
X901315Y487153D02*
X900855Y487612D01*
X899937D01*
X899478Y487153D01*
Y486694D01*
X899937Y486235D01*
X900396D01*
X899937D01*
X899478Y485776D01*
Y485317D01*
X899937Y484858D01*
X900855D01*
X901315Y485317D01*
X898559Y484858D02*
Y485317D01*
X898100D01*
Y484858D01*
X898559D01*
X896264Y487153D02*
X895805Y487612D01*
X894886D01*
X894427Y487153D01*
Y486694D01*
X894886Y486235D01*
X895345D01*
X894886D01*
X894427Y485776D01*
Y485317D01*
X894886Y484858D01*
X895805D01*
X896264Y485317D01*
X893509Y487612D02*
Y485776D01*
X892590Y484858D01*
X891672Y485776D01*
Y487612D01*
X900451Y565473D02*
Y562718D01*
X898615D01*
X895860Y565473D02*
X897696D01*
Y562718D01*
X895860D01*
X897696Y564096D02*
X896778D01*
X894941Y565473D02*
Y562718D01*
X893564D01*
X893104Y563177D01*
Y565014D01*
X893564Y565473D01*
X894941D01*
X891320Y543228D02*
X889483Y545064D01*
X888565Y543228D02*
Y545983D01*
X887187D01*
X886728Y545523D01*
Y544605D01*
X887187Y544146D01*
X888565D01*
X885810Y543228D02*
Y545983D01*
X884432D01*
X883973Y545523D01*
Y544605D01*
X884432Y544146D01*
X885810D01*
X883055Y543228D02*
Y545983D01*
X882136Y545064D01*
X881218Y545983D01*
Y543228D01*
X1233068Y592835D02*
G03*
X1217579Y600111I-15664J-13221D01*
G01*
X1217591Y442672D02*
G03*
X1233080Y449948I-175J20497D01*
G01*
X880412Y611114D02*
G03*
X885495Y613312I-35534J89131D01*
G01*
X885527Y429516D02*
G03*
X880444Y431715I-40617J-86933D01*
G01*
X755095Y547005D02*
G03*
X755095Y547005I-6102J0D01*
G01*
Y495825D02*
G03*
X755095Y495825I-6102J0D01*
G01*
X873206D02*
G03*
X873206Y495825I-6102J0D01*
G01*
Y547005D02*
G03*
X873206Y547005I-6102J0D01*
G01*
X999188Y413147D02*
G03*
X999188Y413147I-6102J0D01*
G01*
X1066117Y348188D02*
G03*
X1066117Y348188I-6102J0D01*
G01*
X1188164Y462662D02*
G03*
X1188164Y462662I-6102J0D01*
G01*
X1188105Y579993D02*
G03*
X1188105Y579993I-6102J0D01*
G01*
X999187Y629683D02*
G03*
X999187Y629683I-6102J0D01*
G01*
X1066117Y694642D02*
G03*
X1066117Y694642I-6102J0D01*
G01*
X1166186Y600154D02*
X1217504D01*
X1099391D02*
X1166186D01*
X1016714Y329514D02*
X1020651Y324561D01*
X1012729Y334348D02*
X1016714Y329514D01*
X1008701Y339065D02*
X1012729Y334348D01*
X1004632Y343665D02*
X1008701Y339065D01*
X1000522Y348150D02*
X1004632Y343665D01*
X996375Y352521D02*
X1000522Y348150D01*
X992192Y356779D02*
X996375Y352521D01*
X987975Y360926D02*
X992192Y356779D01*
X983117Y365533D02*
X987975Y360926D01*
X978221Y369998D02*
X983117Y365533D01*
X973289Y374326D02*
X978221Y369998D01*
X968327Y378516D02*
X973289Y374326D01*
X963335Y382573D02*
X968327Y378516D01*
X958318Y386498D02*
X963335Y382573D01*
X953278Y390293D02*
X958318Y386498D01*
X948218Y393961D02*
X953278Y390293D01*
X943142Y397502D02*
X948218Y393961D01*
X939442Y399999D02*
X943142Y397502D01*
X935736Y402433D02*
X939442Y399999D01*
X932025Y404804D02*
X935736Y402433D01*
X928312Y407112D02*
X932025Y404804D01*
X924595Y409358D02*
X928312Y407112D01*
X920877Y411542D02*
X924595Y409358D01*
X917159Y413666D02*
X920877Y411542D01*
X914453Y415193D02*
X917159Y413666D01*
X773629Y459957D02*
X776585Y459591D01*
X770744Y460294D02*
X773629Y459957D01*
X767475Y460646D02*
X770744Y460294D01*
X764307Y460963D02*
X767475Y460646D01*
X761242Y461242D02*
X764307Y460963D01*
X758279Y461489D02*
X761242Y461242D01*
X755426Y461703D02*
X758279Y461489D01*
X752683Y461887D02*
X755426Y461703D01*
X750053Y462044D02*
X752683Y461887D01*
X747540Y462174D02*
X750053Y462044D01*
X745146Y462281D02*
X747540Y462174D01*
X742514Y462377D02*
X745146Y462281D01*
X740053Y462448D02*
X742514Y462377D01*
X737765Y462495D02*
X740053Y462448D01*
X735657Y462521D02*
X737765Y462495D01*
X733731Y462531D02*
X735657Y462521D01*
X731993Y462527D02*
X733731Y462531D01*
X730447Y462512D02*
X731993Y462527D01*
X729097Y462488D02*
X730447Y462512D01*
X727949Y462460D02*
X729097Y462488D01*
X727415Y462445D02*
X727949Y462460D01*
X726942Y462428D02*
X727415Y462445D01*
X726529Y462413D02*
X726942Y462428D01*
X726179Y462399D02*
X726529Y462413D01*
X725890Y462387D02*
X726179Y462399D01*
X725665Y462376D02*
X725890Y462387D01*
X725503Y462367D02*
X725665Y462376D01*
X725406Y462363D02*
X725503Y462367D01*
X725374Y462362D02*
X725406Y462363D01*
X725374Y462362D02*
Y580471D01*
X833536Y594757D02*
X840102Y596648D01*
X846768Y598697D01*
X853525Y600908D01*
X860365Y603286D01*
X865327Y605103D01*
X870324Y607011D01*
X875354Y609014D01*
X880412Y611114D01*
X885495Y613312D02*
X890602Y615612D01*
X895726Y618014D01*
X900866Y620523D01*
X906020Y623140D01*
X914414Y627750D01*
X917159Y629159D01*
X920877Y631283D01*
X924595Y633468D01*
X928312Y635712D01*
X932025Y638019D01*
X935736Y640390D01*
X939442Y642823D01*
X943142Y645322D01*
X948218Y648863D01*
X953278Y652531D01*
X958318Y656324D01*
X963335Y660249D01*
X968327Y664306D01*
X973289Y668497D01*
X978221Y672824D01*
X983117Y677290D01*
X987975Y681896D01*
X992192Y686044D01*
X996375Y690302D01*
X1000522Y694671D01*
X1004632Y699156D01*
X1008701Y703756D01*
X1012729Y708473D01*
X1016714Y713307D01*
X1020651Y718260D01*
X1099391D01*
X1060022Y659205D02*
X1099391Y718260D01*
X1058466Y656844D02*
X1060022Y659205D01*
X1057059Y654540D02*
X1058466Y656844D01*
X1055798Y652292D02*
X1057059Y654540D01*
X1054676Y650101D02*
X1055798Y652292D01*
X1053693Y647963D02*
X1054676Y650101D01*
X1052841Y645883D02*
X1053693Y647963D01*
X1052121Y643855D02*
X1052841Y645883D01*
X1051526Y641881D02*
X1052121Y643855D01*
X1050996Y639691D02*
X1051526Y641881D01*
X1050619Y637570D02*
X1050996Y639691D01*
X1050391Y635516D02*
X1050619Y637570D01*
X1050307Y633530D02*
X1050391Y635516D01*
X1050307Y633530D02*
X1050361Y631611D01*
X1050547Y629755D01*
X1050859Y627966D01*
X1051293Y626241D01*
X1051843Y624580D01*
X1052362Y623295D01*
X1052948Y622051D01*
X1053600Y620845D01*
X1054314Y619679D01*
X1055086Y618551D01*
X1055915Y617461D01*
X1057730Y615393D01*
X1059736Y613472D01*
X1061911Y611696D01*
X1063512Y610543D01*
X1067106Y608200D01*
X1066895Y608439D02*
X1068662Y607483D01*
X1070470Y606591D01*
X1072311Y605764D01*
X1074177Y604997D01*
X1076061Y604290D01*
X1077955Y603644D01*
X1080591Y602843D01*
X1083212Y602151D01*
X1085797Y601566D01*
X1088324Y601086D01*
X1090774Y600708D01*
X1093127Y600429D01*
X1095361Y600246D01*
X1097455Y600155D01*
X1099391Y600154D01*
X1232277Y593481D02*
X1233827Y591478D01*
X1235106Y589293D01*
X1236092Y586964D01*
X1236769Y584525D01*
X1237080Y582529D01*
X1237185Y580472D01*
Y462350D02*
Y580472D01*
X1228509Y446028D02*
X1230512Y447577D01*
X1226325Y444748D02*
X1228509Y446028D01*
X853493Y600910D02*
X860333Y603287D01*
X846736Y598698D02*
X853493Y600910D01*
X840070Y596650D02*
X846736Y598698D01*
X833504Y594758D02*
X840070Y596650D01*
X827048Y593015D02*
X833504Y594758D01*
X820708Y591417D02*
X827048Y593015D01*
X814494Y589955D02*
X820708Y591417D01*
X808415Y588625D02*
X814494Y589955D01*
X802480Y587422D02*
X808415Y588625D01*
X795641Y586150D02*
X802480Y587422D01*
X792308Y585573D02*
X795641Y586150D01*
X789033Y585035D02*
X792308Y585573D01*
X785818Y584533D02*
X789033Y585035D01*
X782665Y584068D02*
X785818Y584533D01*
X779575Y583636D02*
X782665Y584068D01*
X776553Y583237D02*
X779575Y583636D01*
X773597Y582871D02*
X776553Y583237D01*
X770712Y582536D02*
X773597Y582871D01*
X767443Y582182D02*
X770712Y582536D01*
X764275Y581867D02*
X767443Y582182D01*
X761210Y581586D02*
X764275Y581867D01*
X758247Y581339D02*
X761210Y581586D01*
X755394Y581126D02*
X758247Y581339D01*
X752651Y580942D02*
X755394Y581126D01*
X750021Y580785D02*
X752651Y580942D01*
X747508Y580654D02*
X750021Y580785D01*
X745114Y580547D02*
X747508Y580654D01*
X742482Y580451D02*
X745114Y580547D01*
X740021Y580380D02*
X742482Y580451D01*
X737733Y580333D02*
X740021Y580380D01*
X735625Y580307D02*
X737733Y580333D01*
X733699Y580297D02*
X735625Y580307D01*
X731961Y580301D02*
X733699Y580297D01*
X730415Y580318D02*
X731961Y580301D01*
X729065Y580342D02*
X730415Y580318D01*
X727917Y580369D02*
X729065Y580342D01*
X727384Y580386D02*
X727917Y580369D01*
X726910Y580403D02*
X727384Y580386D01*
X726497Y580418D02*
X726910Y580403D01*
X726147Y580433D02*
X726497Y580418D01*
X725858Y580446D02*
X726147Y580433D01*
X725634Y580457D02*
X725858Y580446D01*
X725471Y580465D02*
X725634Y580457D01*
X725374Y580471D02*
X725471Y580465D01*
X725342Y580472D02*
X725374Y580471D01*
X1237091Y460254D02*
X1237197Y462311D01*
X1236781Y458259D02*
X1237091Y460254D01*
X1236104Y455819D02*
X1236781Y458259D01*
X1235118Y453490D02*
X1236104Y455819D01*
X1233839Y451306D02*
X1235118Y453490D01*
X1232289Y449303D02*
X1233839Y451306D01*
X1217445Y599974D02*
X1219502Y599869D01*
X1221497Y599559D01*
X1223936Y598882D01*
X1226266Y597896D01*
X1228450Y596617D01*
X1230453Y595067D01*
X1232422Y593064D01*
X1234082Y590812D01*
X1235401Y588359D01*
X1236356Y585754D01*
X1236928Y583084D01*
X1237126Y580294D01*
X1237126Y462172D01*
X1237021Y460115D02*
X1237126Y462172D01*
X1236710Y458119D02*
X1237021Y460115D01*
X1236033Y455680D02*
X1236710Y458119D01*
X1235047Y453351D02*
X1236033Y455680D01*
X1233768Y451166D02*
X1235047Y453351D01*
X1232218Y449164D02*
X1233768Y451166D01*
X1230215Y447194D02*
X1232218Y449164D01*
X1227963Y445534D02*
X1230215Y447194D01*
X1166220Y599974D02*
X1217445D01*
X1095361Y442578D02*
X1097455Y442670D01*
X1093127Y442395D02*
X1095361Y442578D01*
X1090774Y442116D02*
X1093127Y442395D01*
X1088324Y441738D02*
X1090774Y442116D01*
X1085797Y441258D02*
X1088324Y441738D01*
X1083212Y440674D02*
X1085797Y441258D01*
X1080591Y439983D02*
X1083212Y440674D01*
X1077955Y439180D02*
X1080591Y439983D01*
X1097455Y442670D02*
X1168988D01*
X1020651Y324561D02*
X1099391Y324562D01*
X1076061Y438534D02*
X1077955Y439180D01*
X1074177Y437828D02*
X1076061Y438534D01*
X1072311Y437062D02*
X1074177Y437828D01*
X1070470Y436234D02*
X1072311Y437062D01*
X1068662Y435344D02*
X1070470Y436234D01*
X1066895Y434388D02*
X1068662Y435344D01*
X1065176Y433369D02*
X1066895Y434388D01*
X1063512Y432283D02*
X1065176Y433369D01*
X1061911Y431130D02*
X1063512Y432283D01*
X1059736Y429353D02*
X1061911Y431130D01*
X1057730Y427433D02*
X1059736Y429353D01*
X1055915Y425365D02*
X1057730Y427433D01*
X1055086Y424274D02*
X1055915Y425365D01*
X1054314Y423147D02*
X1055086Y424274D01*
X1053600Y421980D02*
X1054314Y423147D01*
X1052948Y420774D02*
X1053600Y421980D01*
X1052362Y419530D02*
X1052948Y420774D01*
X1051843Y418245D02*
X1052362Y419530D01*
X1051293Y416583D02*
X1051843Y418245D01*
X1050859Y414858D02*
X1051293Y416583D01*
X1050547Y413069D02*
X1050859Y414858D01*
X1050361Y411215D02*
X1050547Y413069D01*
X1050307Y409295D02*
X1050361Y411215D01*
X1050307Y409295D02*
X1050391Y407309D01*
X1050619Y405255D01*
X1050996Y403134D01*
X1051526Y400944D01*
X1052121Y398970D01*
X1052841Y396943D01*
X1053693Y394861D01*
X1054676Y392724D01*
X1055798Y390531D01*
X1057059Y388283D01*
X1058466Y385979D01*
X1060022Y383618D01*
X1099391Y324562D01*
X1146128Y442670D02*
X1217661D01*
X776585Y459591D02*
X779607Y459192D01*
X782697Y458760D01*
X785850Y458295D01*
X789065Y457794D01*
X792340Y457255D01*
X795673Y456678D01*
X802512Y455406D01*
X808447Y454203D01*
X814526Y452873D01*
X820740Y451412D01*
X827080Y449813D01*
X833536Y448070D01*
X840102Y446178D01*
X846768Y444130D01*
X853525Y441919D01*
X860365Y439541D01*
X906052Y419688D02*
X914446Y415078D01*
X900898Y422305D02*
X906052Y419688D01*
X895758Y424815D02*
X900898Y422305D01*
X890634Y427216D02*
X895758Y424815D01*
X885527Y429516D02*
X890634Y427216D01*
X875386Y433815D02*
X880444Y431715D01*
X870356Y435817D02*
X875386Y433815D01*
X865359Y437726D02*
X870356Y435817D01*
X860397Y439542D02*
X865359Y437726D01*
X853557Y441920D02*
X860397Y439542D01*
X846800Y444131D02*
X853557Y441920D01*
X840134Y446180D02*
X846800Y444131D01*
X833568Y448071D02*
X840134Y446180D01*
D58*
X1126148Y445484D02*
G03*
X1126148Y445484I-1671J0D01*
G01*
Y452571D02*
G03*
X1126148Y452571I-1671J0D01*
G01*
M02*
