%FSLAX25Y25*%
%MOIN*%
G70*
G01*
G75*
%ADD10C,0.00787*%
%ADD11R,0.03150X0.03937*%
%ADD12R,0.11811X0.03937*%
%ADD13R,0.13780X0.09646*%
%ADD14R,0.09488X0.26378*%
G04:AMPARAMS|DCode=15|XSize=196.85mil|YSize=118.11mil|CornerRadius=0mil|HoleSize=0mil|Usage=FLASHONLY|Rotation=22.500|XOffset=0mil|YOffset=0mil|HoleType=Round|Shape=Rectangle|*
%AMROTATEDRECTD15*
4,1,4,-0.06833,-0.09222,-0.11353,0.01689,0.06833,0.09222,0.11353,-0.01689,-0.06833,-0.09222,0.0*
%
%ADD15ROTATEDRECTD15*%

G04:AMPARAMS|DCode=16|XSize=196.85mil|YSize=118.11mil|CornerRadius=0mil|HoleSize=0mil|Usage=FLASHONLY|Rotation=337.500|XOffset=0mil|YOffset=0mil|HoleType=Round|Shape=Rectangle|*
%AMROTATEDRECTD16*
4,1,4,-0.11353,-0.01689,-0.06833,0.09222,0.11353,0.01689,0.06833,-0.09222,-0.11353,-0.01689,0.0*
%
%ADD16ROTATEDRECTD16*%

G04:AMPARAMS|DCode=17|XSize=196.85mil|YSize=118.11mil|CornerRadius=0mil|HoleSize=0mil|Usage=FLASHONLY|Rotation=115.000|XOffset=0mil|YOffset=0mil|HoleType=Round|Shape=Rectangle|*
%AMROTATEDRECTD17*
4,1,4,0.09512,-0.06425,-0.01193,-0.11416,-0.09512,0.06425,0.01193,0.11416,0.09512,-0.06425,0.0*
%
%ADD17ROTATEDRECTD17*%

G04:AMPARAMS|DCode=18|XSize=196.85mil|YSize=118.11mil|CornerRadius=0mil|HoleSize=0mil|Usage=FLASHONLY|Rotation=65.000|XOffset=0mil|YOffset=0mil|HoleType=Round|Shape=Rectangle|*
%AMROTATEDRECTD18*
4,1,4,0.01193,-0.11416,-0.09512,-0.06425,-0.01193,0.11416,0.09512,0.06425,0.01193,-0.11416,0.0*
%
%ADD18ROTATEDRECTD18*%

%ADD19R,0.05118X0.05906*%
%ADD20R,0.03937X0.03150*%
%ADD21R,0.03898X0.01890*%
%ADD22R,0.04173X0.02559*%
%ADD23R,0.05512X0.04134*%
%ADD24R,0.06890X0.02559*%
%ADD25R,0.23622X0.15748*%
%ADD26R,0.02362X0.04331*%
%ADD27R,0.03150X0.03150*%
%ADD28R,0.03347X0.05118*%
%ADD29R,0.05906X0.05906*%
%ADD30O,0.07480X0.01181*%
%ADD31O,0.01181X0.07480*%
%ADD32R,0.01969X0.09843*%
%ADD33R,0.07874X0.09843*%
%ADD34R,0.05118X0.01575*%
%ADD35R,0.07874X0.07874*%
%ADD36R,0.03937X0.02165*%
%ADD37R,0.00984X0.02756*%
%ADD38R,0.02756X0.00984*%
%ADD39R,0.05000X0.05787*%
%ADD40R,0.13386X0.05315*%
%ADD41R,0.05906X0.01614*%
G04:AMPARAMS|DCode=42|XSize=118.11mil|YSize=59.06mil|CornerRadius=0mil|HoleSize=0mil|Usage=FLASHONLY|Rotation=225.000|XOffset=0mil|YOffset=0mil|HoleType=Round|Shape=Rectangle|*
%AMROTATEDRECTD42*
4,1,4,0.02088,0.06264,0.06264,0.02088,-0.02088,-0.06264,-0.06264,-0.02088,0.02088,0.06264,0.0*
%
%ADD42ROTATEDRECTD42*%

G04:AMPARAMS|DCode=43|XSize=118.11mil|YSize=59.06mil|CornerRadius=0mil|HoleSize=0mil|Usage=FLASHONLY|Rotation=135.000|XOffset=0mil|YOffset=0mil|HoleType=Round|Shape=Rectangle|*
%AMROTATEDRECTD43*
4,1,4,0.06264,-0.02088,0.02088,-0.06264,-0.06264,0.02088,-0.02088,0.06264,0.06264,-0.02088,0.0*
%
%ADD43ROTATEDRECTD43*%

G04:AMPARAMS|DCode=44|XSize=118.11mil|YSize=59.06mil|CornerRadius=0mil|HoleSize=0mil|Usage=FLASHONLY|Rotation=245.000|XOffset=0mil|YOffset=0mil|HoleType=Round|Shape=Rectangle|*
%AMROTATEDRECTD44*
4,1,4,-0.00180,0.06600,0.05172,0.04104,0.00180,-0.06600,-0.05172,-0.04104,-0.00180,0.06600,0.0*
%
%ADD44ROTATEDRECTD44*%

G04:AMPARAMS|DCode=45|XSize=118.11mil|YSize=59.06mil|CornerRadius=0mil|HoleSize=0mil|Usage=FLASHONLY|Rotation=295.000|XOffset=0mil|YOffset=0mil|HoleType=Round|Shape=Rectangle|*
%AMROTATEDRECTD45*
4,1,4,-0.05172,0.04104,0.00180,0.06600,0.05172,-0.04104,-0.00180,-0.06600,-0.05172,0.04104,0.0*
%
%ADD45ROTATEDRECTD45*%

%ADD46R,0.02559X0.04173*%
%ADD47C,0.01969*%
%ADD48C,0.03937*%
%ADD49C,0.07874*%
%ADD50C,0.05906*%
%ADD51R,0.06869X0.26570*%
%ADD52R,0.06892X0.11504*%
%ADD53R,0.37657X0.14030*%
%ADD54R,0.23424X0.11604*%
%ADD55R,0.15927X0.15830*%
%ADD56R,0.14344X0.15856*%
%ADD57C,0.00394*%
%ADD58C,0.00197*%
%ADD59C,0.05906*%
%ADD60R,0.05906X0.05906*%
%ADD61C,0.01969*%
%ADD62R,0.36038X0.16300*%
%ADD63C,0.01000*%
%ADD64C,0.01181*%
%ADD65C,0.00984*%
%ADD66C,0.02362*%
%ADD67C,0.00039*%
D10*
X1135027Y492233D02*
G03*
X1135027Y492233I-113J0D01*
G01*
X984883Y530073D02*
G03*
X984883Y530073I-194J0D01*
G01*
X1149238Y463021D02*
X1152382D01*
X1161161Y463011D02*
X1164305D01*
X1149238Y444788D02*
Y463021D01*
Y444788D02*
X1152382D01*
X1161161Y444778D02*
X1164305D01*
Y463011D01*
X902817Y550476D02*
Y561302D01*
Y561290D02*
X922067D01*
X922103Y561254D01*
Y550361D02*
Y561254D01*
X956132Y519449D02*
X962431D01*
X956132Y510394D02*
X962431D01*
X956132D02*
Y519449D01*
X979329Y510469D02*
Y519524D01*
X973030D02*
X979329D01*
X972959Y510489D02*
X979259D01*
X1208299Y478660D02*
Y479637D01*
X1181724Y478660D02*
X1208299D01*
Y499367D02*
Y500344D01*
X1181748Y478660D02*
Y479637D01*
Y499367D02*
Y500344D01*
Y500345D02*
X1208323Y500344D01*
X918503Y460824D02*
X924803Y460824D01*
X918503Y469879D02*
X924803D01*
Y460824D02*
Y469879D01*
X901605Y460748D02*
Y469804D01*
Y460748D02*
X907904D01*
X901676Y469784D02*
X907975D01*
X893303Y550463D02*
X922205D01*
X922103Y550361D02*
X922205Y550463D01*
X922103Y491332D02*
Y550361D01*
X893324Y530881D02*
X921870D01*
X893522Y541157D02*
X922067D01*
X893303Y530902D02*
X893324Y530881D01*
X893303Y530902D02*
Y550463D01*
X1121429Y490770D02*
X1123200D01*
X1113161D02*
X1114933D01*
X1113161Y486243D02*
Y490770D01*
X1123200Y486243D02*
Y490770D01*
X1033307Y514034D02*
X1059557D01*
X1033539Y526184D02*
X1059608D01*
X1033307Y514034D02*
Y525952D01*
X1033539Y526184D01*
X1059653Y514120D02*
Y526038D01*
X1114350Y510594D02*
Y533035D01*
X1091909Y510594D02*
Y533035D01*
Y510594D02*
X1114350D01*
X1091909Y533035D02*
X1114350D01*
X1064260Y558284D02*
Y562811D01*
X1054220Y558284D02*
Y562811D01*
X1055992D01*
X1062488D02*
X1064260D01*
X912806Y491290D02*
Y530873D01*
X902653Y491229D02*
Y530873D01*
X893300Y491229D02*
Y530873D01*
X922103Y471716D02*
Y491332D01*
X922087Y471732D02*
X922103Y471716D01*
X902907Y471732D02*
X922087D01*
X902653Y471986D02*
X902907Y471732D01*
X902653Y471986D02*
Y491229D01*
X902756Y491332D02*
X922103D01*
X902653Y491229D02*
X902756Y491332D01*
X893402D02*
X902756D01*
X893300Y491229D02*
X893402Y491332D01*
X1203913Y458997D02*
X1221666D01*
X1203792Y472125D02*
X1221545Y472125D01*
X1203792Y472125D02*
X1203792Y471500D01*
X1203913Y458997D02*
Y459622D01*
X1221666Y458997D02*
Y459622D01*
X1221545Y471500D02*
Y472125D01*
X958617Y546657D02*
X958639Y546678D01*
X958575Y546657D02*
X958617D01*
X947091Y535174D02*
X958575Y546657D01*
X958639Y546678D02*
X965689Y539629D01*
X947091Y535174D02*
X954163Y528102D01*
X965689Y539629D01*
X932626Y499678D02*
X944152Y488152D01*
X932626Y499678D02*
X946415Y513467D01*
X957941Y501941D01*
X944152Y488152D02*
X957941Y501941D01*
X1107156Y563493D02*
X1114045Y578266D01*
X1089483Y571734D02*
X1107156Y563493D01*
X1089483Y571734D02*
X1096372Y586507D01*
X1114045Y578266D01*
X1107111Y477376D02*
X1114000Y462603D01*
X1096327Y454362D02*
X1114000Y462603D01*
X1089438Y469135D02*
X1096327Y454362D01*
X1089438Y469135D02*
X1107111Y477376D01*
X942956Y539209D02*
Y539273D01*
X937483Y544747D02*
X942956Y539273D01*
X937483Y544747D02*
X937526D01*
X925656Y556573D02*
X937483Y544747D01*
X925656Y556573D02*
X937182Y568099D01*
X957689Y547593D01*
X946375Y536280D02*
X957689Y547593D01*
X945950Y536280D02*
X946375D01*
X942956Y539273D02*
X945950Y536280D01*
X893303Y550463D02*
Y561122D01*
X893484Y561302D01*
X902817D01*
D57*
X949901Y564661D02*
G03*
X949901Y564661I-3553J0D01*
G01*
X955841Y558799D02*
G03*
X955841Y558799I-3553J0D01*
G01*
X961317Y553396D02*
G03*
X961317Y553396I-3553J0D01*
G01*
X1080848Y567030D02*
G03*
X1080848Y567030I-3553J0D01*
G01*
X1067321Y575029D02*
G03*
X1067321Y575029I-3553J0D01*
G01*
X1067474Y466976D02*
G03*
X1067474Y466976I-3553J0D01*
G01*
X1080857Y474370D02*
G03*
X1080857Y474370I-3553J0D01*
G01*
X734397Y556885D02*
G03*
X734397Y556885I-3553J0D01*
G01*
Y485592D02*
G03*
X734397Y485592I-3553J0D01*
G01*
X955010Y487934D02*
G03*
X955010Y487934I-3553J0D01*
G01*
X810548Y468014D02*
G03*
X808613Y468005I-962J-972D01*
G01*
X961729Y493587D02*
G03*
X961729Y493587I-3553J0D01*
G01*
X891783Y505948D02*
G03*
X891783Y505948I-3553J0D01*
G01*
X891666Y496093D02*
G03*
X891666Y496093I-3553J0D01*
G01*
X1112933Y455314D02*
G03*
X1112933Y455314I-3553J0D01*
G01*
X1105048Y451595D02*
G03*
X1105048Y451595I-3553J0D01*
G01*
X1106427Y588178D02*
G03*
X1106427Y588178I-3553J0D01*
G01*
X1114345Y584529D02*
G03*
X1114345Y584529I-3553J0D01*
G01*
X899179Y480351D02*
G03*
X899188Y478417I972J-962D01*
G01*
X900584Y434617D02*
G03*
X900584Y434617I-3553J0D01*
G01*
X900176Y608518D02*
G03*
X900176Y608518I-3553J0D01*
G01*
X1145383Y522756D02*
X1146430Y522761D01*
X1145383Y520775D02*
X1146470D01*
X1145383Y542626D02*
X1146470D01*
X1145383Y520775D02*
X1146470D01*
X1145383D02*
Y542626D01*
X1162531Y522862D02*
X1163618D01*
X1162571Y542727D02*
X1163618D01*
X1162571Y520876D02*
X1163618D01*
Y542727D01*
X767614Y495519D02*
X797855D01*
Y466689D02*
Y495519D01*
X767609Y466694D02*
X797855D01*
X767609D02*
Y495525D01*
X946879Y566676D02*
X948293Y565262D01*
X946242Y563211D02*
X948293Y565262D01*
X944793Y564590D02*
X946879Y566676D01*
X946207Y563176D02*
X947161Y562221D01*
X943838Y565545D02*
X944793Y564590D01*
X950640Y560380D02*
X953893Y557127D01*
X950618Y557180D02*
X953871Y560432D01*
X956244Y555058D02*
X959496Y551805D01*
X1074969Y567066D02*
X1079569Y567066D01*
X1061442Y575064D02*
X1066042Y575064D01*
X1061595Y467012D02*
X1066195Y467012D01*
X1063874Y469259D02*
X1063874Y464659D01*
X1074978Y474405D02*
X1079578Y474405D01*
X1077257Y476653D02*
X1077257Y472053D01*
X728518Y556920D02*
X733118Y556920D01*
X728518Y485628D02*
X733118Y485628D01*
X730797Y487875D02*
X730797Y483275D01*
X950573Y485424D02*
X951527Y486379D01*
X952942Y487793D02*
X953896Y488748D01*
X949441Y488465D02*
X951527Y486379D01*
X950856Y489879D02*
X952906Y487828D01*
X949441Y488465D02*
X950856Y489879D01*
X887227Y579865D02*
Y580923D01*
X897336D01*
Y579890D02*
Y580923D01*
X897527Y567347D02*
Y568405D01*
X897502Y567322D02*
X897527Y567347D01*
X887418Y567322D02*
X897502D01*
X887418D02*
Y568380D01*
X811370Y468014D02*
Y479235D01*
X807782D02*
X811370D01*
X807782Y468014D02*
Y479235D01*
X810548Y468014D02*
X811370D01*
X810538Y468024D02*
X810548Y468014D01*
X807791Y468005D02*
X808613D01*
X1181853Y548044D02*
X1187416D01*
X1181853Y508674D02*
X1187416D01*
X1215662D02*
X1221224D01*
X1215465Y548044D02*
X1215563Y547945D01*
X1215662Y548044D01*
X1221224D01*
X1181853Y508674D02*
Y528359D01*
Y548044D01*
X1221224Y508674D02*
Y548044D01*
X1198921Y586820D02*
X1218579D01*
X1198921Y570991D02*
Y586820D01*
Y570991D02*
X1218579D01*
Y586820D01*
X781632Y566438D02*
Y571649D01*
X786812Y566438D02*
Y571649D01*
X781647Y567391D02*
X786712D01*
X781632Y566438D02*
X786812D01*
X781667Y573932D02*
Y578291D01*
X786848Y573851D02*
Y578291D01*
X781667D02*
X786848D01*
X795014Y566304D02*
Y571515D01*
X800194Y566304D02*
Y571515D01*
X795029Y567257D02*
X800094Y567257D01*
X795014Y566304D02*
X800194D01*
X795049Y573798D02*
Y578157D01*
X800230Y573717D02*
Y578157D01*
X795049D02*
X800230D01*
X788325Y566304D02*
Y571515D01*
X793505Y566304D02*
Y571515D01*
X788340Y567257D02*
X793405D01*
X788325Y566304D02*
X793505D01*
X788360Y573798D02*
Y578157D01*
X793541Y573717D02*
Y578157D01*
X788360D02*
X793541D01*
X1129278Y559309D02*
Y595726D01*
Y559309D02*
X1153572D01*
Y595726D01*
X1129278D02*
X1153572D01*
X1133531Y509556D02*
Y522683D01*
X1126013Y509556D02*
X1133531D01*
X1126013Y522683D02*
X1133531D01*
X1126013Y509556D02*
Y522683D01*
X956514Y492067D02*
X959767Y495319D01*
X1134714Y480315D02*
X1139169D01*
Y491225D01*
X1134714Y491271D02*
X1139129D01*
X1134714Y480315D02*
Y491271D01*
X983616Y514819D02*
X984946D01*
X983616D02*
Y516149D01*
X999395Y514789D02*
X1000725Y514789D01*
Y516119D01*
X1000755Y531898D02*
X1000755Y530568D01*
X999425Y531898D02*
X1000755D01*
X983646Y531928D02*
X984976Y531928D01*
X983646Y530598D02*
Y531928D01*
X888183Y508230D02*
X888183Y503630D01*
X885904Y505983D02*
X890504Y505983D01*
X885928Y495923D02*
X890528Y495923D01*
X1218874Y556797D02*
X1219870D01*
X1219912Y556839D01*
Y568199D01*
X1219897Y568214D02*
X1219912Y568199D01*
X1218874Y568214D02*
X1219897D01*
X1218874Y556797D02*
Y568214D01*
X1198008Y556797D02*
X1218874D01*
X1198008Y568214D02*
X1218874D01*
X1198008Y556797D02*
Y568214D01*
X1164382Y478594D02*
Y502889D01*
X1163500Y502889D02*
X1164382Y502889D01*
X1147112D02*
X1147994D01*
X1163526Y478594D02*
X1164382D01*
X1147112Y478624D02*
Y502889D01*
Y478624D02*
X1147143Y478594D01*
X1147112Y478624D02*
X1147994Y478624D01*
X1163500Y479773D02*
X1164382Y479773D01*
X1147122Y479788D02*
X1147138Y479773D01*
X1148019D01*
X1110817Y454716D02*
X1112041Y455286D01*
X1107781Y453300D02*
X1109005Y453871D01*
X1109571Y457389D02*
X1110817Y454716D01*
X1107758Y456544D02*
X1108984Y453916D01*
X1107758Y456544D02*
X1109571Y457389D01*
X1099497Y450687D02*
X1103666Y452631D01*
X1100894Y589126D02*
X1105063Y587182D01*
X1110691Y586562D02*
X1112504Y585717D01*
X1109466Y583933D02*
X1110691Y586562D01*
X1111257Y583043D02*
X1112504Y585717D01*
X1108221Y584459D02*
X1109444Y583888D01*
X1111257Y583043D02*
X1112481Y582472D01*
X899188Y477595D02*
Y478417D01*
X899170Y480342D02*
X899179Y480352D01*
Y481174D01*
X887958Y477586D02*
X899179Y477586D01*
X887958Y477586D02*
X887958Y481174D01*
X899179Y481174D01*
X1121104Y456312D02*
Y460723D01*
Y456312D02*
Y456452D01*
X1120069Y457268D02*
X1121070Y456268D01*
X1121141Y456304D02*
X1122141Y457304D01*
X894705Y434653D02*
X899306Y434653D01*
X896984Y436900D02*
X896984Y432300D01*
X894298Y608553D02*
X898898Y608553D01*
X1142696Y464946D02*
X1164507Y464946D01*
Y470852D01*
Y476757D01*
X1142696Y476757D02*
X1164507Y476757D01*
X1142696Y464946D02*
Y476757D01*
X1095243Y484877D02*
X1094784Y485336D01*
X1093865D01*
X1093406Y484877D01*
Y483041D01*
X1093865Y482582D01*
X1094784D01*
X1095243Y483041D01*
X1097998Y485336D02*
X1097080Y484877D01*
X1096161Y483959D01*
Y483041D01*
X1096620Y482582D01*
X1097539D01*
X1097998Y483041D01*
Y483500D01*
X1097539Y483959D01*
X1096161D01*
X1200060Y477545D02*
Y475249D01*
X1200519Y474790D01*
X1201437D01*
X1201896Y475249D01*
Y477545D01*
X1202814Y474790D02*
X1203733D01*
X1203274D01*
Y477545D01*
X1202814Y477086D01*
X1154487Y551329D02*
X1154027Y551789D01*
X1153109D01*
X1152650Y551329D01*
Y549493D01*
X1153109Y549033D01*
X1154027D01*
X1154487Y549493D01*
X1156783Y549033D02*
Y551789D01*
X1155405Y550411D01*
X1157242D01*
X1156001Y506767D02*
X1155542Y507226D01*
X1154623D01*
X1154164Y506767D01*
Y504930D01*
X1154623Y504471D01*
X1155542D01*
X1156001Y504930D01*
X1156919Y504471D02*
X1157837D01*
X1157378D01*
Y507226D01*
X1156919Y506767D01*
X775724Y499522D02*
Y502277D01*
X777102D01*
X777561Y501818D01*
Y500899D01*
X777102Y500440D01*
X775724D01*
X776643D02*
X777561Y499522D01*
X780316Y502277D02*
X778479D01*
Y500899D01*
X779398Y501358D01*
X779857D01*
X780316Y500899D01*
Y499981D01*
X779857Y499522D01*
X778939D01*
X778479Y499981D01*
X1135763Y495912D02*
Y493616D01*
X1136222Y493157D01*
X1137140D01*
X1137600Y493616D01*
Y495912D01*
X1140355Y493157D02*
X1138518D01*
X1140355Y494994D01*
Y495453D01*
X1139896Y495912D01*
X1138977D01*
X1138518Y495453D01*
X1130043Y459184D02*
Y456429D01*
X1131420D01*
X1131880Y456888D01*
Y457347D01*
X1131420Y457806D01*
X1130043D01*
X1131420D01*
X1131880Y458265D01*
Y458725D01*
X1131420Y459184D01*
X1130043D01*
X1132798Y456429D02*
X1133716D01*
X1133257D01*
Y459184D01*
X1132798Y458725D01*
X1228651Y491379D02*
X1228192Y491839D01*
X1227274D01*
X1226815Y491379D01*
Y489543D01*
X1227274Y489083D01*
X1228192D01*
X1228651Y489543D01*
X1231406Y489083D02*
X1229570D01*
X1231406Y490920D01*
Y491379D01*
X1230947Y491839D01*
X1230029D01*
X1229570Y491379D01*
X1228651Y497215D02*
X1228192Y497674D01*
X1227274D01*
X1226815Y497215D01*
Y495378D01*
X1227274Y494919D01*
X1228192D01*
X1228651Y495378D01*
X1229570Y497215D02*
X1230029Y497674D01*
X1230947D01*
X1231406Y497215D01*
Y496756D01*
X1230947Y496297D01*
X1230488D01*
X1230947D01*
X1231406Y495838D01*
Y495378D01*
X1230947Y494919D01*
X1230029D01*
X1229570Y495378D01*
X827910Y480898D02*
X827451Y480439D01*
Y479521D01*
X827910Y479062D01*
X829747D01*
X830206Y479521D01*
Y480439D01*
X829747Y480898D01*
X827451Y483653D02*
Y481817D01*
X828828D01*
X828369Y482735D01*
Y483194D01*
X828828Y483653D01*
X829747D01*
X830206Y483194D01*
Y482276D01*
X829747Y481817D01*
X1094936Y491677D02*
X1094477Y492136D01*
X1093559D01*
X1093100Y491677D01*
Y489840D01*
X1093559Y489381D01*
X1094477D01*
X1094936Y489840D01*
X1095855Y492136D02*
X1097691D01*
Y491677D01*
X1095855Y489840D01*
Y489381D01*
X882239Y463408D02*
X881779Y463868D01*
X880861D01*
X880402Y463408D01*
Y461572D01*
X880861Y461113D01*
X881779D01*
X882239Y461572D01*
X883157Y463408D02*
X883616Y463868D01*
X884534D01*
X884994Y463408D01*
Y462949D01*
X884534Y462490D01*
X884994Y462031D01*
Y461572D01*
X884534Y461113D01*
X883616D01*
X883157Y461572D01*
Y462031D01*
X883616Y462490D01*
X883157Y462949D01*
Y463408D01*
X883616Y462490D02*
X884534D01*
X892282Y463342D02*
X891822Y463801D01*
X890904D01*
X890445Y463342D01*
Y461506D01*
X890904Y461047D01*
X891822D01*
X892282Y461506D01*
X893200D02*
X893659Y461047D01*
X894577D01*
X895037Y461506D01*
Y463342D01*
X894577Y463801D01*
X893659D01*
X893200Y463342D01*
Y462883D01*
X893659Y462424D01*
X895037D01*
X1222106Y587684D02*
X1221647Y588143D01*
X1220728D01*
X1220269Y587684D01*
Y585847D01*
X1220728Y585388D01*
X1221647D01*
X1222106Y585847D01*
X1223024Y585388D02*
X1223943D01*
X1223483D01*
Y588143D01*
X1223024Y587684D01*
X1225320D02*
X1225779Y588143D01*
X1226698D01*
X1227157Y587684D01*
Y585847D01*
X1226698Y585388D01*
X1225779D01*
X1225320Y585847D01*
Y587684D01*
X997986Y502447D02*
X997527Y502906D01*
X996609D01*
X996150Y502447D01*
Y500610D01*
X996609Y500151D01*
X997527D01*
X997986Y500610D01*
X998905Y500151D02*
X999823D01*
X999364D01*
Y502906D01*
X998905Y502447D01*
X1001200Y500151D02*
X1002119D01*
X1001660D01*
Y502906D01*
X1001200Y502447D01*
X985820Y502130D02*
X985361Y502589D01*
X984442D01*
X983983Y502130D01*
Y500293D01*
X984442Y499834D01*
X985361D01*
X985820Y500293D01*
X986738Y499834D02*
X987656D01*
X987197D01*
Y502589D01*
X986738Y502130D01*
X990871Y499834D02*
X989034D01*
X990871Y501671D01*
Y502130D01*
X990411Y502589D01*
X989493D01*
X989034Y502130D01*
X1124114Y498613D02*
X1123655Y499072D01*
X1122736D01*
X1122277Y498613D01*
Y496776D01*
X1122736Y496317D01*
X1123655D01*
X1124114Y496776D01*
X1125032Y496317D02*
X1125951D01*
X1125491D01*
Y499072D01*
X1125032Y498613D01*
X1127328D02*
X1127787Y499072D01*
X1128706D01*
X1129165Y498613D01*
Y498154D01*
X1128706Y497695D01*
X1128246D01*
X1128706D01*
X1129165Y497236D01*
Y496776D01*
X1128706Y496317D01*
X1127787D01*
X1127328Y496776D01*
X1070202Y510391D02*
X1069743Y510850D01*
X1068824D01*
X1068365Y510391D01*
Y508554D01*
X1068824Y508095D01*
X1069743D01*
X1070202Y508554D01*
X1071120Y508095D02*
X1072039D01*
X1071579D01*
Y510850D01*
X1071120Y510391D01*
X1074794Y508095D02*
Y510850D01*
X1073416Y509472D01*
X1075253D01*
X1129689Y537691D02*
X1129230Y538150D01*
X1128312D01*
X1127853Y537691D01*
Y535854D01*
X1128312Y535395D01*
X1129230D01*
X1129689Y535854D01*
X1130608Y535395D02*
X1131526D01*
X1131067D01*
Y538150D01*
X1130608Y537691D01*
X1134740Y538150D02*
X1132904D01*
Y536773D01*
X1133822Y537232D01*
X1134281D01*
X1134740Y536773D01*
Y535854D01*
X1134281Y535395D01*
X1133363D01*
X1132904Y535854D01*
X1092069Y552208D02*
X1091610Y552667D01*
X1090692D01*
X1090233Y552208D01*
Y550371D01*
X1090692Y549912D01*
X1091610D01*
X1092069Y550371D01*
X1092988Y549912D02*
X1093906D01*
X1093447D01*
Y552667D01*
X1092988Y552208D01*
X1097120Y552667D02*
X1096202Y552208D01*
X1095284Y551289D01*
Y550371D01*
X1095743Y549912D01*
X1096661D01*
X1097120Y550371D01*
Y550830D01*
X1096661Y551289D01*
X1095284D01*
X1006198Y532479D02*
X1005739Y532938D01*
X1004820D01*
X1004361Y532479D01*
Y530642D01*
X1004820Y530183D01*
X1005739D01*
X1006198Y530642D01*
X1007116Y530183D02*
X1008034D01*
X1007575D01*
Y532938D01*
X1007116Y532479D01*
X1009412Y532938D02*
X1011249D01*
Y532479D01*
X1009412Y530642D01*
Y530183D01*
X878080Y567927D02*
X877621Y568386D01*
X876702D01*
X876243Y567927D01*
Y566090D01*
X876702Y565631D01*
X877621D01*
X878080Y566090D01*
X878998Y565631D02*
X879917D01*
X879457D01*
Y568386D01*
X878998Y567927D01*
X881294D02*
X881753Y568386D01*
X882672D01*
X883131Y567927D01*
Y567468D01*
X882672Y567009D01*
X883131Y566549D01*
Y566090D01*
X882672Y565631D01*
X881753D01*
X881294Y566090D01*
Y566549D01*
X881753Y567009D01*
X881294Y567468D01*
Y567927D01*
X881753Y567009D02*
X882672D01*
X1192681Y561512D02*
Y558757D01*
X1194058D01*
X1194517Y559216D01*
Y561053D01*
X1194058Y561512D01*
X1192681D01*
X1195436Y558757D02*
X1196354D01*
X1195895D01*
Y561512D01*
X1195436Y561053D01*
X1116096Y478898D02*
Y476143D01*
X1117474D01*
X1117933Y476602D01*
Y478439D01*
X1117474Y478898D01*
X1116096D01*
X1120688Y476143D02*
X1118851D01*
X1120688Y477980D01*
Y478439D01*
X1120229Y478898D01*
X1119310D01*
X1118851Y478439D01*
X781845Y581874D02*
Y579119D01*
X783222D01*
X783682Y579578D01*
Y581415D01*
X783222Y581874D01*
X781845D01*
X784600Y581415D02*
X785059Y581874D01*
X785977D01*
X786437Y581415D01*
Y580956D01*
X785977Y580497D01*
X785518D01*
X785977D01*
X786437Y580038D01*
Y579578D01*
X785977Y579119D01*
X785059D01*
X784600Y579578D01*
X788947Y581874D02*
Y579119D01*
X790324D01*
X790784Y579578D01*
Y581415D01*
X790324Y581874D01*
X788947D01*
X793079Y579119D02*
Y581874D01*
X791702Y580497D01*
X793539D01*
X795478Y581874D02*
Y579119D01*
X796856D01*
X797315Y579578D01*
Y581415D01*
X796856Y581874D01*
X795478D01*
X800070D02*
X798233D01*
Y580497D01*
X799152Y580956D01*
X799611D01*
X800070Y580497D01*
Y579578D01*
X799611Y579119D01*
X798693D01*
X798233Y579578D01*
X1044886Y529764D02*
X1044426Y530223D01*
X1043508D01*
X1043049Y529764D01*
Y529304D01*
X1043508Y528845D01*
X1044426D01*
X1044886Y528386D01*
Y527927D01*
X1044426Y527468D01*
X1043508D01*
X1043049Y527927D01*
X1045804Y530223D02*
Y527468D01*
X1046722Y528386D01*
X1047641Y527468D01*
Y530223D01*
X1048559D02*
Y527468D01*
X1049936D01*
X1050396Y527927D01*
Y529764D01*
X1049936Y530223D01*
X1048559D01*
X1174348Y513627D02*
Y510872D01*
X1176184D01*
X1177103D02*
X1178021D01*
X1177562D01*
Y513627D01*
X1177103Y513168D01*
X1226815Y501197D02*
Y503952D01*
X1228192D01*
X1228651Y503493D01*
Y502575D01*
X1228192Y502116D01*
X1226815D01*
X1227733D02*
X1228651Y501197D01*
X1229570D02*
X1230488D01*
X1230029D01*
Y503952D01*
X1229570Y503493D01*
X1136427Y471515D02*
Y474270D01*
X1137804D01*
X1138264Y473810D01*
Y472892D01*
X1137804Y472433D01*
X1136427D01*
X1137345D02*
X1138264Y471515D01*
X1141018D02*
X1139182D01*
X1141018Y473351D01*
Y473810D01*
X1140559Y474270D01*
X1139641D01*
X1139182Y473810D01*
X1136465Y467768D02*
Y470524D01*
X1137842D01*
X1138302Y470064D01*
Y469146D01*
X1137842Y468687D01*
X1136465D01*
X1137383D02*
X1138302Y467768D01*
X1139220Y470064D02*
X1139679Y470524D01*
X1140598D01*
X1141057Y470064D01*
Y469605D01*
X1140598Y469146D01*
X1140138D01*
X1140598D01*
X1141057Y468687D01*
Y468228D01*
X1140598Y467768D01*
X1139679D01*
X1139220Y468228D01*
X1136392Y464104D02*
Y466859D01*
X1137770D01*
X1138229Y466399D01*
Y465481D01*
X1137770Y465022D01*
X1136392D01*
X1137311D02*
X1138229Y464104D01*
X1140525D02*
Y466859D01*
X1139147Y465481D01*
X1140984D01*
X823503Y479152D02*
X820748D01*
Y480529D01*
X821207Y480989D01*
X822126D01*
X822585Y480529D01*
Y479152D01*
Y480070D02*
X823503Y480989D01*
X820748Y483744D02*
X821207Y482825D01*
X822126Y481907D01*
X823044D01*
X823503Y482366D01*
Y483285D01*
X823044Y483744D01*
X822585D01*
X822126Y483285D01*
Y481907D01*
X1226815Y476787D02*
Y479542D01*
X1228192D01*
X1228651Y479083D01*
Y478165D01*
X1228192Y477706D01*
X1226815D01*
X1227733D02*
X1228651Y476787D01*
X1229570Y479542D02*
X1231406D01*
Y479083D01*
X1229570Y477247D01*
Y476787D01*
X926323Y461789D02*
Y464544D01*
X927700D01*
X928160Y464085D01*
Y463167D01*
X927700Y462708D01*
X926323D01*
X927241D02*
X928160Y461789D01*
X929078Y464085D02*
X929537Y464544D01*
X930455D01*
X930914Y464085D01*
Y463626D01*
X930455Y463167D01*
X930914Y462708D01*
Y462249D01*
X930455Y461789D01*
X929537D01*
X929078Y462249D01*
Y462708D01*
X929537Y463167D01*
X929078Y463626D01*
Y464085D01*
X929537Y463167D02*
X930455D01*
X843534Y479043D02*
X840779D01*
Y480421D01*
X841238Y480880D01*
X842156D01*
X842616Y480421D01*
Y479043D01*
Y479961D02*
X843534Y480880D01*
X843075Y481798D02*
X843534Y482257D01*
Y483176D01*
X843075Y483635D01*
X841238D01*
X840779Y483176D01*
Y482257D01*
X841238Y481798D01*
X841697D01*
X842156Y482257D01*
Y483635D01*
X836955Y479071D02*
X834200D01*
Y480449D01*
X834659Y480908D01*
X835577D01*
X836037Y480449D01*
Y479071D01*
Y479990D02*
X836955Y480908D01*
Y481826D02*
Y482745D01*
Y482285D01*
X834200D01*
X834659Y481826D01*
Y484122D02*
X834200Y484581D01*
Y485500D01*
X834659Y485959D01*
X836496D01*
X836955Y485500D01*
Y484581D01*
X836496Y484122D01*
X834659D01*
X1127503Y466792D02*
Y469548D01*
X1128881D01*
X1129340Y469088D01*
Y468170D01*
X1128881Y467711D01*
X1127503D01*
X1128422D02*
X1129340Y466792D01*
X1130259D02*
X1131177D01*
X1130718D01*
Y469548D01*
X1130259Y469088D01*
X1132554Y466792D02*
X1133473D01*
X1133014D01*
Y469548D01*
X1132554Y469088D01*
X1062037Y523236D02*
Y525991D01*
X1063415D01*
X1063874Y525532D01*
Y524614D01*
X1063415Y524155D01*
X1062037D01*
X1062956D02*
X1063874Y523236D01*
X1064792D02*
X1065711D01*
X1065252D01*
Y525991D01*
X1064792Y525532D01*
X1068925Y523236D02*
X1067088D01*
X1068925Y525073D01*
Y525532D01*
X1068466Y525991D01*
X1067547D01*
X1067088Y525532D01*
X962786Y520907D02*
Y523662D01*
X964164D01*
X964623Y523203D01*
Y522285D01*
X964164Y521825D01*
X962786D01*
X963705D02*
X964623Y520907D01*
X965541D02*
X966460D01*
X966000D01*
Y523662D01*
X965541Y523203D01*
X967837D02*
X968296Y523662D01*
X969215D01*
X969674Y523203D01*
Y522744D01*
X969215Y522285D01*
X968755D01*
X969215D01*
X969674Y521825D01*
Y521366D01*
X969215Y520907D01*
X968296D01*
X967837Y521366D01*
X1035169Y554602D02*
Y557357D01*
X1036547D01*
X1037006Y556898D01*
Y555980D01*
X1036547Y555521D01*
X1035169D01*
X1036088D02*
X1037006Y554602D01*
X1037924D02*
X1038843D01*
X1038383D01*
Y557357D01*
X1037924Y556898D01*
X1041598Y554602D02*
Y557357D01*
X1040220Y555980D01*
X1042057D01*
X899197Y582318D02*
Y585074D01*
X900574D01*
X901033Y584614D01*
Y583696D01*
X900574Y583237D01*
X899197D01*
X900115D02*
X901033Y582318D01*
X901952D02*
X902870D01*
X902411D01*
Y585074D01*
X901952Y584614D01*
X906084Y585074D02*
X904247D01*
Y583696D01*
X905166Y584155D01*
X905625D01*
X906084Y583696D01*
Y582778D01*
X905625Y582318D01*
X904706D01*
X904247Y582778D01*
X908722Y575809D02*
Y578565D01*
X910099D01*
X910558Y578105D01*
Y577187D01*
X910099Y576728D01*
X908722D01*
X909640D02*
X910558Y575809D01*
X911477D02*
X912395D01*
X911936D01*
Y578565D01*
X911477Y578105D01*
X915609Y578565D02*
X914691Y578105D01*
X913772Y577187D01*
Y576269D01*
X914232Y575809D01*
X915150D01*
X915609Y576269D01*
Y576728D01*
X915150Y577187D01*
X913772D01*
X1124948Y539522D02*
Y542277D01*
X1126325D01*
X1126784Y541818D01*
Y540900D01*
X1126325Y540441D01*
X1124948D01*
X1125866D02*
X1126784Y539522D01*
X1127703D02*
X1128621D01*
X1128162D01*
Y542277D01*
X1127703Y541818D01*
X1129998Y542277D02*
X1131835D01*
Y541818D01*
X1129998Y539982D01*
Y539522D01*
X1134700Y540281D02*
Y543037D01*
X1136077D01*
X1136536Y542577D01*
Y541659D01*
X1136077Y541200D01*
X1134700D01*
X1135618D02*
X1136536Y540281D01*
X1137455D02*
X1138373D01*
X1137914D01*
Y543037D01*
X1137455Y542577D01*
X1139750D02*
X1140210Y543037D01*
X1141128D01*
X1141587Y542577D01*
Y542118D01*
X1141128Y541659D01*
X1141587Y541200D01*
Y540741D01*
X1141128Y540281D01*
X1140210D01*
X1139750Y540741D01*
Y541200D01*
X1140210Y541659D01*
X1139750Y542118D01*
Y542577D01*
X1140210Y541659D02*
X1141128D01*
X815295Y577308D02*
Y580063D01*
X816673D01*
X817132Y579604D01*
Y578685D01*
X816673Y578226D01*
X815295D01*
X816214D02*
X817132Y577308D01*
X818050D02*
X818969D01*
X818509D01*
Y580063D01*
X818050Y579604D01*
X820346Y577767D02*
X820805Y577308D01*
X821724D01*
X822183Y577767D01*
Y579604D01*
X821724Y580063D01*
X820805D01*
X820346Y579604D01*
Y579144D01*
X820805Y578685D01*
X822183D01*
X807813Y563420D02*
Y566176D01*
X809190D01*
X809649Y565716D01*
Y564798D01*
X809190Y564339D01*
X807813D01*
X808731D02*
X809649Y563420D01*
X812404D02*
X810568D01*
X812404Y565257D01*
Y565716D01*
X811945Y566176D01*
X811027D01*
X810568Y565716D01*
X813323D02*
X813782Y566176D01*
X814700D01*
X815159Y565716D01*
Y563880D01*
X814700Y563420D01*
X813782D01*
X813323Y563880D01*
Y565716D01*
X801452Y577283D02*
Y580038D01*
X802830D01*
X803289Y579579D01*
Y578661D01*
X802830Y578202D01*
X801452D01*
X802371D02*
X803289Y577283D01*
X806044D02*
X804207D01*
X806044Y579120D01*
Y579579D01*
X805585Y580038D01*
X804667D01*
X804207Y579579D01*
X806962Y577283D02*
X807881D01*
X807422D01*
Y580038D01*
X806962Y579579D01*
X1057422Y550405D02*
X1059258D01*
X1058340D01*
Y547650D01*
X1060177D02*
X1061095D01*
X1060636D01*
Y550405D01*
X1060177Y549945D01*
X882335Y480877D02*
Y478581D01*
X882794Y478122D01*
X883712D01*
X884171Y478581D01*
Y480877D01*
X885090Y480417D02*
X885549Y480877D01*
X886467D01*
X886926Y480417D01*
Y479958D01*
X886467Y479499D01*
X886008D01*
X886467D01*
X886926Y479040D01*
Y478581D01*
X886467Y478122D01*
X885549D01*
X885090Y478581D01*
X807646Y466443D02*
Y464147D01*
X808106Y463688D01*
X809024D01*
X809483Y464147D01*
Y466443D01*
X811779Y463688D02*
Y466443D01*
X810402Y465065D01*
X812238D01*
X1171881Y502010D02*
Y499715D01*
X1172340Y499256D01*
X1173259D01*
X1173718Y499715D01*
Y502010D01*
X1176473D02*
X1174636D01*
Y500633D01*
X1175554Y501092D01*
X1176014D01*
X1176473Y500633D01*
Y499715D01*
X1176014Y499256D01*
X1175095D01*
X1174636Y499715D01*
X1199485Y590835D02*
Y588539D01*
X1199944Y588080D01*
X1200863D01*
X1201322Y588539D01*
Y590835D01*
X1204077D02*
X1203158Y590375D01*
X1202240Y589457D01*
Y588539D01*
X1202699Y588080D01*
X1203618D01*
X1204077Y588539D01*
Y588998D01*
X1203618Y589457D01*
X1202240D01*
X880417Y585339D02*
Y583043D01*
X880877Y582584D01*
X881795D01*
X882254Y583043D01*
Y585339D01*
X883172Y584880D02*
X883632Y585339D01*
X884550D01*
X885009Y584880D01*
Y584421D01*
X884550Y583962D01*
X885009Y583503D01*
Y583043D01*
X884550Y582584D01*
X883632D01*
X883172Y583043D01*
Y583503D01*
X883632Y583962D01*
X883172Y584421D01*
Y584880D01*
X883632Y583962D02*
X884550D01*
X1085706Y504558D02*
Y502262D01*
X1086165Y501803D01*
X1087083D01*
X1087543Y502262D01*
Y504558D01*
X1088461Y502262D02*
X1088920Y501803D01*
X1089838D01*
X1090298Y502262D01*
Y504099D01*
X1089838Y504558D01*
X1088920D01*
X1088461Y504099D01*
Y503640D01*
X1088920Y503181D01*
X1090298D01*
X1118713Y558904D02*
Y556608D01*
X1119173Y556149D01*
X1120091D01*
X1120550Y556608D01*
Y558904D01*
X1123305Y558445D02*
X1122846Y558904D01*
X1121928D01*
X1121468Y558445D01*
Y557986D01*
X1121928Y557527D01*
X1122846D01*
X1123305Y557068D01*
Y556608D01*
X1122846Y556149D01*
X1121928D01*
X1121468Y556608D01*
X1124223Y558904D02*
Y556149D01*
X1125601D01*
X1126060Y556608D01*
Y557068D01*
X1125601Y557527D01*
X1124223D01*
X1125601D01*
X1126060Y557986D01*
Y558445D01*
X1125601Y558904D01*
X1124223D01*
X1134554Y513675D02*
X1136390Y510920D01*
Y513675D02*
X1134554Y510920D01*
X1137309D02*
X1138227D01*
X1137768D01*
Y513675D01*
X1137309Y513216D01*
X967682Y528981D02*
X967223Y529440D01*
X966304D01*
X965845Y528981D01*
Y527145D01*
X966304Y526685D01*
X967223D01*
X967682Y527145D01*
X968600Y526685D02*
X969519D01*
X969059D01*
Y529440D01*
X968600Y528981D01*
X970896Y527145D02*
X971355Y526685D01*
X972274D01*
X972733Y527145D01*
Y528981D01*
X972274Y529440D01*
X971355D01*
X970896Y528981D01*
Y528522D01*
X971355Y528063D01*
X972733D01*
X988835Y536910D02*
Y534615D01*
X989295Y534156D01*
X990213D01*
X990672Y534615D01*
Y536910D01*
X991590D02*
X993427D01*
Y536451D01*
X991590Y534615D01*
Y534156D01*
X1228651Y485013D02*
X1228192Y485472D01*
X1227274D01*
X1226815Y485013D01*
Y483177D01*
X1227274Y482717D01*
X1228192D01*
X1228651Y483177D01*
X1231406Y482717D02*
X1229570D01*
X1231406Y484554D01*
Y485013D01*
X1230947Y485472D01*
X1230029D01*
X1229570Y485013D01*
X1232325D02*
X1232784Y485472D01*
X1233702D01*
X1234161Y485013D01*
Y483177D01*
X1233702Y482717D01*
X1232784D01*
X1232325Y483177D01*
Y485013D01*
X937087Y476036D02*
Y478791D01*
X938464D01*
X938923Y478332D01*
Y477413D01*
X938464Y476954D01*
X937087D01*
X938005D02*
X938923Y476036D01*
X941678D02*
X939842D01*
X941678Y477873D01*
Y478332D01*
X941219Y478791D01*
X940301D01*
X939842Y478332D01*
X944433Y476036D02*
X942597D01*
X944433Y477873D01*
Y478332D01*
X943974Y478791D01*
X943056D01*
X942597Y478332D01*
X938669Y479940D02*
Y482695D01*
X940047D01*
X940506Y482236D01*
Y481318D01*
X940047Y480859D01*
X938669D01*
X939588D02*
X940506Y479940D01*
X943261D02*
X941424D01*
X943261Y481777D01*
Y482236D01*
X942802Y482695D01*
X941883D01*
X941424Y482236D01*
X944179D02*
X944639Y482695D01*
X945557D01*
X946016Y482236D01*
Y481777D01*
X945557Y481318D01*
X945098D01*
X945557D01*
X946016Y480859D01*
Y480399D01*
X945557Y479940D01*
X944639D01*
X944179Y480399D01*
X1144734Y482103D02*
X1143816D01*
X1144275D01*
Y479807D01*
X1143816Y479348D01*
X1143357D01*
X1142898Y479807D01*
X1147489Y479348D02*
X1145653D01*
X1147489Y481185D01*
Y481644D01*
X1147030Y482103D01*
X1146112D01*
X1145653Y481644D01*
X1148408Y479348D02*
X1149326D01*
X1148867D01*
Y482103D01*
X1148408Y481644D01*
X1207043Y449054D02*
Y451809D01*
X1208420D01*
X1208879Y451350D01*
Y450431D01*
X1208420Y449972D01*
X1207043D01*
X1207961D02*
X1208879Y449054D01*
X1211175D02*
X1210257D01*
X1209798Y449513D01*
Y450431D01*
X1210257Y450891D01*
X1211175D01*
X1211634Y450431D01*
Y449972D01*
X1209798D01*
X1212553Y450891D02*
X1213471Y449054D01*
X1214389Y450891D01*
X1217144Y449054D02*
X1215308D01*
X1217144Y450891D01*
Y451350D01*
X1216685Y451809D01*
X1215767D01*
X1215308Y451350D01*
X1052962Y512848D02*
X1055717D01*
X1052962Y511012D01*
X1055717D01*
X1052962Y510093D02*
X1055717D01*
Y508716D01*
X1055258Y508257D01*
X1054340D01*
X1053881Y508716D01*
Y510093D01*
Y509175D02*
X1052962Y508257D01*
X1055258Y505502D02*
X1055717Y505961D01*
Y506879D01*
X1055258Y507338D01*
X1054799D01*
X1054340Y506879D01*
Y505961D01*
X1053881Y505502D01*
X1053421D01*
X1052962Y505961D01*
Y506879D01*
X1053421Y507338D01*
X1055717Y504583D02*
Y502747D01*
Y503665D01*
X1052962D01*
X1047835Y512848D02*
X1045080D01*
Y511471D01*
X1045539Y511012D01*
X1047376D01*
X1047835Y511471D01*
Y512848D01*
Y510093D02*
Y509175D01*
Y509634D01*
X1045080D01*
Y510093D01*
Y509175D01*
X1047835Y506420D02*
Y507338D01*
X1047376Y507798D01*
X1045539D01*
X1045080Y507338D01*
Y506420D01*
X1045539Y505961D01*
X1047376D01*
X1047835Y506420D01*
X1039246Y511012D02*
X1039705Y511471D01*
Y512389D01*
X1039246Y512848D01*
X1037409D01*
X1036950Y512389D01*
Y511471D01*
X1037409Y511012D01*
X1039705Y510093D02*
X1036950D01*
Y508257D01*
X1039705Y507338D02*
X1036950D01*
X1037868D01*
X1039705Y505502D01*
X1038328Y506879D01*
X1036950Y505502D01*
X908291Y458657D02*
X906454D01*
Y457280D01*
X907372Y457739D01*
X907831D01*
X908291Y457280D01*
Y456361D01*
X907831Y455902D01*
X906913D01*
X906454Y456361D01*
X909209Y458657D02*
Y456821D01*
X910127Y455902D01*
X911046Y456821D01*
Y458657D01*
X914680D02*
Y455902D01*
X916057D01*
X916516Y456361D01*
Y456821D01*
X916057Y457280D01*
X914680D01*
X916057D01*
X916516Y457739D01*
Y458198D01*
X916057Y458657D01*
X914680D01*
X919271D02*
X917435D01*
Y455902D01*
X919271D01*
X917435Y457280D02*
X918353D01*
X922026Y458198D02*
X921567Y458657D01*
X920649D01*
X920190Y458198D01*
Y456361D01*
X920649Y455902D01*
X921567D01*
X922026Y456361D01*
X923153Y539245D02*
X924990Y541082D01*
X925908Y539245D02*
Y542000D01*
X927286D01*
X927745Y541541D01*
Y540622D01*
X927286Y540163D01*
X925908D01*
X928663Y539245D02*
Y542000D01*
X930041D01*
X930500Y541541D01*
Y540622D01*
X930041Y540163D01*
X928663D01*
X931418Y539245D02*
Y542000D01*
X932337Y541082D01*
X933255Y542000D01*
Y539245D01*
X1086955Y472615D02*
X1088119Y470118D01*
X1089784Y470894D01*
X1091865Y471864D02*
X1091032Y471476D01*
X1090422Y471698D01*
X1090034Y472531D01*
X1090256Y473141D01*
X1091088Y473529D01*
X1091699Y473307D01*
X1091893Y472891D01*
X1090228Y472114D01*
X1093529Y472640D02*
X1092559Y474721D01*
X1092947Y473889D01*
X1092531Y473695D01*
X1093363Y474083D01*
X1092947Y473889D01*
X1092559Y474721D01*
X1092781Y475331D01*
X1094640Y475691D02*
X1094834Y475275D01*
X1094418Y475081D01*
X1095250Y475469D01*
X1094834Y475275D01*
X1095416Y474027D01*
X1096026Y473805D01*
X1100272Y478824D02*
X1098607Y478048D01*
X1099771Y475551D01*
X1101436Y476327D01*
X1099189Y476800D02*
X1100022Y477188D01*
X1102963Y479572D02*
X1102353Y479795D01*
X1101520Y479406D01*
X1101298Y478796D01*
X1101492Y478380D01*
X1102102Y478158D01*
X1102935Y478546D01*
X1103545Y478324D01*
X1103739Y477908D01*
X1103517Y477298D01*
X1102684Y476910D01*
X1102074Y477132D01*
X1105460Y480737D02*
X1104849Y480959D01*
X1104017Y480571D01*
X1103795Y479961D01*
X1104571Y478296D01*
X1105181Y478074D01*
X1106014Y478462D01*
X1106236Y479072D01*
X1086750Y567712D02*
X1087915Y570209D01*
X1089163Y569627D01*
X1089385Y569016D01*
X1088997Y568184D01*
X1088387Y567962D01*
X1087138Y568544D01*
X1087971Y568156D02*
X1088415Y566936D01*
X1089247Y566547D02*
X1090080Y566159D01*
X1089664Y566353D01*
X1090440Y568018D01*
X1090024Y568212D01*
X1091772Y564357D02*
X1092188Y564163D01*
X1092799Y564385D01*
X1093769Y566466D01*
X1092520Y567048D01*
X1091910Y566826D01*
X1091522Y565993D01*
X1091744Y565383D01*
X1092993Y564801D01*
X1094989Y566910D02*
X1093825Y564413D01*
X1094407Y565661D01*
X1095017Y565883D01*
X1095850Y565495D01*
X1096072Y564885D01*
X1095490Y563637D01*
X1097708Y565135D02*
X1097514Y564719D01*
X1097098Y564913D01*
X1097930Y564525D01*
X1097514Y564719D01*
X1096932Y563471D01*
X1097154Y562860D01*
X1103728Y562835D02*
X1102064Y563611D01*
X1100900Y561114D01*
X1102564Y560338D01*
X1101482Y562362D02*
X1102314Y561974D01*
X1106031Y561254D02*
X1105809Y561864D01*
X1104977Y562253D01*
X1104367Y562030D01*
X1104173Y561614D01*
X1104395Y561004D01*
X1105227Y560616D01*
X1105449Y560006D01*
X1105255Y559590D01*
X1104645Y559368D01*
X1103813Y559756D01*
X1103590Y560366D01*
X1108528Y560090D02*
X1108306Y560700D01*
X1107474Y561088D01*
X1106863Y560866D01*
X1106087Y559201D01*
X1106309Y558591D01*
X1107142Y558203D01*
X1107752Y558425D01*
X956352Y508724D02*
X956811Y509183D01*
X957730D01*
X958189Y508724D01*
Y508265D01*
X957730Y507805D01*
X957270D01*
X957730D01*
X958189Y507346D01*
Y506887D01*
X957730Y506428D01*
X956811D01*
X956352Y506887D01*
X959107Y506428D02*
Y506887D01*
X959566D01*
Y506428D01*
X959107D01*
X961403Y508724D02*
X961862Y509183D01*
X962780D01*
X963239Y508724D01*
Y508265D01*
X962780Y507805D01*
X962321D01*
X962780D01*
X963239Y507346D01*
Y506887D01*
X962780Y506428D01*
X961862D01*
X961403Y506887D01*
X964158Y509183D02*
Y507346D01*
X965076Y506428D01*
X965994Y507346D01*
Y509183D01*
X971505D02*
X969668D01*
Y507805D01*
X970586Y508265D01*
X971045D01*
X971505Y507805D01*
Y506887D01*
X971045Y506428D01*
X970127D01*
X969668Y506887D01*
X972423Y509183D02*
Y507346D01*
X973341Y506428D01*
X974260Y507346D01*
Y509183D01*
X959614Y504387D02*
Y502091D01*
X960073Y501631D01*
X960991D01*
X961450Y502091D01*
Y504387D01*
X962369Y501631D02*
Y503468D01*
X963287Y504387D01*
X964205Y503468D01*
Y501631D01*
Y503009D01*
X962369D01*
X965124Y501631D02*
Y504387D01*
X966501D01*
X966961Y503927D01*
Y503009D01*
X966501Y502550D01*
X965124D01*
X966042D02*
X966961Y501631D01*
X967879Y504387D02*
X969715D01*
X968797D01*
Y501631D01*
X970634D02*
X971552D01*
X971093D01*
Y504387D01*
X970634Y503927D01*
X972930Y503009D02*
X974766D01*
X975685Y504387D02*
Y502550D01*
X976603Y501631D01*
X977521Y502550D01*
Y504387D01*
X916936Y565421D02*
Y562666D01*
Y564043D01*
X918773D01*
Y565421D01*
Y562666D01*
X906839Y565421D02*
Y562666D01*
X908676D01*
X923107Y542865D02*
Y545620D01*
X924484D01*
X924943Y545160D01*
Y544242D01*
X924484Y543783D01*
X923107D01*
X925862Y545620D02*
Y542865D01*
X926780Y543783D01*
X927698Y542865D01*
Y545620D01*
X928617Y542865D02*
Y545620D01*
X929535Y544701D01*
X930453Y545620D01*
Y542865D01*
X933208Y545620D02*
X932290Y545160D01*
X931372Y544242D01*
Y543324D01*
X931831Y542865D01*
X932749D01*
X933208Y543324D01*
Y543783D01*
X932749Y544242D01*
X931372D01*
X923256Y533365D02*
Y536120D01*
X924633D01*
X925093Y535660D01*
Y534742D01*
X924633Y534283D01*
X923256D01*
X926011Y536120D02*
Y533365D01*
X926929Y534283D01*
X927848Y533365D01*
Y536120D01*
X928766Y533365D02*
Y536120D01*
X929684Y535201D01*
X930603Y536120D01*
Y533365D01*
X933358Y536120D02*
X931521D01*
Y534742D01*
X932439Y535201D01*
X932899D01*
X933358Y534742D01*
Y533824D01*
X932899Y533365D01*
X931980D01*
X931521Y533824D01*
X928467Y509982D02*
X930763D01*
X931223Y510441D01*
Y511360D01*
X930763Y511819D01*
X928467D01*
X931223Y512737D02*
X929386D01*
X928467Y513656D01*
X929386Y514574D01*
X931223D01*
X929845D01*
Y512737D01*
X931223Y515492D02*
X928467D01*
Y516870D01*
X928927Y517329D01*
X929845D01*
X930304Y516870D01*
Y515492D01*
Y516411D02*
X931223Y517329D01*
X928467Y518247D02*
Y520084D01*
Y519166D01*
X931223D01*
Y521002D02*
Y521921D01*
Y521461D01*
X928467D01*
X928927Y521002D01*
X874213Y514076D02*
X876509D01*
X876968Y514535D01*
Y515453D01*
X876509Y515912D01*
X874213D01*
X876968Y516831D02*
X875131D01*
X874213Y517749D01*
X875131Y518667D01*
X876968D01*
X875590D01*
Y516831D01*
X876968Y519586D02*
X874213D01*
Y520963D01*
X874672Y521422D01*
X875590D01*
X876049Y520963D01*
Y519586D01*
Y520504D02*
X876968Y521422D01*
X874213Y522341D02*
Y524177D01*
Y523259D01*
X876968D01*
Y526932D02*
Y525096D01*
X875131Y526932D01*
X874672D01*
X874213Y526473D01*
Y525555D01*
X874672Y525096D01*
X870382Y513948D02*
X872678D01*
X873137Y514407D01*
Y515325D01*
X872678Y515785D01*
X870382D01*
X873137Y516703D02*
X871300D01*
X870382Y517621D01*
X871300Y518540D01*
X873137D01*
X871760D01*
Y516703D01*
X873137Y519458D02*
X870382D01*
Y520836D01*
X870841Y521295D01*
X871760D01*
X872219Y520836D01*
Y519458D01*
Y520376D02*
X873137Y521295D01*
X870382Y522213D02*
Y524050D01*
Y523131D01*
X873137D01*
X870841Y524968D02*
X870382Y525427D01*
Y526346D01*
X870841Y526805D01*
X871300D01*
X871760Y526346D01*
Y525886D01*
Y526346D01*
X872219Y526805D01*
X872678D01*
X873137Y526346D01*
Y525427D01*
X872678Y524968D01*
X926379Y487572D02*
X927297D01*
X926838D01*
Y484817D01*
X926379D01*
X927297D01*
X930512D02*
X928675D01*
X930512Y486653D01*
Y487112D01*
X930052Y487572D01*
X929134D01*
X928675Y487112D01*
X933267D02*
X932808Y487572D01*
X931889D01*
X931430Y487112D01*
Y485276D01*
X931889Y484817D01*
X932808D01*
X933267Y485276D01*
X1165701Y445983D02*
Y443228D01*
X1167078D01*
X1167537Y443687D01*
Y444146D01*
X1167078Y444605D01*
X1165701D01*
X1167078D01*
X1167537Y445064D01*
Y445523D01*
X1167078Y445983D01*
X1165701D01*
X1170292D02*
X1168456D01*
Y443228D01*
X1170292D01*
X1168456Y444605D02*
X1169374D01*
X1173048Y445523D02*
X1172588Y445983D01*
X1171670D01*
X1171211Y445523D01*
Y443687D01*
X1171670Y443228D01*
X1172588D01*
X1173048Y443687D01*
X1173966Y444605D02*
X1175803D01*
X1176721Y445983D02*
Y444146D01*
X1177639Y443228D01*
X1178558Y444146D01*
Y445983D01*
X1165631Y449281D02*
X1166091Y449741D01*
X1167009D01*
X1167468Y449281D01*
Y448822D01*
X1167009Y448363D01*
X1167468Y447904D01*
Y447445D01*
X1167009Y446985D01*
X1166091D01*
X1165631Y447445D01*
Y447904D01*
X1166091Y448363D01*
X1165631Y448822D01*
Y449281D01*
X1166091Y448363D02*
X1167009D01*
X1168386Y449741D02*
Y447904D01*
X1169305Y446985D01*
X1170223Y447904D01*
Y449741D01*
X1167336Y461277D02*
X1166418Y460817D01*
X1165500Y459899D01*
Y458981D01*
X1165959Y458522D01*
X1166877D01*
X1167336Y458981D01*
Y459440D01*
X1166877Y459899D01*
X1165500D01*
X1168255Y461277D02*
Y459440D01*
X1169173Y458522D01*
X1170091Y459440D01*
Y461277D01*
X937407Y542429D02*
Y543078D01*
X936758Y543728D01*
X936108D01*
X935784Y543403D01*
Y542754D01*
X936433Y542104D01*
Y541455D01*
X936108Y541130D01*
X935459D01*
X934810Y541780D01*
Y542429D01*
X937407Y539182D02*
X936758Y539831D01*
Y540481D01*
X937407Y541130D01*
X938057D01*
X938706Y540481D01*
Y539831D01*
X938381Y539507D01*
X937082Y540806D01*
X939680Y539507D02*
X938381Y538208D01*
X939031Y538858D01*
X939680D01*
X940329D01*
X940654Y538533D01*
X941628Y537559D02*
X940979Y535611D01*
X942927Y536260D01*
X942602Y533987D02*
X943252Y533338D01*
X943901D01*
X944550Y533987D01*
Y534637D01*
X943901Y535286D01*
X943252D01*
X942602Y534637D01*
Y533987D01*
X957237Y529732D02*
X955939Y528433D01*
X956913Y527459D01*
X957562Y528108D01*
X956913Y527459D01*
X957887Y526485D01*
X960809Y529407D02*
X960159Y528758D01*
X959510D01*
X958861Y529407D01*
Y530056D01*
X959510Y530706D01*
X960159D01*
X960484Y530381D01*
X959185Y529082D01*
X962757Y531355D02*
X962107Y530706D01*
X961458D01*
X960809Y531355D01*
Y532005D01*
X961458Y532654D01*
X962107D01*
X962432Y532329D01*
X961133Y531031D01*
X963081Y535576D02*
X965030Y533628D01*
X964056Y532654D01*
X963406D01*
X962757Y533303D01*
Y533953D01*
X963731Y534927D01*
Y536226D02*
X965679Y534277D01*
X966653Y535252D01*
Y535901D01*
X966328Y536226D01*
X966004Y536550D01*
X965354D01*
X964380Y535576D01*
X966653Y537849D02*
X967302Y538498D01*
X967952D01*
X968926Y537524D01*
X967952Y536550D01*
X967302D01*
Y537199D01*
X968276Y538174D01*
X969575Y540771D02*
X968601Y539797D01*
Y539148D01*
X969250Y538498D01*
X969900D01*
X970874Y539472D01*
X971523Y540122D02*
X969575Y542070D01*
X970874Y540771D02*
X971199Y542394D01*
X970874Y540771D02*
X972497Y541096D01*
X930089Y503663D02*
X932037Y501715D01*
X933011Y502689D01*
Y503338D01*
X932686Y503663D01*
X932037D01*
X931063Y502689D01*
X932037Y503663D01*
Y504312D01*
X931712Y504637D01*
X931063D01*
X930089Y503663D01*
X933011Y505287D02*
X933660Y505936D01*
X934309D01*
X935283Y504962D01*
X934309Y503988D01*
X933660D01*
Y504637D01*
X934634Y505611D01*
X935933Y508209D02*
X934959Y507235D01*
Y506585D01*
X935608Y505936D01*
X936257D01*
X937232Y506910D01*
X937881Y507559D02*
X935933Y509507D01*
X937232Y508209D02*
X937556Y509832D01*
X937232Y508209D02*
X938855Y508533D01*
X941128Y514702D02*
X939829Y513404D01*
X941777Y511455D01*
X943076Y512754D01*
X940803Y512430D02*
X941452Y513079D01*
X943400Y516326D02*
X942751D01*
X942102Y515676D01*
Y515027D01*
X942426Y514702D01*
X943076D01*
X943725Y515352D01*
X944374D01*
X944699Y515027D01*
Y514378D01*
X944050Y513728D01*
X943400D01*
X945349Y518274D02*
X944699D01*
X944050Y517624D01*
Y516975D01*
X945349Y515676D01*
X945998D01*
X946647Y516326D01*
Y516975D01*
X890236Y514126D02*
X887481D01*
Y515504D01*
X887940Y515963D01*
X888859D01*
X889318Y515504D01*
Y514126D01*
Y515044D02*
X890236Y515963D01*
X887481Y516881D02*
X890236Y518718D01*
X887481D02*
X890236Y516881D01*
X887481Y523492D02*
Y525329D01*
Y524411D01*
X890236D01*
X887481Y526248D02*
X890236Y528084D01*
X887481D02*
X890236Y526248D01*
X910522Y568785D02*
X910063Y569244D01*
X909145D01*
X908685Y568785D01*
Y566949D01*
X909145Y566489D01*
X910063D01*
X910522Y566949D01*
X911440Y566489D02*
Y568326D01*
X912359Y569244D01*
X913277Y568326D01*
Y566489D01*
Y567867D01*
X911440D01*
X914196Y566489D02*
Y569244D01*
X916032Y566489D01*
Y569244D01*
X893238Y565193D02*
Y562438D01*
X895074D01*
X897830Y565193D02*
X895993D01*
Y562438D01*
X897830D01*
X895993Y563815D02*
X896911D01*
X898748Y565193D02*
Y562438D01*
X900125D01*
X900585Y562897D01*
Y564734D01*
X900125Y565193D01*
X898748D01*
X1122466Y471750D02*
X1119711D01*
Y470373D01*
X1120170Y469914D01*
X1120629D01*
X1121089Y470373D01*
Y471750D01*
Y470373D01*
X1121548Y469914D01*
X1122007D01*
X1122466Y470373D01*
Y471750D01*
Y467618D02*
Y468536D01*
X1122007Y468995D01*
X1120170D01*
X1119711Y468536D01*
Y467618D01*
X1120170Y467159D01*
X1122007D01*
X1122466Y467618D01*
Y464863D02*
Y465781D01*
X1122007Y466240D01*
X1120170D01*
X1119711Y465781D01*
Y464863D01*
X1120170Y464404D01*
X1122007D01*
X1122466Y464863D01*
Y463485D02*
Y461649D01*
Y462567D01*
X1119711D01*
X1118403Y471750D02*
X1115648D01*
Y470373D01*
X1116108Y469914D01*
X1116567D01*
X1117026Y470373D01*
Y471750D01*
Y470373D01*
X1117485Y469914D01*
X1117944D01*
X1118403Y470373D01*
Y471750D01*
Y468995D02*
X1116108D01*
X1115648Y468536D01*
Y467618D01*
X1116108Y467159D01*
X1118403D01*
Y466240D02*
Y464404D01*
Y465322D01*
X1115648D01*
X1118403Y463485D02*
Y461649D01*
Y462567D01*
X1115648D01*
X1118403Y459353D02*
Y460271D01*
X1117944Y460730D01*
X1116108D01*
X1115648Y460271D01*
Y459353D01*
X1116108Y458894D01*
X1117944D01*
X1118403Y459353D01*
X1115648Y457975D02*
X1118403D01*
X1115648Y456139D01*
X1118403D01*
X924585Y504285D02*
X924126Y503826D01*
Y502908D01*
X924585Y502449D01*
X925044D01*
X925504Y502908D01*
Y503826D01*
X925963Y504285D01*
X926422D01*
X926881Y503826D01*
Y502908D01*
X926422Y502449D01*
X924126Y507041D02*
Y505204D01*
X926881D01*
Y507041D01*
X925504Y505204D02*
Y506122D01*
X926881Y507959D02*
X924126D01*
Y509336D01*
X924585Y509796D01*
X925504D01*
X925963Y509336D01*
Y507959D01*
Y508877D02*
X926881Y509796D01*
X924126Y510714D02*
Y511632D01*
Y511173D01*
X926881D01*
Y510714D01*
Y511632D01*
Y513010D02*
X925044D01*
X924126Y513928D01*
X925044Y514846D01*
X926881D01*
X925504D01*
Y513010D01*
X924126Y515765D02*
X926881D01*
Y517601D01*
Y521275D02*
X924126D01*
Y522652D01*
X924585Y523111D01*
X925504D01*
X925963Y522652D01*
Y521275D01*
Y522193D02*
X926881Y523111D01*
X924126Y524030D02*
X926881Y525867D01*
X924126D02*
X926881Y524030D01*
Y526785D02*
X925044Y528621D01*
X1233068Y592835D02*
G03*
X1217579Y600111I-15664J-13221D01*
G01*
X1217591Y442672D02*
G03*
X1233080Y449948I-175J20497D01*
G01*
X880412Y611114D02*
G03*
X885495Y613312I-35534J89131D01*
G01*
X885527Y429516D02*
G03*
X880444Y431715I-40617J-86933D01*
G01*
X755095Y547005D02*
G03*
X755095Y547005I-6102J0D01*
G01*
Y495825D02*
G03*
X755095Y495825I-6102J0D01*
G01*
X873206D02*
G03*
X873206Y495825I-6102J0D01*
G01*
Y547005D02*
G03*
X873206Y547005I-6102J0D01*
G01*
X999188Y413147D02*
G03*
X999188Y413147I-6102J0D01*
G01*
X1066117Y348188D02*
G03*
X1066117Y348188I-6102J0D01*
G01*
X1188164Y462662D02*
G03*
X1188164Y462662I-6102J0D01*
G01*
X1188105Y579993D02*
G03*
X1188105Y579993I-6102J0D01*
G01*
X999187Y629683D02*
G03*
X999187Y629683I-6102J0D01*
G01*
X1066117Y694642D02*
G03*
X1066117Y694642I-6102J0D01*
G01*
X1166186Y600154D02*
X1217504D01*
X1099391D02*
X1166186D01*
X1016714Y329514D02*
X1020651Y324561D01*
X1012729Y334348D02*
X1016714Y329514D01*
X1008701Y339065D02*
X1012729Y334348D01*
X1004632Y343665D02*
X1008701Y339065D01*
X1000522Y348150D02*
X1004632Y343665D01*
X996375Y352521D02*
X1000522Y348150D01*
X992192Y356779D02*
X996375Y352521D01*
X987975Y360926D02*
X992192Y356779D01*
X983117Y365533D02*
X987975Y360926D01*
X978221Y369998D02*
X983117Y365533D01*
X973289Y374326D02*
X978221Y369998D01*
X968327Y378516D02*
X973289Y374326D01*
X963335Y382573D02*
X968327Y378516D01*
X958318Y386498D02*
X963335Y382573D01*
X953278Y390293D02*
X958318Y386498D01*
X948218Y393961D02*
X953278Y390293D01*
X943142Y397502D02*
X948218Y393961D01*
X939442Y399999D02*
X943142Y397502D01*
X935736Y402433D02*
X939442Y399999D01*
X932025Y404804D02*
X935736Y402433D01*
X928312Y407112D02*
X932025Y404804D01*
X924595Y409358D02*
X928312Y407112D01*
X920877Y411542D02*
X924595Y409358D01*
X917159Y413666D02*
X920877Y411542D01*
X914453Y415193D02*
X917159Y413666D01*
X773629Y459957D02*
X776585Y459591D01*
X770744Y460294D02*
X773629Y459957D01*
X767475Y460646D02*
X770744Y460294D01*
X764307Y460963D02*
X767475Y460646D01*
X761242Y461242D02*
X764307Y460963D01*
X758279Y461489D02*
X761242Y461242D01*
X755426Y461703D02*
X758279Y461489D01*
X752683Y461887D02*
X755426Y461703D01*
X750053Y462044D02*
X752683Y461887D01*
X747540Y462174D02*
X750053Y462044D01*
X745146Y462281D02*
X747540Y462174D01*
X742514Y462377D02*
X745146Y462281D01*
X740053Y462448D02*
X742514Y462377D01*
X737765Y462495D02*
X740053Y462448D01*
X735657Y462521D02*
X737765Y462495D01*
X733731Y462531D02*
X735657Y462521D01*
X731993Y462527D02*
X733731Y462531D01*
X730447Y462512D02*
X731993Y462527D01*
X729097Y462488D02*
X730447Y462512D01*
X727949Y462460D02*
X729097Y462488D01*
X727415Y462445D02*
X727949Y462460D01*
X726942Y462428D02*
X727415Y462445D01*
X726529Y462413D02*
X726942Y462428D01*
X726179Y462399D02*
X726529Y462413D01*
X725890Y462387D02*
X726179Y462399D01*
X725665Y462376D02*
X725890Y462387D01*
X725503Y462367D02*
X725665Y462376D01*
X725406Y462363D02*
X725503Y462367D01*
X725374Y462362D02*
X725406Y462363D01*
X725374Y462362D02*
Y580471D01*
X833536Y594757D02*
X840102Y596648D01*
X846768Y598697D01*
X853525Y600908D01*
X860365Y603286D01*
X865327Y605103D01*
X870324Y607011D01*
X875354Y609014D01*
X880412Y611114D01*
X885495Y613312D02*
X890602Y615612D01*
X895726Y618014D01*
X900866Y620523D01*
X906020Y623140D01*
X914414Y627750D01*
X917159Y629159D01*
X920877Y631283D01*
X924595Y633468D01*
X928312Y635712D01*
X932025Y638019D01*
X935736Y640390D01*
X939442Y642823D01*
X943142Y645322D01*
X948218Y648863D01*
X953278Y652531D01*
X958318Y656324D01*
X963335Y660249D01*
X968327Y664306D01*
X973289Y668497D01*
X978221Y672824D01*
X983117Y677290D01*
X987975Y681896D01*
X992192Y686044D01*
X996375Y690302D01*
X1000522Y694671D01*
X1004632Y699156D01*
X1008701Y703756D01*
X1012729Y708473D01*
X1016714Y713307D01*
X1020651Y718260D01*
X1099391D01*
X1060022Y659205D02*
X1099391Y718260D01*
X1058466Y656844D02*
X1060022Y659205D01*
X1057059Y654540D02*
X1058466Y656844D01*
X1055798Y652292D02*
X1057059Y654540D01*
X1054676Y650101D02*
X1055798Y652292D01*
X1053693Y647963D02*
X1054676Y650101D01*
X1052841Y645883D02*
X1053693Y647963D01*
X1052121Y643855D02*
X1052841Y645883D01*
X1051526Y641881D02*
X1052121Y643855D01*
X1050996Y639691D02*
X1051526Y641881D01*
X1050619Y637570D02*
X1050996Y639691D01*
X1050391Y635516D02*
X1050619Y637570D01*
X1050307Y633530D02*
X1050391Y635516D01*
X1050307Y633530D02*
X1050361Y631611D01*
X1050547Y629755D01*
X1050859Y627966D01*
X1051293Y626241D01*
X1051843Y624580D01*
X1052362Y623295D01*
X1052948Y622051D01*
X1053600Y620845D01*
X1054314Y619679D01*
X1055086Y618551D01*
X1055915Y617461D01*
X1057730Y615393D01*
X1059736Y613472D01*
X1061911Y611696D01*
X1063512Y610543D01*
X1067106Y608200D01*
X1066895Y608439D02*
X1068662Y607483D01*
X1070470Y606591D01*
X1072311Y605764D01*
X1074177Y604997D01*
X1076061Y604290D01*
X1077955Y603644D01*
X1080591Y602843D01*
X1083212Y602151D01*
X1085797Y601566D01*
X1088324Y601086D01*
X1090774Y600708D01*
X1093127Y600429D01*
X1095361Y600246D01*
X1097455Y600155D01*
X1099391Y600154D01*
X1232277Y593481D02*
X1233827Y591478D01*
X1235106Y589293D01*
X1236092Y586964D01*
X1236769Y584525D01*
X1237080Y582529D01*
X1237185Y580472D01*
Y462350D02*
Y580472D01*
X1228509Y446028D02*
X1230512Y447577D01*
X1226325Y444748D02*
X1228509Y446028D01*
X853493Y600910D02*
X860333Y603287D01*
X846736Y598698D02*
X853493Y600910D01*
X840070Y596650D02*
X846736Y598698D01*
X833504Y594758D02*
X840070Y596650D01*
X827048Y593015D02*
X833504Y594758D01*
X820708Y591417D02*
X827048Y593015D01*
X814494Y589955D02*
X820708Y591417D01*
X808415Y588625D02*
X814494Y589955D01*
X802480Y587422D02*
X808415Y588625D01*
X795641Y586150D02*
X802480Y587422D01*
X792308Y585573D02*
X795641Y586150D01*
X789033Y585035D02*
X792308Y585573D01*
X785818Y584533D02*
X789033Y585035D01*
X782665Y584068D02*
X785818Y584533D01*
X779575Y583636D02*
X782665Y584068D01*
X776553Y583237D02*
X779575Y583636D01*
X773597Y582871D02*
X776553Y583237D01*
X770712Y582536D02*
X773597Y582871D01*
X767443Y582182D02*
X770712Y582536D01*
X764275Y581867D02*
X767443Y582182D01*
X761210Y581586D02*
X764275Y581867D01*
X758247Y581339D02*
X761210Y581586D01*
X755394Y581126D02*
X758247Y581339D01*
X752651Y580942D02*
X755394Y581126D01*
X750021Y580785D02*
X752651Y580942D01*
X747508Y580654D02*
X750021Y580785D01*
X745114Y580547D02*
X747508Y580654D01*
X742482Y580451D02*
X745114Y580547D01*
X740021Y580380D02*
X742482Y580451D01*
X737733Y580333D02*
X740021Y580380D01*
X735625Y580307D02*
X737733Y580333D01*
X733699Y580297D02*
X735625Y580307D01*
X731961Y580301D02*
X733699Y580297D01*
X730415Y580318D02*
X731961Y580301D01*
X729065Y580342D02*
X730415Y580318D01*
X727917Y580369D02*
X729065Y580342D01*
X727384Y580386D02*
X727917Y580369D01*
X726910Y580403D02*
X727384Y580386D01*
X726497Y580418D02*
X726910Y580403D01*
X726147Y580433D02*
X726497Y580418D01*
X725858Y580446D02*
X726147Y580433D01*
X725634Y580457D02*
X725858Y580446D01*
X725471Y580465D02*
X725634Y580457D01*
X725374Y580471D02*
X725471Y580465D01*
X725342Y580472D02*
X725374Y580471D01*
X1237091Y460254D02*
X1237197Y462311D01*
X1236781Y458259D02*
X1237091Y460254D01*
X1236104Y455819D02*
X1236781Y458259D01*
X1235118Y453490D02*
X1236104Y455819D01*
X1233839Y451306D02*
X1235118Y453490D01*
X1232289Y449303D02*
X1233839Y451306D01*
X1217445Y599974D02*
X1219502Y599869D01*
X1221497Y599559D01*
X1223936Y598882D01*
X1226266Y597896D01*
X1228450Y596617D01*
X1230453Y595067D01*
X1232422Y593064D01*
X1234082Y590812D01*
X1235401Y588359D01*
X1236356Y585754D01*
X1236928Y583084D01*
X1237126Y580294D01*
X1237126Y462172D01*
X1237021Y460115D02*
X1237126Y462172D01*
X1236710Y458119D02*
X1237021Y460115D01*
X1236033Y455680D02*
X1236710Y458119D01*
X1235047Y453351D02*
X1236033Y455680D01*
X1233768Y451166D02*
X1235047Y453351D01*
X1232218Y449164D02*
X1233768Y451166D01*
X1230215Y447194D02*
X1232218Y449164D01*
X1227963Y445534D02*
X1230215Y447194D01*
X1166220Y599974D02*
X1217445D01*
X1095361Y442578D02*
X1097455Y442670D01*
X1093127Y442395D02*
X1095361Y442578D01*
X1090774Y442116D02*
X1093127Y442395D01*
X1088324Y441738D02*
X1090774Y442116D01*
X1085797Y441258D02*
X1088324Y441738D01*
X1083212Y440674D02*
X1085797Y441258D01*
X1080591Y439983D02*
X1083212Y440674D01*
X1077955Y439180D02*
X1080591Y439983D01*
X1097455Y442670D02*
X1168988D01*
X1020651Y324561D02*
X1099391Y324562D01*
X1076061Y438534D02*
X1077955Y439180D01*
X1074177Y437828D02*
X1076061Y438534D01*
X1072311Y437062D02*
X1074177Y437828D01*
X1070470Y436234D02*
X1072311Y437062D01*
X1068662Y435344D02*
X1070470Y436234D01*
X1066895Y434388D02*
X1068662Y435344D01*
X1065176Y433369D02*
X1066895Y434388D01*
X1063512Y432283D02*
X1065176Y433369D01*
X1061911Y431130D02*
X1063512Y432283D01*
X1059736Y429353D02*
X1061911Y431130D01*
X1057730Y427433D02*
X1059736Y429353D01*
X1055915Y425365D02*
X1057730Y427433D01*
X1055086Y424274D02*
X1055915Y425365D01*
X1054314Y423147D02*
X1055086Y424274D01*
X1053600Y421980D02*
X1054314Y423147D01*
X1052948Y420774D02*
X1053600Y421980D01*
X1052362Y419530D02*
X1052948Y420774D01*
X1051843Y418245D02*
X1052362Y419530D01*
X1051293Y416583D02*
X1051843Y418245D01*
X1050859Y414858D02*
X1051293Y416583D01*
X1050547Y413069D02*
X1050859Y414858D01*
X1050361Y411215D02*
X1050547Y413069D01*
X1050307Y409295D02*
X1050361Y411215D01*
X1050307Y409295D02*
X1050391Y407309D01*
X1050619Y405255D01*
X1050996Y403134D01*
X1051526Y400944D01*
X1052121Y398970D01*
X1052841Y396943D01*
X1053693Y394861D01*
X1054676Y392724D01*
X1055798Y390531D01*
X1057059Y388283D01*
X1058466Y385979D01*
X1060022Y383618D01*
X1099391Y324562D01*
X1146128Y442670D02*
X1217661D01*
X776585Y459591D02*
X779607Y459192D01*
X782697Y458760D01*
X785850Y458295D01*
X789065Y457794D01*
X792340Y457255D01*
X795673Y456678D01*
X802512Y455406D01*
X808447Y454203D01*
X814526Y452873D01*
X820740Y451412D01*
X827080Y449813D01*
X833536Y448070D01*
X840102Y446178D01*
X846768Y444130D01*
X853525Y441919D01*
X860365Y439541D01*
X906052Y419688D02*
X914446Y415078D01*
X900898Y422305D02*
X906052Y419688D01*
X895758Y424815D02*
X900898Y422305D01*
X890634Y427216D02*
X895758Y424815D01*
X885527Y429516D02*
X890634Y427216D01*
X875386Y433815D02*
X880444Y431715D01*
X870356Y435817D02*
X875386Y433815D01*
X865359Y437726D02*
X870356Y435817D01*
X860397Y439542D02*
X865359Y437726D01*
X853557Y441920D02*
X860397Y439542D01*
X846800Y444131D02*
X853557Y441920D01*
X840134Y446180D02*
X846800Y444131D01*
X833568Y448071D02*
X840134Y446180D01*
D58*
X1099907Y486890D02*
X1102034D01*
X1099953Y481538D02*
X1102079Y481538D01*
X1099907Y481583D02*
X1099953Y481538D01*
X1099907Y481583D02*
Y486890D01*
X1109190Y481507D02*
Y486814D01*
X1109144Y486859D02*
X1109190Y486814D01*
X1107018Y486859D02*
X1109144Y486859D01*
X1107063Y481507D02*
X1109190D01*
X1127541Y523636D02*
Y525762D01*
X1132893Y523681D02*
Y525808D01*
X1132848Y523636D02*
X1132893Y523681D01*
X1127541Y523636D02*
X1132848D01*
X1127617Y532918D02*
X1132923D01*
X1127571Y532873D02*
X1127617Y532918D01*
X1127571Y530746D02*
Y532873D01*
X1132923Y530792D02*
Y532918D01*
X1144325Y551441D02*
Y553568D01*
X1138973Y551396D02*
Y553522D01*
X1139019Y553568D01*
X1144325D01*
X1138943Y544285D02*
X1144250D01*
X1144295Y544331D01*
Y546457D01*
X1138943Y544285D02*
Y546412D01*
X882081Y576679D02*
Y578805D01*
X876729Y576633D02*
Y578760D01*
X876774Y578805D01*
X882081D01*
X876699Y569523D02*
X882005D01*
X882051Y569568D01*
Y571695D01*
X876699Y569523D02*
Y571649D01*
X982888Y509438D02*
X985015D01*
X982934Y504086D02*
X985060Y504086D01*
X982888Y504131D02*
X982934Y504086D01*
X982888Y504131D02*
Y509438D01*
X992171Y509362D02*
X992171Y504056D01*
X992126Y509408D02*
X992171Y509362D01*
X989999Y509408D02*
X992126D01*
X990044Y504056D02*
X992171D01*
X1001084Y504056D02*
X1003211Y504056D01*
X1001039Y509408D02*
X1003166D01*
X1003211Y509362D01*
X1003211Y504056D01*
X993928Y504131D02*
Y509438D01*
Y504131D02*
X993974Y504086D01*
X996100D01*
X993928Y509438D02*
X996055D01*
X1081077Y512088D02*
Y514215D01*
X1075725Y512043D02*
Y514169D01*
X1075770Y514215D01*
X1081077D01*
X1075695Y504932D02*
X1081001D01*
X1081047Y504978D01*
Y507104D01*
X1075695Y504932D02*
Y507059D01*
X1111805Y500018D02*
X1113931D01*
X1111850Y494666D02*
X1113977D01*
X1111805Y494711D02*
X1111850Y494666D01*
X1111805Y494711D02*
Y500018D01*
X1121087Y494636D02*
Y499942D01*
X1121042Y499988D02*
X1121087Y499942D01*
X1118915Y499988D02*
X1121042D01*
X1118961Y494636D02*
X1121087D01*
X1099892Y493101D02*
X1102019D01*
X1099937Y487749D02*
X1102064D01*
X1099892Y487794D02*
X1099937Y487749D01*
X1099892Y487794D02*
Y493101D01*
X1109175Y487718D02*
Y493025D01*
X1109129Y493070D02*
X1109175Y493025D01*
X1107003Y493070D02*
X1109129D01*
X1107048Y487718D02*
X1109175D01*
X1222994Y487829D02*
X1225121D01*
X1222949Y493181D02*
X1225076D01*
X1225121Y493135D01*
Y487829D02*
Y493135D01*
X1215839Y487904D02*
Y493211D01*
Y487904D02*
X1215884Y487859D01*
X1218011D01*
X1215839Y493211D02*
X1217965D01*
X1215805Y480894D02*
X1217931D01*
X1215850Y475542D02*
X1217977D01*
X1215805Y475587D02*
X1215850Y475542D01*
X1215805Y475587D02*
Y480894D01*
X1225087Y475511D02*
Y480818D01*
X1225042Y480863D02*
X1225087Y480818D01*
X1222915Y480863D02*
X1225042D01*
X1222961Y475511D02*
X1225087D01*
X819550Y468481D02*
Y470607D01*
X824902Y468526D02*
Y470653D01*
X824856Y468481D02*
X824902Y468526D01*
X819550Y468481D02*
X824856D01*
X819625Y477763D02*
X824932D01*
X819580Y477718D02*
X819625Y477763D01*
X819580Y475591D02*
Y477718D01*
X824932Y475637D02*
Y477763D01*
X844947Y475637D02*
Y477763D01*
X839595Y475591D02*
Y477718D01*
X839641Y477763D01*
X844947D01*
X839565Y468481D02*
X844872D01*
X844917Y468526D01*
Y470653D01*
X839565Y468481D02*
Y470607D01*
X832893Y468481D02*
Y470607D01*
X838245Y470653D02*
X838245Y468526D01*
X838200Y468481D02*
X838245Y468526D01*
X832893Y468481D02*
X838200Y468481D01*
X832969Y477763D02*
X838275Y477763D01*
X832924Y477718D02*
X832969Y477763D01*
X832924Y475591D02*
Y477718D01*
X838275Y475637D02*
Y477763D01*
X831604Y475637D02*
Y477763D01*
X826252Y475591D02*
Y477718D01*
X826297Y477763D01*
X831604D01*
X826222Y468481D02*
X831528D01*
X831573Y468526D01*
Y470653D01*
X826222Y468481D02*
Y470607D01*
X1145113Y457910D02*
X1147240D01*
X1145068Y463262D02*
X1147195D01*
X1147240Y463216D01*
Y457910D02*
Y463216D01*
X1137958Y457985D02*
Y463292D01*
Y457985D02*
X1138003Y457940D01*
X1140130D01*
X1137958Y463292D02*
X1140084D01*
X1145275Y451185D02*
X1147402D01*
X1145230Y456537D02*
X1147356D01*
X1147402Y456492D01*
Y451185D02*
Y456492D01*
X1138119Y451261D02*
Y456567D01*
Y451261D02*
X1138165Y451216D01*
X1140291D01*
X1138119Y456567D02*
X1140246D01*
X1145043Y444418D02*
X1147169D01*
X1144997Y449769D02*
X1147124D01*
X1147169Y449724D01*
Y444418D02*
Y449724D01*
X1137887Y444493D02*
Y449800D01*
Y444493D02*
X1137932Y444448D01*
X1140059D01*
X1137887Y449800D02*
X1140014D01*
X1215701Y505528D02*
X1217827D01*
X1215746Y500177D02*
X1217873Y500176D01*
X1215701Y500222D02*
X1215746Y500177D01*
X1215701Y500222D02*
X1215701Y505528D01*
X1224983Y500146D02*
X1224983Y505453D01*
X1224938Y505498D02*
X1224983Y505453D01*
X1222811Y505498D02*
X1224938Y505498D01*
X1222857Y500146D02*
X1224983Y500146D01*
X1219762Y575002D02*
Y577128D01*
X1225114Y575047D02*
Y577174D01*
X1225068Y575002D02*
X1225114Y575047D01*
X1219762Y575002D02*
X1225068D01*
X1219837Y584284D02*
X1225144D01*
X1219792Y584239D02*
X1219837Y584284D01*
X1219792Y582112D02*
Y584239D01*
X1225144Y582158D02*
Y584284D01*
X1131351Y551441D02*
Y553568D01*
X1126000Y551396D02*
Y553522D01*
X1126045Y553568D01*
X1131351D01*
X1125969Y544285D02*
X1131276D01*
X1131321Y544331D01*
Y546457D01*
X1125969Y544285D02*
Y546412D01*
X888095Y470027D02*
X890221D01*
X888140Y464676D02*
X890267Y464676D01*
X888095Y464721D02*
X888140Y464676D01*
X888095Y464721D02*
Y470027D01*
X897377Y464645D02*
X897377Y469952D01*
X897332Y469997D02*
X897377Y469952D01*
X895205Y469997D02*
X897332D01*
X895251Y464645D02*
X897377D01*
X885093Y464622D02*
X887220D01*
X885048Y469974D02*
X887174D01*
X887220Y469929D01*
Y464622D02*
Y469929D01*
X877937Y464698D02*
X877937Y470004D01*
X877937Y464698D02*
X877983Y464652D01*
X880109D01*
X877937Y470004D02*
X880064D01*
X815218Y567129D02*
Y569256D01*
X820570Y567175D02*
Y569301D01*
X820525Y567129D02*
X820570Y567175D01*
X815218Y567129D02*
X820525D01*
X815294Y576412D02*
X820600D01*
X815249Y576366D02*
X815294Y576412D01*
X815249Y574240D02*
Y576366D01*
X820600Y574285D02*
Y576412D01*
X807943Y567137D02*
Y569264D01*
X813295Y567182D02*
Y569309D01*
X813249Y567137D02*
X813295Y567182D01*
X807943Y567137D02*
X813249D01*
X808018Y576420D02*
X813325D01*
X807973Y576374D02*
X808018Y576420D01*
X807973Y574248D02*
Y576374D01*
X813325Y574293D02*
Y576420D01*
X806766Y574374D02*
Y576501D01*
X801414Y574329D02*
Y576455D01*
X801459Y576501D01*
X806766D01*
X801384Y567218D02*
X806690D01*
X806736Y567264D01*
Y569390D01*
X801384Y567218D02*
Y569345D01*
X907345Y576894D02*
Y579020D01*
X901993Y576849D02*
Y578975D01*
X902038Y579020D01*
X907345D01*
X901963Y569738D02*
X907269D01*
X907314Y569783D01*
Y571910D01*
X901963Y569738D02*
Y571865D01*
X1009485Y524158D02*
Y526285D01*
X1004133Y524112D02*
Y526239D01*
X1004179Y526285D01*
X1009485D01*
X1004103Y517002D02*
X1009410D01*
X1009455Y517047D01*
Y519174D01*
X1004103Y517002D02*
Y519129D01*
X1067795Y517053D02*
X1069922D01*
X1067750Y522405D02*
X1069877D01*
X1069922Y522360D01*
Y517053D02*
Y522360D01*
X1060640Y517129D02*
Y522435D01*
Y517129D02*
X1060685Y517083D01*
X1062812D01*
X1060640Y522435D02*
X1062766D01*
X1093470Y543522D02*
X1095597D01*
X1093425Y548873D02*
X1095551D01*
X1095597Y548828D01*
Y543522D02*
Y548828D01*
X1086314Y543597D02*
Y548904D01*
Y543597D02*
X1086360Y543552D01*
X1088486D01*
X1086314Y548904D02*
X1088441D01*
X1044135Y551224D02*
Y553350D01*
X1049487Y551269D02*
Y553396D01*
X1049441Y551224D02*
X1049487Y551269D01*
X1044135Y551224D02*
X1049441D01*
X1044211Y560506D02*
X1049517D01*
X1044165Y560461D02*
X1044211Y560506D01*
X1044165Y558334D02*
Y560461D01*
X1049517Y560506D02*
X1049517Y558380D01*
X1133016Y460439D02*
X1135143D01*
X1132971Y465791D02*
X1135097D01*
X1135143Y465745D01*
Y460439D02*
Y465745D01*
X1125860Y460514D02*
Y465821D01*
Y460514D02*
X1125905Y460469D01*
X1128032D01*
X1125860Y465821D02*
X1127987D01*
X979108Y527828D02*
Y529954D01*
X973756Y527782D02*
Y529909D01*
X973801Y529954D01*
X979108D01*
X973726Y520672D02*
X979032D01*
X979077Y520717D01*
Y522844D01*
X973726Y520672D02*
Y522798D01*
X1222947Y481670D02*
X1225074D01*
X1222902Y487022D02*
X1225029D01*
X1225074Y486976D01*
Y481670D02*
Y486976D01*
X1215791Y481746D02*
Y487052D01*
Y481746D02*
X1215837Y481700D01*
X1217963D01*
X1215791Y487052D02*
X1217918D01*
X1222970Y493988D02*
X1225097Y493988D01*
X1222925Y499339D02*
X1225051Y499339D01*
X1225097Y499294D01*
Y493988D02*
Y499294D01*
X1215814Y499369D02*
X1215814Y494063D01*
X1215860Y494018D01*
X1217986Y494018D01*
X1215814Y499369D02*
X1217941Y499369D01*
X895268Y580840D02*
X897395D01*
X895223Y586192D02*
X897349D01*
X897395Y586147D01*
Y580840D02*
Y586147D01*
X888112Y580916D02*
Y586222D01*
Y580916D02*
X888157Y580871D01*
X890284D01*
X888112Y586222D02*
X890239D01*
X930214Y474530D02*
Y476656D01*
X935565Y474575D02*
Y476701D01*
X935520Y474530D02*
X935565Y474575D01*
X930214Y474530D02*
X935520D01*
X930289Y483812D02*
X935596D01*
X930244Y483767D02*
X930289Y483812D01*
X930244Y481640D02*
Y483767D01*
X935596Y481685D02*
Y483812D01*
X929314Y481647D02*
Y483773D01*
X923962Y481601D02*
Y483728D01*
X924007Y483773D01*
X929314D01*
X923932Y474491D02*
X929238D01*
X929284Y474536D01*
Y476663D01*
X923932Y474491D02*
Y476617D01*
X1126148Y445484D02*
G03*
X1126148Y445484I-1671J0D01*
G01*
Y452571D02*
G03*
X1126148Y452571I-1671J0D01*
G01*
D63*
X885765Y580621D02*
G03*
X885765Y580621I-404J0D01*
G01*
X1216895Y586914D02*
G03*
X1216895Y586914I-493J0D01*
G01*
D64*
X1182348Y502727D02*
G03*
X1182348Y502727I-595J0D01*
G01*
X1202542Y472080D02*
G03*
X1202542Y472080I-394J0D01*
G01*
X813785Y467452D02*
Y467475D01*
X899718Y483589D02*
X899741D01*
D65*
X1111094Y482109D02*
G03*
X1111094Y482109I-492J0D01*
G01*
X1120158Y508232D02*
G03*
X1120158Y508232I-492J0D01*
G01*
X1052153Y554150D02*
G03*
X1052153Y554150I-492J0D01*
G01*
D66*
X1111594Y514532D02*
G03*
X1111594Y514532I-1181J0D01*
G01*
D67*
X1120528Y440933D02*
Y443110D01*
X1128415Y440933D02*
Y443110D01*
X1135300D01*
X1113647D02*
X1120528D01*
X1124477Y440931D02*
X1128414D01*
X1120540D02*
X1124477D01*
X1113647Y443110D02*
Y454921D01*
X1135300Y443110D02*
Y454921D01*
X1113647D02*
X1135300D01*
M02*
