M48
;Layer_Color=9474304
;FILE_FORMAT=2:5
INCH,LZ
;TYPE=PLATED
T1F00S00C0.01181
T2F00S00C0.03937
;TYPE=NON_PLATED
T3F00S00C0.02756
T4F00S00C0.03543
T5F00S00C0.12205
%
T01
X0731445Y0466004
X0734453
X0737461
X0740469
X0743476
X0746484
X0749492
X07525
X0755508
X0758516
X0761524
X0764532
X0861169Y0468095
X0870103Y0468145
X0883684Y0447699
X0886463Y044885
X0887614Y0446072
X0890393Y0447223
X0889242Y0450001
X0892021Y0451153
X08948Y0452304
X0897579Y0453455
X089873Y0450676
X0895951Y0449525
X0897102Y0446746
X0894323Y0445595
X0895474Y0442816
X0892695Y0441665
X0889916Y0440514
X0888765Y0443293
X0885986Y0442142
X0884835Y044492
X0891544Y0444444
X0893172Y0448374
X0899881Y0447897
X0901032Y0445118
X0898253Y0443967
X0887137Y0439363
X1069876Y0442483
X1072602Y0443754
X1071331Y044648
X1068605Y0445209
X1067334Y0447935
X107006Y0449206
X1072786Y0450478
X1071515Y0453203
X1074241Y0454475
X1075512Y0451749
X1076783Y0449023
X1074057Y0447752
X1075329Y0445025
X1078055Y0446297
X1083289Y0450723
X1086015Y0451994
X1084744Y045472
X1082018Y0453449
X1080746Y0456175
X1083472Y0457446
X1086198Y0458717
X1084927Y0461443
X1087653Y0462714
X1088925Y0459988
X1090196Y0457263
X108747Y0455991
X1088741Y0453265
X1091467Y0454536
X1082201Y0460172
X1079475Y0458901
X1078204Y0461627
X1076933Y0464353
X1079659Y0465624
X108093Y0462898
X1083656Y0464169
X1086382Y0465441
X1085111Y0468167
X1082385Y0466895
X1071699Y0459927
X1068973Y0458656
X1066247Y0457384
X1067518Y0454659
X1064792Y0453387
X1063521Y0456113
X1070244Y045593
X107297Y0457201
X1068789Y0451932
X1066063Y0450661
X1098226Y0462309
X1096592Y0465813
X1106738Y0466407
X1211032Y0464482
X1210418Y0469457
X1208269Y0476546
X1213742Y0499863
X1160588Y0499174
X1158296
X1156005
X1153714
X1151423
Y0502084
X1153714
X1156005
X1158296
X1160588
X1160466Y048227
X1158175
X1155884
X1153592
X1151301
Y0479359
X1153592
X1155884
X1158175
X1160466
X1174231Y048234
X114264Y0485368
X1135677Y0484901
X1136586Y0498706
X1138467Y050062
X1140348Y0502534
X1142229Y0504448
X114411Y0506362
X1139838Y0506838
X1137957Y0504924
X1136075Y050301
X1134194Y0501096
X1124008Y0503381
X1125621Y0506396
X1117411Y0504066
X1113063Y0512815
X111237Y0518743
X1109366
X110835Y0527961
X110939Y0531779
X1105413Y0531528
X1101563
X1096835Y0532647
X109705Y0529557
X1096793Y0524708
X1097179Y0521017
X1094175Y0526982
X1096063Y0512563
X1098349Y0492847
X111206Y0493106
X110817Y0497849
X1111014Y0485484
X1105104Y0469911
X1141719Y0508752
X1134635Y0516063
X1136312Y0523263
X1136587Y0527228
X1144972Y0528264
X1147583Y0530106
X1141966Y0535583
X1130011
X1117084Y0545334
X1110629Y0545426
X1103606Y0545612
X1110538Y0558748
X1109831Y0562063
X1115339Y0558502
X1105738Y0571788
X110706Y0575422
X1096842Y0575505
X1097981Y0578773
X1101789Y0585848
X1124191Y0576763
X1132646Y0568911
X1158933Y0576331
X1154362Y0535505
X1168972Y0525268
X1196634Y0562555
X1206347Y058755
X1226713Y0577437
X1087652Y0577254
X1086381Y0574528
X1083655Y0575799
X1082384Y0573073
X108511Y0571802
X1084926Y0578525
X1086197Y0581251
X1088924Y057998
X1090195Y0582706
X1087469Y0583977
X108874Y0586703
X1086014Y0587974
X1084743Y0585248
X1082017Y0586519
X1083288Y0589245
X1083471Y0582522
X10822Y0579796
X1079474Y0581067
X1080745Y0583793
X1080929Y057707
X1078203Y0578341
X1076932Y0575615
X1079658Y0574344
X1071739Y05804
X1069013Y0581671
X1070284Y0584398
X107301Y0583126
X1074282Y0585852
X1075553Y0588579
X1072827Y058985
X1071556Y0587124
X1068829Y0588395
X1070101Y0591121
X1067375Y0592392
X1066103Y0589666
X1064832Y058694
X1067558Y0585669
X1066287Y0582943
X1063561Y0584214
X1068646Y0595118
X1071372Y0593847
X1072643Y0596573
X1069917Y0597844
X1075369Y0595302
X1078095Y0594031
X1076824Y0591304
X1074098Y0592576
X1091466Y0585432
X1088488Y055063
X1083315Y0550098
X107861Y0548134
X107489Y0547079
X107463Y0555839
X1077323Y0558532
X1067334Y055393
X1088691Y0541679
X1088487Y0538366
X1089623Y0508618
X1075031Y0506783
X1065969Y0507539
X1065894Y0512055
X1062689Y0510004
X1062669Y0505508
X1068622Y0497483
X1071572Y0495425
X1054128Y049882
X1031422Y0498775
X1031248Y050993
X1028907Y051269
X1025011Y0512589
X1022424Y0514537
X1017478Y0513198
X101751Y0510297
X1017479Y0507457
X1009758Y0507584
X1009689Y0512623
X1002847Y0514667
X1004757Y0508468
X0991147Y0511944
X0987144Y0512346
X0979745Y0512796
X0980449Y0507539
X0989781Y0520817
X0989749Y0525647
X0994709Y0525419
X0994742Y0520654
X0995139Y0533782
X1002103Y0531975
X1005172Y0528221
X1009786Y0528041
X0987039Y0535398
X0984818Y0533303
X0971595Y0523039
X0961815Y0521974
X0956497Y0537211
X0959256Y0540024
X0950728Y0547545
X0948143Y0545119
X0941425Y0551836
X0943929Y0554548
X0947682Y0505382
X0950455Y0502812
X0943762Y0495835
X0940989Y0498406
X1071455Y0518331
X0932713Y0520781
X0930943Y0519058
X0924195Y0514901
X0928216Y0497073
X0930517Y0498824
X0924965Y048942
X0903601Y0490103
X0890181Y0493007
X0885362Y0494408
X0885442Y0485189
X0844626Y0484495
X0844639Y0487384
X084175Y0487397
X0841737Y0484508
X0838848Y0484481
X0835958Y048449
X0835972Y048738
X0838861Y0487371
X0838834Y049026
X0838843Y0493149
X0835954Y0493158
X0835945Y0490269
X0833056Y0490282
X0833065Y0493172
X0830175Y0493185
X0830166Y0490296
X0830193Y0487406
X083018Y0484517
Y0481628
X0827291Y0481601
Y048449
X0824401Y04845
Y048161
X0821512Y0481624
Y0484513
X0821525Y0487402
X0824415Y0487389
X0827304Y048738
X0827277Y0490269
X0827286Y0493158
X0824397Y0493167
X0824388Y0490278
X0821499Y0490291
X0821508Y0493181
X0818618Y0493154
X0818609Y0490265
X081572Y0490274
X0815729Y0493163
X081284Y0493176
X0812831Y0490287
X0809941Y049026
X0809951Y049315
X0807061Y0493159
X0807052Y0490269
X0804163Y0490283
X0804172Y0493172
X0801283Y0493145
X0801274Y0490256
X0798385Y0490265
X0798393Y0493154
X0798411Y0487376
X0801301Y0487367
X0801287Y0484477
Y0481588
X0798398Y0481597
Y0484486
X0804176Y0484504
Y0481615
X0807066Y0481601
Y0484491
X0809955Y0484482
Y0481593
X0812844Y0481619
Y0484509
X0812858Y0487398
X0815747Y0487384
X0818636Y0487375
X0818623Y0484486
Y0481597
X0815733Y0481606
Y0484495
X0809968Y0487371
X0807079Y048738
X080419Y0487393
X0833082Y0487393
X0833069Y0484504
X0841723Y0490287
X0841732Y0493176
X0844622Y0493163
X0844613Y0490273
X0846636Y04755
X085285Y04755
X0912946Y0501476
X0926659Y05355
X0928669Y0533722
X0930679Y0531944
X0932689Y0530165
X0934699Y0528387
X0934951Y0532679
X0936961Y05309
X0932941Y0534457
X0930931Y0536236
X0928921Y0538014
X0923416Y0552648
X0934165Y0558127
X0937232Y0561194
X0911612Y0571988
X0901844Y0567523
X0902564Y0563967
X0891243Y0573753
X0891864Y0578871
X0883326Y0579507
X0873835Y0576528
X0883006Y0595223
X0884157Y0598002
X0886936Y059685
X0885785Y0594072
X0888564Y059292
X0891343Y059177
X0894121Y0590619
X0895273Y0593397
X0892494Y0594548
X0889715Y0595699
X0890866Y0598478
X0892017Y0601257
X0894796Y0600106
X0897575Y0598955
X0896424Y0596176
X0899203Y0595025
X0900354Y0597804
X0893645Y0597327
X0888087Y0599629
X0889238Y0602408
X0886459Y0603559
X0885308Y060078
X0898051Y0592246
X08969Y0589467
X089098Y0553635
X0892983Y0542435
X0803957Y0565665
X076465Y0564776
X0761642
X0758634
X0755626
X0752618
X074961
X0746602
X0743595
X0740587
X0737579
X0734571
X0731563
Y0567783
X0734571
X0737579
X0740587
X0743595
X0746602
X074961
X0752618
X0755626
X0758634
X0761642
X076465
Y0570791
Y0573799
X0761642
Y0570791
X0758634
Y0573799
X0755626
Y0570791
X0752618
Y0573799
X074961
Y0570791
X0746602
Y0573799
X0743595
Y0570791
X0740587
Y0573799
X0737579
Y0570791
X0734571
Y0573799
X0731563
Y0570791
Y0576807
X0734571
X0737579
X0740587
X0743595
X0746602
X074961
X0752618
X0755626
X0758634
X0761642
X076465
X0764532Y0478035
X0761524
X0758516
X0755508
X07525
X0749492
X0746484
X0743476
X0740469
X0737461
X0734453
X0731445
Y0475028
Y047202
X0734453
Y0475028
X0737461
Y047202
X0740469
Y0475028
X0743476
Y047202
X0746484
Y0475028
X0749492
Y047202
X07525
Y0475028
X0755508
Y047202
X0758516
Y0475028
X0761524
Y047202
X0764532
Y0475028
Y0469012
X0761524
X0758516
X0755508
X07525
X0749492
X0746484
X0743476
X0740469
X0737461
X0734453
X0731445
T02
X1148601Y0470852
X1158601
X1115148Y0594404
X1085341Y0597012
X091772Y0556004
X090772
X089772
X089772Y0546004
Y0536004
X090772
X091772
Y0546004
X090772
X090772Y0526004
Y0516004
Y0506004
Y0496004
X089772
Y0506004
Y0516004
Y0526004
X0882961Y0530748
Y0520748
Y0510748
X091772Y0506004
Y0496004
Y0486004
Y0476004
X090772
Y0486004
X091772Y0516004
Y0526004
T03
X1124477Y0445484
Y0452571
T04
X1132917Y0575658
X115024Y0575657
T05
X0993093Y0413142
X1060022Y0348183
X1182068Y0462657
X1182009Y0579988
X086711Y0547
Y049582
X0749
Y0547
X0993092Y0629678
X1060022Y0694637
M30
